<?xml version="1.0" encoding="UTF-8" standalone="no"?>
<!DOCTYPE svg PUBLIC "-//W3C//DTD SVG 1.1//EN" "http://www.w3.org/Graphics/SVG/1.1/DTD/svg11.dtd">
<svg width="100%" height="100%" viewBox="0 0 2481 3508" version="1.1" xmlns="http://www.w3.org/2000/svg" xmlns:xlink="http://www.w3.org/1999/xlink" xml:space="preserve" xmlns:serif="http://www.serif.com/" style="fill-rule:evenodd;clip-rule:evenodd;stroke-linecap:round;stroke-linejoin:round;stroke-miterlimit:1.5;">
    <path d="M495.166,1349.05L925.929,775.641C925.929,775.641 1013.45,608.35 1174.04,681.484C1334.64,754.619 1547.95,895.196 1547.95,895.196L2029.95,1163.8C2029.95,1163.8 2175.26,1273.39 2226.97,1352.48C2278.68,1431.56 2337.71,1520.64 2337.71,1520.64C2337.71,1520.64 2420.27,1622.83 2297.87,1789.74C2175.48,1956.65 1685.04,2577.64 1685.04,2577.64L1585.51,2706.71C1585.51,2706.71 1500.71,2808.53 1293,2708.75C1085.28,2608.98 569.476,2373.21 569.476,2373.21L408.03,2294.45C408.03,2294.45 296.514,2244.67 262.193,2131.22C227.873,2017.77 193.942,1925.24 193.942,1925.24C193.942,1925.24 144.299,1846.01 224.778,1721.41C305.256,1596.8 495.166,1349.05 495.166,1349.05ZM1966.32,1461.35C2076.53,1565.11 2157.77,1607.45 2230.45,1616.28C2303.12,1625.1 2273.3,1569.33 2273.3,1569.33C2273.3,1569.33 2235.38,1528.54 2159.12,1391.89C2082.86,1255.24 1894.28,1168.67 1894.28,1168.67C1894.28,1168.67 1501.78,963.134 1349.14,870.436C1196.5,777.739 1275.94,856.001 1275.94,856.001L1966.32,1461.35ZM1532.35,2490.89C1489.89,2695.18 1560.07,2616.22 1560.07,2616.22C1560.07,2616.22 2210.53,1771.02 2263.68,1701.67C2316.82,1632.33 2200.52,1657.56 2141.63,1674.51C2082.74,1691.46 1948.73,1821.34 1948.73,1821.34C1948.73,1821.34 1740,2001.28 1670.36,2067.44C1600.72,2133.6 1591.5,2169.8 1575.33,2215.15C1559.16,2260.5 1532.35,2490.89 1532.35,2490.89ZM483.963,2255.18C483.759,2254.12 953.396,2476.37 953.396,2476.37C953.396,2476.37 1276.09,2619.74 1375.13,2664.18C1474.17,2708.63 1487.44,2617.65 1487.44,2617.65C1487.44,2617.65 1506.6,2361.73 1508.13,2267.23C1509.66,2172.73 1467.55,2165.92 1410.62,2143.32C1329.09,2110.97 1122.7,2095.89 1016.07,2080.54C909.437,2065.2 763.993,2083.41 679.355,2096.12C619.507,2105.11 616.548,2108.19 508.236,2156.79C377.684,2215.37 484.167,2256.25 483.963,2255.18ZM287.904,1971.15C301.646,2007.78 321.172,2071.28 342.453,2111.23C363.734,2151.18 393.631,2158.54 423.553,2153.07C469.876,2144.59 509.162,2122.94 620.393,2060.35C731.624,1997.76 809.073,1732.47 809.073,1732.47C809.073,1732.47 940.454,1134.76 994.648,923.859C1048.84,712.959 961.024,858.798 961.024,858.798L583.899,1370.38C583.899,1370.38 376.457,1651.36 313.386,1731.22C250.314,1811.08 258.653,1849.46 263.581,1889.37C266.854,1915.87 278.368,1945.74 287.904,1971.15ZM851.58,1727.43C851.58,1727.43 840.257,1779.28 816.466,1899.32C792.676,2019.36 972.502,2040.3 972.502,2040.3C972.502,2040.3 1341.96,2080.96 1448.23,2084.67C1554.5,2088.38 1616.24,2035.02 1616.24,2035.02C1616.24,2035.02 1977.3,1747.31 2031.7,1688.47C2086.11,1629.64 2037.38,1589.58 2037.38,1589.58C2037.38,1589.58 1308.79,920.459 1143.51,799.015C1098.93,766.259 1066.61,809.705 1045.7,860.92C985.784,1007.67 851.58,1727.43 851.58,1727.43Z"/>
    <g transform="matrix(1.19573,-0.526779,0.526779,1.19573,-964.809,517.456)">
        <text x="1118.68px" y="1652.53px" style="font-family:'ChalkboardSE-Light', 'Chalkboard SE', cursive;font-size:675px;">0</text>
    </g>
    <g transform="matrix(4.11526,0,0,4.11526,-3559.91,-2605.31)">
        <path d="M1342.86,988.191L1175.1,841.092C1175.1,841.092 1155.8,822.075 1192.89,844.6C1229.98,867.125 1325.36,917.07 1325.36,917.07C1325.36,917.07 1371.18,938.107 1389.71,971.312C1408.24,1004.52 1417.46,1014.43 1417.46,1014.43C1417.46,1014.43 1424.7,1027.98 1407.05,1025.84C1389.38,1023.69 1369.64,1013.4 1342.86,988.191Z" style="fill:none;stroke:black;stroke-width:5.06px;"/>
    </g>
    <g transform="matrix(0.357787,0.213035,-0.732954,1.23098,2276.68,-1746.2)">
        <text x="465.984px" y="2740px" style="font-family:'ChalkboardSE-Light', 'Chalkboard SE', cursive;font-size:675px;">8</text>
    </g>
    <g transform="matrix(0.160949,-0.236881,1.04108,0.707365,-1357.44,-281.83)">
        <text x="1672.75px" y="2995.46px" style="font-family:'ChalkboardSE-Light', 'Chalkboard SE', cursive;font-size:675px;">4</text>
    </g>
    <g transform="matrix(-0.638688,0.272759,-0.731228,-0.760511,3565.32,4412.13)">
        <g transform="matrix(675,0,0,675,737.261,3157.59)">
        </g>
        <text x="353.145px" y="3157.59px" style="font-family:'ChalkboardSE-Light', 'Chalkboard SE', cursive;font-size:675px;">3</text>
    </g>
    <g transform="matrix(-0.410461,-0.0480629,0.234933,-0.830034,2429.06,2237.09)">
        <g transform="matrix(675,0,0,675,1746.27,247.49)">
        </g>
        <text x="1362.15px" y="247.49px" style="font-family:'ChalkboardSE-Light', 'Chalkboard SE', cursive;font-size:675px;">7</text>
    </g>
</svg>
