<?xml version="1.0" encoding="UTF-8" standalone="no"?>
<!DOCTYPE svg PUBLIC "-//W3C//DTD SVG 1.1//EN" "http://www.w3.org/Graphics/SVG/1.1/DTD/svg11.dtd">
<svg width="100%" height="100%" viewBox="0 0 2481 3508" version="1.1" xmlns="http://www.w3.org/2000/svg" xmlns:xlink="http://www.w3.org/1999/xlink" xml:space="preserve" xmlns:serif="http://www.serif.com/" style="fill-rule:evenodd;clip-rule:evenodd;stroke-linecap:round;stroke-linejoin:round;stroke-miterlimit:1.5;">
    <path d="M223.034,1693.02L193.449,1268.74C193.449,1268.74 196.716,1069.52 424.958,950.86C669.211,801.389 1013.08,580.269 1013.08,580.269C1013.08,580.269 1217.09,425.398 1436.96,560.369C1664.33,702.006 1987.28,888.594 1987.28,888.594C1987.28,888.594 2143.34,968.457 2185.21,1147.21C2202.93,1323.68 2250.75,1887.34 2250.75,1887.34C2250.75,1887.34 2262.78,1952.38 2250.71,2033.56C2236.94,2126.12 2195.59,2228.17 2065.67,2290.25C2016.1,2313.93 1974.43,2344.98 1895.26,2388.85C1575.94,2565.79 1380.24,2676.45 1380.24,2676.45C1380.24,2676.45 1227.45,2780.24 974.611,2651.14C729.502,2525.98 520.084,2420.54 520.084,2420.54C520.084,2420.54 247.73,2320.45 235.213,2094.06C225.178,1912.58 223.034,1693.02 223.034,1693.02ZM812.133,1563.17C812.133,1563.17 878.441,1710.27 1001.83,1898.59C1107.71,2060.16 1271.02,2263.04 1295.24,2304.69C1347.67,2394.89 1395.16,2335.12 1395.16,2335.12C1395.16,2335.12 1468.76,2231.98 1629.56,1944C1753.36,1722.28 1874.89,1412.63 1894.09,1361.94C1919.2,1295.68 1816.38,1307.33 1816.38,1307.33L1684.95,1314.49C1684.95,1314.49 1611.53,1314.41 1272.38,1335.32C1157.85,1342.38 998.297,1376.22 899.567,1390.5C825.775,1401.16 809.315,1400.64 797.553,1423.66C766.569,1484.3 812.133,1563.17 812.133,1563.17ZM909.312,1023.55C872.918,1089.68 817.35,1198.93 800.993,1225.25C784.637,1251.56 756.093,1293.25 768.978,1325.11C781.864,1356.96 858.974,1357.33 858.974,1357.33C858.974,1357.33 913.765,1352.53 934.506,1351.78C1027.61,1348.44 1014.47,1352.36 1419.73,1325.8C1549.75,1317.28 1771.55,1275 1818.38,1268.53C1947.04,1250.78 1861.41,1130.64 1861.41,1130.64C1861.41,1130.64 1754.45,1029.26 1704.17,977.889C1626.95,899.002 1417.72,724.848 1355.77,665.312C1293.83,605.776 1248.44,598.718 1203.98,613.622C1159.53,628.525 1072.45,732.257 1031.82,805.942C929.401,991.71 1000,858.776 909.312,1023.55ZM1895.03,1163.09C1895.03,1163.09 1958.48,1204.89 1991.68,1171.65C2024.89,1138.4 2054.76,1090.71 2050.43,1060.25C2046.1,1029.78 2064.61,993.368 1910.19,910.922C1755.77,828.475 1438.77,647.098 1438.77,647.098C1438.77,647.098 1313.27,573.989 1418.54,678.368C1523.8,782.747 1529.68,803.208 1597.65,872.348C1677.06,953.135 1895.03,1163.09 1895.03,1163.09ZM1951.88,1388.44C1879.28,1398.83 1814.36,1586.29 1693.92,1818.9C1573.65,2051.2 1460.11,2304.17 1445.16,2344.26C1415.01,2425.13 1487.01,2392.12 1487.01,2392.12C1487.01,2392.12 1679.95,2364.21 1815.97,2316.48C1935.05,2274.69 2063.76,2211.26 2070.25,2208.51C2212.39,2148.2 2181.51,1994.54 2181.51,1994.54C2181.51,1994.54 2165.39,1909.65 2154.6,1861.63C2138.75,1791.07 2087.93,1653.12 2058.95,1573.18C2031.88,1498.52 1996.42,1382.06 1951.88,1388.44ZM1637.55,2475.17C1637.55,2475.17 1947.31,2320.56 2006.48,2281.72C2065.66,2242.88 1983.82,2257.47 1983.82,2257.47L1705.05,2355.48C1705.05,2355.48 1563.33,2409.63 1485.26,2443.9C1423.57,2470.98 1384.19,2467.83 1347.36,2508.52C1337.58,2519.33 1327.22,2550.12 1323.1,2566.89C1307.83,2629.05 1385.46,2599.98 1385.46,2599.98L1637.55,2475.17ZM1029.39,2590.15C1095.64,2615.43 1150.5,2627.1 1189.22,2629.42C1222.98,2631.44 1245.24,2633.31 1255.65,2624.05C1273.61,2608.06 1290.27,2559.18 1283.98,2525.01C1279.15,2498.75 1218.83,2456.44 1212.61,2452.79C1175.48,2430.97 1151.91,2422.53 1093.25,2403.11C1013.16,2376.61 846.604,2340.76 766.883,2322C710.464,2308.72 509.395,2288.21 509.395,2288.21C509.395,2288.21 414.193,2293.54 541.408,2349.49C668.623,2405.44 915.181,2546.56 1029.39,2590.15ZM430.568,2004.71C410.368,2050.05 413.668,2050.41 395.489,2087.61C377.31,2124.8 369.684,2171.38 371.939,2185.34C382.61,2251.43 470.604,2261.19 470.604,2261.19C470.604,2261.19 1133.66,2398.44 1213.43,2409.46C1293.2,2420.48 1265.2,2352.63 1265.2,2352.63C1265.2,2352.63 1177.79,2162.45 1050.02,1969.58C937.364,1799.53 784.801,1627.33 753.726,1582.49C692.613,1479.04 624.538,1573.49 624.538,1573.49C624.538,1573.49 468.743,1919.03 430.568,2004.71ZM290.823,1731.46C290.823,1731.46 291.181,1887.41 299.741,2010.65C311.934,2186.2 354.82,2091.24 354.82,2091.24L399.016,2014.71C399.016,2014.71 433.07,1955.2 465.268,1891.49C493.977,1834.68 510.151,1819.76 582.875,1666.78C610.566,1608.53 647.305,1530.59 647.685,1506.29C648.227,1471.65 643.751,1469.19 634.264,1446.24C625.605,1425.3 605.55,1383.21 597.348,1372.48C581.621,1351.9 505.672,1258.59 398.997,1199.8C292.322,1141 268.062,1314.48 268.062,1314.48L290.823,1731.46ZM601.085,917.85C601.085,917.85 434.403,1022.63 377.407,1083.09C320.41,1143.56 388.656,1193.69 388.656,1193.69C388.656,1193.69 549.914,1307.69 619.199,1332.03C688.484,1356.37 706.67,1315.77 706.67,1315.77C706.67,1315.77 808.613,1200.24 848.088,1134.58C912.512,1027.42 1036.64,767.775 1093.21,672.811C1149.79,577.846 1043.68,638.812 1043.68,638.812L601.085,917.85ZM2013.17,1331.92C2013.17,1331.92 2127.72,1750.61 2147.14,1834.07C2166.56,1917.52 2182.46,1891.13 2182.46,1891.13L2156.54,1583.44C2156.54,1583.44 2143.68,1262.71 2120.47,1197.75C2103.79,1151.08 2084.72,1143.84 2063.46,1160.11C2055.14,1166.48 2046.48,1176.45 2037.5,1189.07C2019.36,1214.56 2020.25,1218.85 2013.66,1235.07C2005.15,1256 2013.17,1331.92 2013.17,1331.92Z" style="stroke:black;stroke-width:41.18px;"/>
    <path d="M1236.3,1159.75C1239.65,1154.65 1242.88,1149.91 1245.98,1145.53C1249.64,1140.35 1255.24,1137.72 1262.78,1137.63C1268.1,1137.41 1273.08,1139.04 1277.72,1142.53C1282.36,1146.01 1286.08,1150.45 1288.89,1155.85C1291.7,1161.26 1293.4,1167.26 1293.99,1173.87C1294.58,1180.48 1293.31,1186.63 1290.17,1192.32C1284.22,1203.67 1277.3,1213.41 1269.41,1221.55C1261.52,1229.68 1251.67,1234.41 1239.87,1235.74L1129,1248.23C1121.86,1249.04 1115.33,1246.91 1109.41,1241.86C1103.5,1236.81 1099.3,1230.22 1096.81,1222.11C1094.85,1215.85 1094.05,1209.46 1094.41,1202.93C1094.78,1196.41 1094.91,1189.91 1094.81,1183.44C1094.94,1167.79 1096.16,1153.54 1098.49,1140.69C1100.82,1127.85 1104.36,1116.01 1109.11,1105.17C1113.87,1094.34 1119.88,1084.22 1127.16,1074.82C1134.43,1065.42 1143.06,1056.16 1153.04,1047.02C1157.62,1043.08 1163.17,1037.87 1169.68,1031.42C1176.18,1024.97 1181.98,1017.83 1187.08,1010.01C1192.17,1002.19 1195.56,993.895 1197.25,985.124C1198.93,976.354 1197.25,967.677 1192.19,959.093C1185.43,946.508 1177.98,940.387 1169.84,940.732C1161.7,941.077 1152.97,945.969 1143.66,955.408C1139.11,959.734 1134.35,965.61 1129.37,973.036C1124.39,980.462 1119.05,986.784 1113.34,992.003C1107.64,997.222 1101.61,1000.19 1095.24,1000.91C1088.88,1001.62 1082.06,997.625 1074.78,988.91C1068.61,981.597 1065.76,973.719 1066.22,965.276C1066.69,956.834 1068.84,948.679 1072.67,940.81C1076.5,932.942 1081.26,925.637 1086.94,918.894C1092.63,912.151 1097.44,906.652 1101.36,902.396C1110.59,892.204 1121,884.071 1132.58,878C1144.16,871.928 1155.97,868.595 1168.01,868.001C1180.05,867.407 1191.69,870.196 1202.92,876.367C1214.15,882.539 1224.05,892.959 1232.62,907.63C1240.8,921.582 1246.67,935.985 1250.23,950.838C1253.79,965.692 1254.98,980.431 1253.8,995.057C1252.61,1009.68 1249.25,1023.79 1243.7,1037.38C1238.16,1050.97 1230.35,1063.29 1220.27,1074.35C1214.12,1081.14 1207.25,1087.83 1199.65,1094.4C1192.06,1100.98 1184.84,1108.08 1177.99,1115.72C1171.15,1123.36 1165.32,1131.64 1160.51,1140.57C1155.7,1149.5 1153.02,1159.91 1152.47,1171.8C1155.89,1171.41 1160.98,1171.22 1167.74,1171.22C1174.5,1171.22 1181.86,1170.96 1189.82,1170.45C1197.78,1169.93 1205.99,1168.82 1214.45,1167.1C1222.63,1165.44 1229.91,1162.99 1236.3,1159.75ZM1553.28,1048.84C1552.34,1076.79 1547.53,1103.93 1538.87,1130.27C1530.2,1156.6 1516.48,1178.65 1497.73,1196.39C1488.16,1203.58 1477.73,1208.75 1466.45,1211.93C1455.18,1215.11 1443.82,1216.2 1432.38,1215.2C1420.95,1214.2 1409.87,1210.77 1399.15,1204.93C1388.43,1199.08 1378.84,1190.72 1370.38,1179.85C1351.97,1155.99 1338.96,1130.57 1331.36,1103.59C1323.76,1076.61 1320.26,1047.63 1320.86,1016.68C1321.24,994.895 1323.73,973.067 1328.34,951.191C1332.95,929.315 1340.73,909.751 1351.68,892.5C1360.49,878.541 1370.73,867.567 1382.41,859.577C1394.09,851.587 1406.36,846.678 1419.2,844.849C1432.05,843.021 1445.1,844.411 1458.35,849.019C1471.61,853.628 1484.2,861.362 1496.11,872.224C1508.03,883.085 1517.83,895.424 1525.52,909.24C1533.21,923.056 1539.17,937.545 1543.39,952.705C1547.62,967.865 1550.49,983.653 1552.03,1000.07C1553.56,1016.49 1553.98,1032.74 1553.28,1048.84ZM1498.43,1043.58C1499.03,1032.07 1498.3,1018.61 1496.25,1003.21C1494.2,987.803 1490.42,973.164 1484.93,959.291C1479.43,945.418 1472.18,934.032 1463.15,925.133C1454.13,916.234 1442.79,912.554 1429.12,914.094C1414.22,915.773 1402.92,922.957 1395.23,935.646C1387.54,948.335 1382.38,963.312 1379.77,980.578C1377.15,997.843 1376.39,1015.47 1377.47,1033.46C1378.56,1051.46 1380.58,1066.58 1383.53,1078.83C1385.39,1087.01 1388,1095.49 1391.35,1104.27C1394.69,1113.04 1398.66,1120.99 1403.23,1128.1C1407.81,1135.21 1413.22,1140.7 1419.48,1144.57C1425.73,1148.45 1432.87,1149.74 1440.9,1148.45C1452,1146.44 1461.04,1142.27 1468.04,1135.96C1475.03,1129.64 1480.69,1121.95 1485.01,1112.88C1489.34,1103.81 1492.51,1093.54 1494.52,1082.06C1496.52,1070.58 1497.78,1058.71 1498.29,1046.45L1498.43,1043.58ZM1441.16,1578.83C1434.13,1577.1 1427.73,1573.06 1421.93,1566.71C1416.14,1560.36 1411.93,1553.54 1409.29,1546.25C1406.65,1538.95 1406.26,1531.84 1408.11,1524.9C1409.96,1517.96 1415.03,1513.25 1423.33,1510.75C1439.26,1505.83 1455.86,1502.58 1473.16,1501C1490.45,1499.41 1506.74,1498.03 1522.02,1496.86C1532.52,1495.77 1540.12,1498.87 1544.81,1506.16C1549.5,1513.44 1551.55,1521.71 1550.97,1530.97C1550.39,1540.23 1547.1,1548.95 1541.1,1557.14C1535.1,1565.33 1526.85,1569.96 1516.35,1571.05L1539.21,1791.94C1543.49,1790.27 1547.92,1790.12 1552.51,1791.48C1557.1,1792.85 1561.28,1795.17 1565.04,1798.46C1568.81,1801.75 1571.88,1805.83 1574.27,1810.69C1576.65,1815.56 1577.78,1820.66 1577.65,1825.99C1577.55,1834.99 1574.68,1844.49 1569.04,1854.48C1563.4,1864.46 1556.49,1872.95 1548.31,1879.93C1540.13,1886.91 1531.45,1891.49 1522.26,1893.66C1513.07,1895.84 1504.74,1893.84 1497.25,1887.66C1494.29,1885.52 1491.48,1882.33 1488.82,1878.11C1486.16,1873.89 1484.64,1869.96 1484.26,1866.32C1478.9,1817.8 1473.82,1769.57 1469.03,1721.61C1464.24,1673.65 1459.35,1625.6 1454.37,1577.46L1441.16,1578.83ZM1099.28,1703.75C1100.62,1673.77 1106.17,1644.67 1115.92,1616.47C1125.66,1588.27 1140.86,1564.72 1161.49,1545.82C1172,1538.19 1183.41,1532.72 1195.74,1529.4C1208.06,1526.08 1220.44,1525 1232.89,1526.17C1245.33,1527.33 1257.36,1531.1 1268.97,1537.46C1280.59,1543.82 1290.93,1552.87 1300.02,1564.61C1319.8,1590.36 1333.68,1617.76 1341.64,1646.78C1349.61,1675.8 1353.09,1706.93 1352.08,1740.15C1351.42,1763.53 1348.45,1786.94 1343.17,1810.38C1337.89,1833.83 1329.19,1854.76 1317.06,1873.19C1307.31,1888.1 1296.03,1899.8 1283.21,1908.28C1270.4,1916.76 1256.98,1921.93 1242.97,1923.79C1228.95,1925.65 1214.75,1924.05 1200.37,1919C1185.98,1913.95 1172.36,1905.54 1159.5,1893.79C1146.65,1882.03 1136.11,1868.71 1127.9,1853.82C1119.68,1838.93 1113.36,1823.33 1108.93,1807.02C1104.51,1790.71 1101.55,1773.75 1100.07,1756.11C1098.59,1738.48 1098.32,1721.03 1099.28,1703.75ZM1158.95,1709.85C1158.18,1722.19 1158.82,1736.64 1160.87,1753.19C1162.93,1769.75 1166.87,1785.49 1172.69,1800.42C1178.52,1815.36 1186.29,1827.64 1196.02,1837.26C1205.74,1846.89 1218.06,1850.93 1232.96,1849.39C1249.21,1847.7 1261.61,1840.09 1270.13,1826.53C1278.65,1812.97 1284.44,1796.93 1287.49,1778.42C1290.54,1759.91 1291.58,1741 1290.6,1721.67C1289.63,1702.35 1287.61,1686.11 1284.53,1672.93C1282.59,1664.13 1279.85,1655.01 1276.31,1645.57C1272.76,1636.12 1268.54,1627.56 1263.64,1619.89C1258.74,1612.22 1252.9,1606.28 1246.13,1602.08C1239.37,1597.87 1231.6,1596.42 1222.84,1597.74C1210.73,1599.81 1200.83,1604.21 1193.13,1610.93C1185.44,1617.66 1179.19,1625.87 1174.38,1635.57C1169.56,1645.27 1165.99,1656.27 1163.67,1668.57C1161.35,1680.87 1159.84,1693.6 1159.15,1706.76L1158.95,1709.85ZM546.401,1127.33C546.561,1130.39 544.761,1135.03 541.001,1141.25C537.241,1147.47 532.768,1153.64 527.582,1159.77C522.396,1165.9 516.863,1171.33 510.983,1176.07C505.104,1180.81 500.279,1183.07 496.51,1182.85C489.174,1182.54 483.006,1180.81 478.005,1177.65C473.004,1174.5 468.384,1171.44 464.145,1168.48C461.011,1166.66 461.811,1162.42 466.546,1155.79C471.28,1149.15 477.367,1142.43 484.805,1135.63C492.244,1128.84 499.845,1123.12 507.609,1118.49C515.373,1113.86 520.823,1112.46 523.957,1114.28L693.425,942.919C691.18,943.097 690.098,942.097 690.181,939.92C690.263,937.743 691.196,934.949 692.978,931.536C694.761,928.123 697.314,924.294 700.637,920.047C703.961,915.801 707.742,911.696 711.979,907.734C719.11,901.006 727.231,894.606 736.342,888.534C745.452,882.462 753.649,877.837 760.934,874.658C768.218,871.479 773.716,870.227 777.427,870.902C781.139,871.578 781.367,875.171 778.113,881.683C777.059,884.036 775.154,887.13 772.397,890.965C769.64,894.799 766.865,898.129 764.071,900.953C726.926,938.674 689.938,976.115 653.108,1013.28C616.277,1050.44 579.394,1087.69 542.458,1125.04L546.401,1127.33ZM827.749,960.234C812.531,969.181 796.94,979.27 780.976,990.501C765.011,1001.73 748.421,1013.96 731.204,1027.18C735.709,1025.85 739.644,1025.17 743.009,1025.15C746.374,1025.13 749.063,1025.95 751.078,1027.62C753.693,1030.13 755.228,1033.24 755.684,1036.97C756.14,1040.69 755.506,1045.76 753.782,1052.18C751.106,1061 745.089,1071.72 735.732,1084.32C726.374,1096.92 715.38,1109.93 702.748,1123.35C690.116,1136.76 676.777,1149.77 662.73,1162.36C648.683,1174.95 635.682,1185.68 623.728,1194.55C607.652,1206.46 594.289,1214.01 583.64,1217.21C572.991,1220.41 565.085,1220.76 559.922,1218.25C554.246,1215.94 552.291,1210.1 554.057,1200.75C555.737,1190.36 562.722,1176.13 575.013,1158.06C587.723,1139.25 602.932,1120.29 620.642,1101.18C638.351,1082.06 656.969,1063.6 676.494,1045.79C696.02,1027.98 715.967,1011.03 736.334,994.941C756.702,978.855 776.104,964.309 794.541,951.302C805.253,943.69 816.426,935.976 828.06,928.158C839.693,920.34 850.079,914.145 859.219,909.573C866.922,905.649 871.237,905.069 872.166,907.834C873.095,910.599 871.706,914.982 868,920.984C864.294,926.985 858.82,933.688 851.576,941.093C844.333,948.498 836.39,954.878 827.749,960.234ZM648.276,1104.27C646.832,1105.41 644.876,1106.74 642.407,1108.27L638.672,1112.78C637.012,1114.78 635.507,1116.62 634.157,1118.31C632.808,1119.99 631.848,1121.17 631.277,1121.82C630.707,1122.48 631.046,1121.93 632.295,1120.19C628.867,1124.62 625.819,1129.15 623.153,1133.78C620.486,1138.41 618.467,1142.3 617.096,1145.46C616.043,1147.82 615.22,1150.06 614.629,1152.18C614.038,1154.31 613.987,1156.01 614.479,1157.29C615.57,1159.4 617.437,1160.74 620.079,1161.29C622.722,1161.83 626.971,1160.6 632.826,1157.58C637.034,1155.57 642.234,1152.05 648.424,1147C654.614,1141.94 660.786,1136.39 666.939,1130.33C673.093,1124.27 678.737,1118.16 683.873,1112C689.008,1105.84 692.471,1100.81 694.26,1096.9C696.259,1092.63 696.89,1089.54 696.153,1087.62C695.416,1085.71 693.877,1084.57 691.538,1084.2C687.877,1083.55 683.018,1084.68 676.961,1087.59C672.962,1089.21 668.468,1091.54 663.479,1094.58C658.491,1097.61 653.423,1100.84 648.276,1104.27ZM1686.62,844.095C1695.01,856.939 1705.62,871.241 1718.45,887.002C1731.27,902.763 1745.7,918.885 1761.75,935.368C1757.14,925.036 1756.52,917.583 1759.89,913.007C1762.23,909.821 1766.08,908.259 1771.43,908.321C1776.79,908.383 1783.41,910.07 1791.3,913.382C1799.2,916.694 1808.36,921.795 1818.78,928.683C1829.21,935.571 1840.53,944.126 1852.73,954.349C1866.09,965.545 1877.58,976.095 1887.2,986.001C1896.82,995.907 1904.42,1004.88 1910,1012.93C1915.59,1020.98 1919.2,1028.03 1920.85,1034.1C1922.49,1040.16 1922.02,1044.95 1919.43,1048.46C1916.49,1052.47 1911.1,1054.05 1903.26,1053.23C1895.41,1052.4 1885.45,1048.71 1873.37,1042.15C1861.35,1035.51 1849.51,1028.31 1837.86,1020.52C1826.21,1012.75 1814.29,1003.74 1802.09,993.521C1787.27,981.109 1772.63,967.819 1758.16,953.653C1743.7,939.487 1730.02,925.216 1717.11,910.841C1704.21,896.465 1692.3,882.33 1681.39,868.437C1670.48,854.543 1661,841.581 1652.95,829.551C1649.9,824.754 1649.01,821.498 1650.27,819.783C1651.47,818.149 1654.21,818.261 1658.47,820.119C1662.74,821.978 1667.34,824.976 1672.28,829.114C1677.22,833.252 1682.03,838.204 1686.71,843.973L1686.62,844.095ZM1821.47,990.151C1827.75,995.017 1834.11,999.455 1840.55,1003.47C1846.99,1007.48 1852.94,1010.71 1858.41,1013.18C1863.87,1015.64 1868.6,1017.2 1872.59,1017.83C1876.58,1018.47 1879.21,1017.93 1880.47,1016.22C1882.58,1013.36 1882.38,1009.63 1879.89,1005.03C1877.4,1000.44 1873.96,995.705 1869.56,990.832C1865.16,985.959 1860.56,981.372 1855.74,977.071C1850.92,972.77 1847.35,969.646 1845.02,967.699C1837.76,961.614 1831.36,956.748 1825.83,953.102C1820.29,949.455 1815.65,946.824 1811.91,945.208C1808.17,943.592 1805.21,942.828 1803.03,942.918C1800.86,943.007 1799.32,943.665 1798.41,944.89C1796.13,947.995 1797.22,953.694 1801.68,961.989C1806.15,970.284 1812.74,979.672 1821.47,990.151ZM1935.88,977.269C1942.85,983.11 1948.28,988.978 1952.16,994.871C1956.04,1000.76 1957.17,1004.81 1955.55,1007.02C1953.75,1009.47 1949.7,1009.38 1943.41,1006.76C1937.13,1004.13 1930.5,999.9 1923.53,994.058C1916.56,988.217 1911.06,982.289 1907.03,976.274C1903,970.259 1901.89,966.026 1903.69,963.575C1905.31,961.369 1909.34,961.639 1915.77,964.386C1922.2,967.133 1928.9,971.428 1935.88,977.269ZM415.129,1376.71C417.424,1365 420.656,1356.98 424.825,1352.64C428.994,1348.3 433.265,1347.05 437.639,1348.9C441.356,1350.46 444.306,1354.39 446.489,1360.67C448.671,1366.96 449.093,1375.91 447.752,1387.54L435.054,1459.71L501.933,1490.09C512.547,1496.51 516.177,1509.26 512.823,1528.32C512.583,1529.68 511.845,1532.54 510.609,1536.9C498.223,1561.91 485.788,1586.53 473.303,1610.77C460.818,1635.01 448.353,1659.13 435.908,1683.14L392.57,1767.27C386.776,1777.5 380.599,1781.24 374.039,1778.47C370.322,1776.9 367.302,1772.71 364.981,1765.88C362.659,1759.05 362.297,1751.09 363.894,1742.02C364.613,1737.93 366.257,1733.26 368.826,1728C377.05,1711.97 385.253,1696.04 393.437,1680.23C401.621,1664.42 409.865,1648.27 418.168,1631.78L465.688,1539.91L424.392,1520.31L411.694,1592.48C405.716,1610.44 398.791,1617.76 390.919,1614.44C386.983,1612.79 383.919,1609.18 381.725,1603.62C379.532,1598.07 378.687,1590.52 379.191,1580.98L392.369,1506.08L374.985,1498.75C366.86,1487.53 363.956,1475.33 366.272,1462.17C368.907,1447.19 375.843,1439.14 387.078,1438.03C389.921,1439.22 392.51,1440.19 394.846,1440.93C397.182,1441.67 399.95,1442.96 403.15,1444.8L415.129,1376.71ZM729.71,1876.1C715.971,1874.46 703.641,1877.49 692.721,1885.19C681.8,1892.88 671.712,1902.32 662.457,1913.49C656.917,1918.55 650.272,1920.62 642.522,1919.7C635.476,1918.86 629.463,1915.58 624.483,1909.87C619.504,1904.16 616.693,1897.17 616.053,1888.91C615.541,1882.3 616.79,1875.9 619.8,1869.72C625.853,1862.26 632.53,1854.97 639.832,1847.87C647.133,1840.76 654.948,1834.63 663.274,1829.49C671.601,1824.35 680.463,1820.5 689.863,1817.94C699.262,1815.38 709.07,1814.71 719.286,1815.93C730.911,1817.32 742.048,1821.41 752.696,1828.21C763.344,1835.01 772.848,1843.92 781.206,1854.94C789.565,1865.97 796.49,1878.77 801.982,1893.34C807.474,1907.91 810.877,1923.66 812.19,1940.59C813.247,1954.22 811.934,1966.55 808.251,1977.56C804.568,1988.58 799.572,1998.42 793.263,2007.08C786.954,2015.73 779.604,2023.35 771.214,2029.91C762.823,2036.48 754.465,2042.34 746.138,2047.48C739.477,2051.59 733.008,2055.93 726.731,2060.51C720.454,2065.07 714.681,2070.52 709.413,2076.85C704.145,2083.18 699.766,2090.84 696.275,2099.83C692.784,2108.83 690.655,2119.62 689.886,2132.21L783.415,2143.39C786.553,2143.36 789.115,2142.64 791.101,2141.24C793.087,2139.84 794.792,2138.21 796.217,2136.33C797.642,2134.45 799.059,2132.48 800.468,2130.39C801.877,2128.31 803.591,2126.78 805.608,2125.79C807.626,2124.8 809.852,2124.25 812.286,2124.13C814.72,2124.01 817.169,2124.1 819.635,2124.4C827.033,2125.28 833.326,2128.8 838.514,2134.94C843.702,2141.09 846.584,2147.88 847.161,2155.31C847.513,2159.85 847.257,2163.3 846.392,2165.65C845.527,2168.01 844.631,2169.94 843.702,2171.47C837.489,2181.37 829.995,2189.37 821.22,2195.48C812.445,2201.6 801.893,2203.91 789.564,2202.44L665.387,2187.6C649.374,2183.64 639.767,2172.26 636.564,2153.46C636.564,2139.96 637.117,2126.83 638.222,2114.07C639.326,2101.31 641.352,2089.17 644.298,2077.66C647.245,2066.14 651.392,2055.49 656.74,2045.69C662.088,2035.9 669.006,2027.21 677.493,2019.63C680.087,2017.08 683.97,2014.27 689.142,2011.2C694.314,2008.14 699.558,2004.88 704.874,2001.42C711.535,1997.31 718.277,1993.1 725.098,1988.8C731.919,1984.5 737.972,1979.29 743.256,1973.17C748.54,1967.05 752.623,1960.07 755.506,1952.23C758.388,1944.39 759.397,1934.89 758.532,1923.74C757.828,1914.66 754.649,1905.17 748.997,1895.29C743.344,1885.41 736.915,1879.01 729.71,1876.1ZM2129.32,1592.41C2127.88,1587.54 2126.34,1581.74 2124.69,1575C2122.4,1566.38 2120.83,1557.74 2119.97,1549.11C2119.12,1540.47 2118.71,1532.05 2118.77,1523.85C2118.82,1515.65 2119.24,1507.75 2120.02,1500.15C2120.81,1492.54 2121.86,1485.52 2123.17,1479.09C2119.65,1475.6 2116.19,1471.65 2112.79,1467.24C2109.39,1462.83 2105.98,1457.42 2102.55,1451C2093.57,1435.09 2087.53,1419 2084.43,1402.71C2081.33,1386.43 2080.33,1371.29 2081.43,1357.3C2082.53,1343.3 2085.37,1330.97 2089.95,1320.31C2094.52,1309.64 2099.97,1301.99 2106.29,1297.35C2112.62,1292.72 2119.45,1291.63 2126.78,1294.07C2134.12,1296.51 2141.13,1303.82 2147.82,1315.99C2150.58,1320.95 2152.94,1326.87 2154.91,1333.73C2156.87,1340.6 2158.64,1347.23 2160.19,1353.64C2161.84,1360.37 2163.14,1367.19 2164.12,1374.1C2165.09,1381.01 2165.74,1387.79 2166.07,1394.43C2166.6,1404.57 2166.38,1414.04 2165.41,1422.82C2164.43,1431.61 2163.29,1440.04 2161.98,1448.1C2166.37,1451.65 2170.98,1455.32 2175.8,1459.11C2180.62,1462.91 2185.17,1468.26 2189.45,1475.17C2196.02,1485.82 2201.16,1497.29 2204.85,1509.6C2208.55,1521.9 2211.01,1534.25 2212.22,1546.66C2213.43,1559.07 2213.5,1571.24 2212.42,1583.17C2211.35,1595.11 2209.2,1606.13 2205.99,1616.23C2203.33,1624.64 2199.82,1631.74 2195.46,1637.53C2191.11,1643.33 2186.29,1647.27 2181.02,1649.37C2175.75,1651.46 2170.24,1651.42 2164.48,1649.25C2158.73,1647.07 2153.06,1642.27 2147.49,1634.84C2143.74,1629.92 2140.38,1623.64 2137.42,1616.01C2134.45,1608.37 2131.76,1600.51 2129.32,1592.41ZM2108.34,1391.59C2108.64,1393.78 2109.09,1395.63 2109.71,1397.14C2110.32,1398.64 2111.01,1400.29 2111.78,1402.08C2115.35,1407.97 2118.99,1412.99 2122.68,1417.14C2126.38,1421.3 2130.2,1425.13 2134.16,1428.66C2135.56,1420.93 2136.73,1412.88 2137.67,1404.53C2138.62,1396.17 2138.99,1386.99 2138.77,1376.98C2138.27,1372.93 2137.86,1370.03 2137.54,1368.27C2137.21,1366.51 2136.24,1363.67 2134.63,1359.76C2131.55,1356.3 2128.48,1354.77 2125.42,1355.16C2122.36,1355.56 2119.53,1357.19 2116.91,1360.06C2114.29,1362.92 2112.17,1366.99 2110.55,1372.26C2108.92,1377.53 2108.07,1383.26 2107.99,1389.45C2108.05,1390.21 2108.17,1390.92 2108.34,1391.59ZM2150.95,1499.18C2149.4,1507.44 2148.18,1515.73 2147.3,1524.03C2146.41,1532.34 2146.12,1541.66 2146.42,1552C2146.6,1552.66 2146.71,1553.89 2146.75,1555.69C2146.8,1557.48 2147.61,1561.37 2149.2,1567.34C2149.64,1568.99 2150.15,1570.79 2150.74,1572.73C2151.33,1574.67 2152.15,1576.82 2153.2,1579.17C2157.6,1585.98 2161.98,1589.34 2166.35,1589.25C2170.71,1589.16 2174.46,1586.63 2177.61,1581.68C2180.75,1576.73 2182.95,1569.84 2184.2,1561.02C2185.46,1552.19 2185.29,1542.35 2183.7,1531.49C2181.73,1526.26 2179.35,1521.89 2176.55,1518.39C2173.75,1514.89 2170.86,1511.99 2167.87,1509.67C2164.88,1507.35 2161.9,1505.34 2158.92,1503.62C2155.95,1501.9 2153.29,1500.42 2150.95,1499.18ZM1889.43,2153.93C1884.43,2158.68 1879.5,2160.84 1874.66,2160.43C1869.81,2160.02 1865.52,2157.91 1861.8,2154.1C1858.08,2150.29 1855.31,2145.18 1853.5,2138.77C1851.68,2132.35 1851.44,2125.47 1852.79,2118.13C1853.96,2112.88 1855.75,2108.16 1858.15,2103.98C1860.55,2099.8 1863.19,2096.05 1866.08,2092.75C1868.97,2089.45 1871.93,2086.22 1874.98,2083.07C1878.02,2079.93 1880.9,2076.53 1883.62,2072.86C1892.6,2060.81 1900.94,2047.62 1908.62,2033.3C1916.31,2018.97 1922.64,2003.92 1927.62,1988.15C1919.12,1993.11 1910.2,1997.17 1900.88,2000.33C1891.55,2003.48 1882.28,2005.09 1873.07,2005.15C1863.86,2005.21 1855.13,2003.38 1846.88,1999.68C1838.64,1995.98 1831.21,1989.99 1824.61,1981.72C1819.9,1975.75 1815.67,1969.43 1811.94,1962.77C1808.21,1956.1 1805.09,1948.64 1802.58,1940.38C1797.91,1924.59 1795.94,1907.59 1796.69,1889.38C1797.43,1871.18 1800.48,1853.52 1805.81,1836.41C1811.15,1819.31 1818.4,1803.58 1827.55,1789.23C1836.69,1774.88 1847.19,1763.72 1859.03,1755.73C1869.47,1748.97 1880.09,1743.9 1890.86,1740.52C1901.64,1737.14 1912.19,1736.08 1922.49,1737.33C1932.8,1738.59 1942.44,1742.39 1951.42,1748.74C1960.39,1755.08 1968.16,1764.65 1974.72,1777.43C1978.95,1785.18 1982.36,1793.98 1984.96,1803.85C1987.55,1813.71 1989.58,1823.85 1991.03,1834.25C1992.48,1844.66 1993.43,1855.21 1993.88,1865.91C1994.33,1876.61 1994.4,1887.12 1994.09,1897.43C1993.55,1924.57 1990.64,1949.95 1985.37,1973.58C1980.1,1997.21 1972.93,2019.56 1963.86,2040.63C1954.8,2061.7 1944.05,2081.52 1931.63,2100.1C1919.21,2118.68 1905.28,2136.59 1889.86,2153.8L1889.43,2153.93ZM1941.89,1890.22C1941.84,1889.83 1941.72,1888.82 1941.54,1887.16C1941.24,1884.39 1940.83,1880.93 1940.31,1876.79C1939.79,1872.66 1939.26,1868.42 1938.73,1864.08C1938.19,1859.74 1937.72,1856.4 1937.3,1854.08C1936.41,1848.61 1935.32,1843.42 1934.02,1838.48C1932.72,1833.55 1930.94,1829.17 1928.68,1825.34C1923.19,1815.92 1916.82,1810.54 1909.59,1809.2C1902.35,1807.86 1895.12,1809.38 1887.9,1813.75C1880.69,1818.13 1873.95,1824.51 1867.69,1832.89C1861.43,1841.28 1856.61,1850.57 1853.22,1860.76C1849.84,1870.96 1848.36,1881.21 1848.79,1891.51C1849.21,1901.81 1852.57,1910.93 1858.86,1918.89C1867.78,1926.89 1876.9,1930.54 1886.22,1929.83C1895.54,1929.13 1905.55,1924.96 1916.23,1917.31C1918.49,1915.83 1921.14,1913.51 1924.18,1910.37C1927.23,1907.22 1930.12,1904.02 1932.86,1900.76C1935.61,1897.5 1937.94,1894.76 1939.87,1892.56C1940.9,1891.38 1941.57,1890.6 1941.89,1890.22ZM1941.93,1890.17C1942.17,1889.88 1942.17,1889.86 1941.92,1890.12C1941.93,1890.14 1941.93,1890.16 1941.93,1890.17ZM2108.3,2026.88C2108.86,2036.93 2107.68,2045.97 2104.76,2053.98C2101.84,2062 2098.03,2068.53 2093.34,2073.6C2088.65,2078.66 2083.36,2082.16 2077.47,2084.1C2071.59,2086.04 2065.97,2086.26 2060.62,2084.77C2055.28,2083.28 2050.63,2079.85 2046.67,2074.47C2042.72,2069.1 2040.18,2061.47 2039.04,2051.58C2037.89,2041.29 2038.77,2032.14 2041.69,2024.13C2044.61,2016.11 2048.56,2009.53 2053.54,2004.39C2058.51,1999.24 2064.02,1995.67 2070.05,1993.69C2076.08,1991.71 2081.84,1991.44 2087.33,1992.89C2092.82,1994.34 2097.55,1997.85 2101.52,2003.43C2105.48,2009.01 2107.74,2016.82 2108.3,2026.88ZM827.255,2441.85C823.984,2443.45 818.717,2443.93 811.453,2443.29C804.188,2442.64 796.864,2441.29 789.479,2439.23C782.094,2437.18 775.407,2434.46 769.417,2431.08C763.427,2427.69 760.263,2424.14 759.925,2420.43C759.153,2413.25 760.09,2406.52 762.734,2400.23C765.378,2393.93 767.974,2388.05 770.523,2382.59C772.013,2378.72 776.691,2377.47 784.557,2378.85C792.422,2380.23 800.577,2382.87 809.021,2386.77C817.464,2390.66 824.766,2395.23 830.925,2400.47C837.084,2405.71 839.418,2410.26 837.928,2414.13L1048.08,2495.07C1047.55,2493 1048.46,2491.49 1050.82,2490.53C1053.17,2489.58 1056.33,2489.14 1060.27,2489.23C1064.21,2489.31 1068.72,2489.94 1073.8,2491.11C1078.88,2492.27 1083.87,2493.94 1088.77,2496.12C1097.1,2499.76 1105.22,2504.49 1113.13,2510.34C1121.05,2516.18 1127.27,2521.84 1131.79,2527.31C1136.31,2532.78 1138.49,2537.45 1138.32,2541.33C1138.16,2545.2 1134.32,2547.13 1126.82,2547.11C1124.12,2547.22 1120.5,2546.86 1115.95,2546.04C1111.41,2545.22 1107.4,2544.15 1103.94,2542.81C1057.7,2525.15 1011.8,2507.51 966.21,2489.88C920.625,2472.25 874.932,2454.62 829.13,2436.98L827.255,2441.85ZM715.564,2485.7C713.35,2482.26 713.506,2479.85 716.031,2478.46C718.556,2477.07 722.417,2476.51 727.612,2476.79C732.808,2477.07 738.797,2478.16 745.581,2480.06C752.364,2481.95 758.883,2484.53 765.138,2487.8C769.516,2490.21 773.125,2492.6 775.964,2494.98C778.803,2497.37 781.124,2499.66 782.929,2501.86C784.733,2504.06 786.43,2506.25 788.018,2508.44C789.606,2510.63 791.507,2512.87 793.72,2515.15C800.986,2522.68 809.599,2530.44 819.559,2538.43C829.519,2546.43 840.754,2554.26 853.264,2561.95C852.396,2557.32 852.552,2552.9 853.729,2548.69C854.907,2544.49 857.503,2540.9 861.52,2537.93C865.536,2534.96 871.091,2532.87 878.187,2531.66C885.282,2530.45 894.146,2530.39 904.777,2531.47C912.426,2532.27 920.184,2533.36 928.05,2534.74C935.915,2536.12 944.25,2538.01 953.054,2540.39C969.844,2544.99 986.563,2550.93 1003.21,2558.2C1019.86,2565.47 1034.97,2573.27 1048.57,2581.58C1062.16,2589.9 1073.62,2598.29 1082.96,2606.76C1092.29,2615.23 1098.07,2622.9 1100.28,2629.78C1101.97,2635.73 1102.01,2641.08 1100.39,2645.84C1098.78,2650.59 1095.12,2654.38 1089.39,2657.19C1083.67,2660 1075.87,2661.62 1065.98,2662.04C1056.09,2662.46 1043.74,2661.25 1028.92,2658.41C1019.83,2656.77 1010.11,2654.46 999.77,2651.48C989.426,2648.5 979.083,2645.24 968.739,2641.68C958.395,2638.13 948.136,2634.36 937.96,2630.37C927.785,2626.38 917.958,2622.34 908.48,2618.26C883.414,2607.61 861.03,2596.87 841.327,2586.06C821.625,2575.24 803.955,2564.32 788.318,2553.28C772.681,2542.24 758.943,2531.14 747.106,2519.99C735.269,2508.84 724.731,2497.47 715.492,2485.88L715.564,2485.7ZM938.293,2604.37C938.46,2604.56 938.479,2604.57 938.35,2604.39C938.33,2604.39 938.311,2604.38 938.293,2604.37ZM938.27,2604.35C938.651,2604.47 939.652,2604.83 941.273,2605.41C943.991,2606.39 947.395,2607.59 951.484,2609.02C955.574,2610.45 959.759,2611.92 964.041,2613.43C968.323,2614.93 971.643,2616.07 974,2616.83C979.485,2618.66 984.813,2620.32 989.985,2621.81C995.156,2623.3 1000.03,2624.42 1004.6,2625.18C1015.81,2627.06 1023.64,2627.1 1028.09,2625.3C1032.54,2623.5 1034.31,2620.6 1033.42,2616.6C1032.53,2612.61 1029.56,2607.99 1024.51,2602.74C1019.46,2597.5 1012.92,2592.37 1004.91,2587.35C996.902,2582.33 988.001,2577.9 978.21,2574.05C968.42,2570.21 958.425,2567.76 948.226,2566.7C936.825,2566.47 929.393,2567.97 925.93,2571.23C922.467,2574.48 921.94,2579.3 924.347,2585.67C924.732,2586.97 925.718,2588.71 927.306,2590.89C928.894,2593.08 930.603,2595.25 932.431,2597.38C934.26,2599.52 935.776,2601.32 936.979,2602.79C937.624,2603.58 938.054,2604.1 938.27,2604.35ZM1432.43,2554.81C1423.98,2555.62 1416.84,2555.17 1410.99,2553.46C1405.15,2551.76 1400.96,2549.37 1398.44,2546.29C1395.92,2543.22 1395.34,2539.56 1396.72,2535.31C1398.09,2531.07 1401.94,2526.64 1408.28,2522.01C1415.3,2516.7 1424.06,2512.89 1434.56,2510.61C1445.06,2508.32 1454.56,2506.27 1463.06,2504.46C1513.74,2493.94 1564.37,2486.16 1614.93,2481.11C1665.49,2476.07 1698.17,2457.92 1745,2460.18L1726.73,2396C1724.22,2390.08 1725.47,2384.39 1730.48,2378.93C1735.48,2373.47 1742.28,2369.09 1750.88,2365.76C1759.48,2362.44 1768.48,2360.66 1777.9,2360.43C1787.32,2360.2 1795.18,2362.35 1801.49,2366.88C1803.82,2368.91 1805.53,2371.23 1806.65,2373.86C1815.38,2394.48 1835.85,2388.33 1844.66,2408.55C1853.47,2428.77 1671.94,2511.44 1682.16,2515.64C1639.94,2516.2 1607.85,2526.87 1565.79,2531.83C1523.73,2536.8 1480.71,2544.4 1436.74,2554.63L1432.43,2554.81Z"/>
</svg>
