<?xml version="1.0" encoding="UTF-8" standalone="no"?>
<!DOCTYPE svg PUBLIC "-//W3C//DTD SVG 1.1//EN" "http://www.w3.org/Graphics/SVG/1.1/DTD/svg11.dtd">
<svg width="100%" height="100%" viewBox="0 0 2481 3508" version="1.1" xmlns="http://www.w3.org/2000/svg" xmlns:xlink="http://www.w3.org/1999/xlink" xml:space="preserve" xmlns:serif="http://www.serif.com/" style="fill-rule:evenodd;clip-rule:evenodd;stroke-linecap:round;stroke-linejoin:round;stroke-miterlimit:1.5;">
    <g transform="matrix(4.0269,0,0,4.0269,-4226.96,-4856.29)">
        <path d="M1183.12,1411.54L1132.66,1583.97L1116.86,1635.75C1116.86,1635.75 1100.65,1692.62 1095.69,1724.55C1090.73,1756.48 1134.39,1779.45 1134.39,1779.45L1231.64,1832.65C1231.64,1832.65 1356.34,1902.7 1421.29,1935.08C1486.23,1967.46 1500.59,1892.57 1500.59,1892.57L1536.7,1777.75C1536.7,1777.75 1595.21,1602.53 1608.64,1556.2C1622.08,1509.87 1589.3,1489.72 1589.3,1489.72L1518.05,1457.14C1518.05,1457.14 1334.84,1370.8 1273.12,1341.39C1221.29,1309.39 1202.16,1357.34 1198.69,1364.87C1191.42,1380.67 1183.12,1411.54 1183.12,1411.54Z" style="fill:none;stroke:black;stroke-width:10.35px;"/>
    </g>
    <path d="M537.317,827.834C537.317,827.834 570.764,703.529 600.055,639.9C614.014,609.58 691.048,416.501 899.744,545.335C1148.3,663.788 1886.07,1011.47 1886.07,1011.47L2172.96,1142.65C2172.96,1142.65 2304.98,1223.8 2250.88,1410.36C2196.78,1596.92 1961.16,2302.51 1961.16,2302.51L1815.74,2764.91C1815.74,2764.91 1757.94,3066.49 1496.41,2936.09C1234.89,2805.69 732.712,2523.6 732.712,2523.6L341.112,2309.37C341.112,2309.37 165.299,2216.88 185.276,2088.29C205.253,1959.7 270.504,1730.72 270.504,1730.72L334.135,1522.21L537.317,827.834ZM616.91,1745.63C594.511,1927.61 725.872,1856.92 725.872,1856.92L1216.07,1646.27C1216.07,1646.27 1733.57,1431.25 1969.21,1325.4C2154.35,1242.23 2100.82,1211.26 2100.82,1211.26L1466.51,907.601C1466.51,907.601 1117.69,744.723 999.565,684.163C946.451,656.932 897.803,634.084 862.604,621.109C715.273,566.798 693.159,702.371 688.298,738.144C682.371,781.749 668.152,1095.37 668.152,1095.37L616.91,1745.63ZM384.098,1613.26C384.098,1613.26 317.807,1841.27 275.889,1990.54C233.971,2139.8 315.75,2080.91 427.688,1998.84C539.627,1916.78 541.405,1780.38 541.405,1780.38L587.729,1546.12C587.729,1546.12 622.17,1217.81 646.852,1007.92C671.534,798.025 614.276,856.714 614.276,856.714L384.098,1613.26ZM883.913,2269.65C883.913,2269.65 1341.91,2674.47 1540.33,2807.28C1691.58,2908.53 1725.45,2783.54 1725.45,2783.54C1725.45,2783.54 2066.39,1689.83 2136.29,1488.63C2206.19,1287.44 2072.03,1348.35 2072.03,1348.35L1682.09,1484.95L1319.47,1630.19C1319.47,1630.19 1028,1755.59 776.957,1890.81C630.589,1969.64 696.412,2055.9 696.412,2055.9L883.913,2269.65ZM1178.27,2665.72C1178.27,2665.72 1200.73,2672.76 1353.56,2759.11C1506.39,2845.47 1409.67,2751.37 1409.67,2751.37C1409.67,2751.37 721.403,2169.93 627.191,2097.76C532.98,2025.58 475.401,2041.9 363.109,2093.3C250.816,2144.69 365.823,2225.15 365.823,2225.15L1178.27,2665.72Z"/>
    <g transform="matrix(1.15012,-0.654884,0.856388,1.03538,-1143.91,873.85)">
        <g transform="matrix(675,0,0,675,1635.82,1281.47)">
        </g>
        <text x="993.642px" y="1281.47px" style="font-family:'ChalkboardSE-Light', 'Chalkboard SE', cursive;font-size:675px;">8</text>
    </g>
    <g transform="matrix(-21.5752,5.3554,-4.08304,-21.891,45096.4,38068.7)">
        <g transform="matrix(42.1963,0,0,42.1963,1645.47,2058.89)">
        </g>
        <text x="1621.45px" y="2058.89px" style="font-family:'ChalkboardSE-Light', 'Chalkboard SE', cursive;font-size:42.196px;">5</text>
    </g>
    <g transform="matrix(3.61039,0.855751,-4.98181,21.0181,-3839.23,-8050.01)">
        <g transform="matrix(42.1963,0,0,42.1963,1740.45,397.952)">
        </g>
        <text x="1716.44px" y="397.952px" style="font-family:'ChalkboardSE-Light', 'Chalkboard SE', cursive;font-size:42.196px;">2</text>
    </g>
    <g transform="matrix(-3.67807,5.15258,-16.7895,-11.9848,11517.1,-1797.01)">
        <g transform="matrix(42.1963,0,0,42.1963,1532.14,320.313)">
        </g>
        <text x="1508.12px" y="320.313px" style="font-family:'ChalkboardSE-Light', 'Chalkboard SE', cursive;font-size:42.196px;">3</text>
    </g>
</svg>
