<?xml version="1.0" encoding="UTF-8" standalone="no"?>
<!DOCTYPE svg PUBLIC "-//W3C//DTD SVG 1.1//EN" "http://www.w3.org/Graphics/SVG/1.1/DTD/svg11.dtd">
<svg width="100%" height="100%" viewBox="0 0 2481 3508" version="1.1" xmlns="http://www.w3.org/2000/svg" xmlns:xlink="http://www.w3.org/1999/xlink" xml:space="preserve" xmlns:serif="http://www.serif.com/" style="fill-rule:evenodd;clip-rule:evenodd;stroke-linecap:round;stroke-linejoin:round;stroke-miterlimit:1.5;">
    <path d="M179.712,1400.14L622.689,826.229L1292.62,615.771L1980.25,834.848L2416.68,1407.47L2413.01,2155.72L1988.14,2705.28L1296.2,2959.71L620.019,2699.8L184.311,2143.89L179.712,1400.14ZM280.28,1500.78L278.682,2108.38L650.365,2587.32L794.818,2370.24L567.905,1589.79L280.28,1500.78ZM311.471,1403.17L584.102,1500.6L1238.41,1012.29L1240.23,721.505L680.388,912.937L311.471,1403.17ZM2306.61,1501.11L2030.24,1595.5L1792.08,2370.57L1943.63,2578.49L2308.21,2108.72L2306.61,1501.11ZM718.401,2654.65L1295.62,2856.19L1886.28,2648.13L1696.52,2432.11L881.237,2428.01L718.401,2654.65ZM2271.48,1406.62L1902.3,911.461L1337.72,727.587L1337.86,1011.81L1998.65,1505.03L2271.48,1406.62ZM646.92,1560.06L878.259,2334.2L1696.89,2331.49L1934.3,1568.78L1293.35,1097.01L646.92,1560.06Z" style="stroke:black;stroke-width:25px;"/>
</svg>
