<?xml version="1.0" encoding="UTF-8" standalone="no"?>
<svg
   xmlns:dc="http://purl.org/dc/elements/1.1/"
   xmlns:cc="http://creativecommons.org/ns#"
   xmlns:rdf="http://www.w3.org/1999/02/22-rdf-syntax-ns#"
   xmlns:svg="http://www.w3.org/2000/svg"
   xmlns="http://www.w3.org/2000/svg"
   xmlns:sodipodi="http://sodipodi.sourceforge.net/DTD/sodipodi-0.dtd"
   xmlns:inkscape="http://www.inkscape.org/namespaces/inkscape"
   width="210mm"
   height="297mm"
   viewBox="0 0 210 297"
   version="1.1"
   id="svg8"
   inkscape:version="1.0.2-2 (e86c870879, 2021-01-15)"
   sodipodi:docname="D20 sharp.svg">
  <defs
     id="defs2" />
  <sodipodi:namedview
     id="base"
     pagecolor="#ffffff"
     bordercolor="#666666"
     borderopacity="1.0"
     inkscape:pageopacity="0.0"
     inkscape:pageshadow="2"
     inkscape:zoom="0.98994949"
     inkscape:cx="434.14926"
     inkscape:cy="567.16333"
     inkscape:document-units="mm"
     inkscape:current-layer="layer1"
     inkscape:document-rotation="0"
     showgrid="false"
     inkscape:window-width="1267"
     inkscape:window-height="1198"
     inkscape:window-x="3136"
     inkscape:window-y="103"
     inkscape:window-maximized="0" />
  <metadata
     id="metadata5">
    <rdf:RDF>
      <cc:Work
         rdf:about="">
        <dc:format>image/svg+xml</dc:format>
        <dc:type
           rdf:resource="http://purl.org/dc/dcmitype/StillImage" />
        <dc:title></dc:title>
      </cc:Work>
    </rdf:RDF>
  </metadata>
  <g
     inkscape:label="Layer 1"
     inkscape:groupmode="layer"
     id="layer1">
    <g
       style="clip-rule:evenodd;fill-rule:evenodd;stroke-linecap:round;stroke-linejoin:round;stroke-miterlimit:1.5"
       id="g142"
       transform="matrix(0.10214725,0,0,0.10214725,-18.430491,-15.476583)">
      <g
         transform="matrix(3.69422,0,0,3.69422,-2096.94,-3006.5)"
         id="g70">
        <path
   d="m 687.471,1131.15 56.623,198.81 136.739,-247.37 z"
   style="stroke:#000000;stroke-width:0.27px"
   id="path68" />

    </g>
      <g
         transform="matrix(3.69422,0,0,3.69422,-2096.94,-3006.5)"
         id="g74">
        <path
   d="m 745.802,1095.43 144.535,-87.94 0.365,51.97 z"
   style="stroke:#000000;stroke-width:0.27px"
   id="path72" />

    </g>
      <g
         transform="matrix(3.69422,0,0,3.69422,-2096.94,-3006.5)"
         id="g78">
        <path
   d="m 914.533,1058.55 -1.057,-50.31 149.354,87.94 z"
   style="stroke:#000000;stroke-width:0.27px"
   id="path76" />

    </g>
      <g
         transform="matrix(3.69422,0,0,3.69422,-2096.94,-3006.5)"
         id="g82">
        <path
   d="m 759.127,1351.48 144.201,-259.57 143.982,257.93 z"
   style="stroke:#000000;stroke-width:0.27px"
   id="path80" />

    </g>
      <g
         transform="matrix(3.69422,0,0,3.69422,-2096.94,-3006.5)"
         id="g86">
        <path
   d="m 925.099,1083.34 137.731,246.62 59.22,-199.47 z"
   style="stroke:#000000;stroke-width:0.27px"
   id="path84" />

    </g>
      <g
         transform="matrix(3.69422,0,0,3.69422,-2096.94,-3006.5)"
         id="g90">
        <path
   d="m 1079.86,1355.98 48.24,25.23 -0.29,-184.85 z"
   style="stroke:#000000;stroke-width:0.27px"
   id="path88" />

    </g>
      <g
         transform="matrix(3.69422,0,0,3.69422,-2096.94,-3006.5)"
         id="g94">
        <path
   d="m 1116.48,1401.49 -47.22,-27.76 -104.943,113.56 z"
   style="stroke:#000000;stroke-width:0.27px"
   id="path92" />

    </g>
      <g
         transform="matrix(3.69422,0,0,3.69422,-2096.94,-3006.5)"
         id="g98">
        <path
   d="m 766.736,1370.91 137.207,145.42 140.417,-146.47 z"
   style="stroke:#000000;stroke-width:0.27px"
   id="path96" />

    </g>
      <g
         transform="matrix(3.69422,0,0,3.69422,-2096.94,-3006.5)"
         id="g102">
        <path
   d="m 660.003,1122.69 -0.85,280.82 244.064,135.9 245.513,-132.34 c 0,0 1.1789,-289.8 0.039,-287.75 -1.15,2.05 -244.9829,-136.192 -245.5519,-138.342 -0.345,-1.302 -243.214,141.712 -243.214,141.712 z"
   style="fill:none;stroke:#000000;stroke-width:6.77px"
   id="path100"
   sodipodi:nodetypes="ccccccc" />

    </g>
      <g
         transform="matrix(3.69422,0,0,3.69422,-2096.94,-3006.5)"
         id="g106">
        <path
   d="m 683.097,1381.21 0.218,-183.49 46.19,157.21 z"
   style="stroke:#000000;stroke-width:0.27px"
   id="path104" />

    </g>
      <g
         transform="matrix(3.69422,0,0,3.69422,-2096.94,-3006.5)"
         id="g110">
        <path
   d="M 691.508,1399.06 848.212,1487 739.883,1372.55 Z"
   style="stroke:#000000;stroke-width:0.27px"
   id="path108" />

    </g>
    </g>
  </g>
</svg>
