<?xml version="1.0" encoding="UTF-8" standalone="no"?>
<!DOCTYPE svg PUBLIC "-//W3C//DTD SVG 1.1//EN" "http://www.w3.org/Graphics/SVG/1.1/DTD/svg11.dtd">
<svg width="100%" height="100%" viewBox="0 0 2481 3508" version="1.1" xmlns="http://www.w3.org/2000/svg" xmlns:xlink="http://www.w3.org/1999/xlink" xml:space="preserve" xmlns:serif="http://www.serif.com/" style="fill-rule:evenodd;clip-rule:evenodd;stroke-linejoin:round;stroke-miterlimit:2;">
    <path d="M851.58,1727.43C851.58,1727.43 985.784,1007.67 1045.7,860.92C1066.61,809.705 1098.93,766.259 1143.51,799.015C1308.79,920.459 2037.38,1589.58 2037.38,1589.58C2037.38,1589.58 2086.11,1629.64 2031.7,1688.47C1977.3,1747.31 1616.24,2035.02 1616.24,2035.02C1616.24,2035.02 1554.5,2088.38 1448.23,2084.67C1341.96,2080.96 972.502,2040.3 972.502,2040.3C972.502,2040.3 792.676,2019.36 816.466,1899.32C840.257,1779.28 851.58,1727.43 851.58,1727.43ZM1532.35,2490.89C1532.35,2490.89 1559.16,2260.5 1575.33,2215.15C1591.5,2169.8 1600.72,2133.6 1670.36,2067.44C1740,2001.28 1948.73,1821.34 1948.73,1821.34C1948.73,1821.34 2082.74,1691.46 2141.63,1674.51C2200.52,1657.56 2316.82,1632.33 2263.68,1701.67C2210.53,1771.02 1560.07,2616.22 1560.07,2616.22C1560.07,2616.22 1489.89,2695.18 1532.35,2490.89ZM287.904,1971.15C278.368,1945.74 266.854,1915.87 263.581,1889.37C258.653,1849.46 250.314,1811.08 313.386,1731.22C376.457,1651.36 583.899,1370.38 583.899,1370.38L961.024,858.798C961.024,858.798 1048.84,712.959 994.648,923.859C940.454,1134.76 809.073,1732.47 809.073,1732.47C809.073,1732.47 731.624,1997.76 620.393,2060.35C509.162,2122.94 469.876,2144.59 423.553,2153.07C393.631,2158.54 363.734,2151.18 342.453,2111.23C321.172,2071.28 301.646,2007.78 287.904,1971.15ZM1966.32,1461.35L1275.94,856.001C1275.94,856.001 1196.5,777.739 1349.14,870.436C1501.78,963.134 1894.28,1168.67 1894.28,1168.67C1894.28,1168.67 2082.86,1255.24 2159.12,1391.89C2235.38,1528.54 2273.3,1569.33 2273.3,1569.33C2273.3,1569.33 2303.12,1625.1 2230.45,1616.28C2157.77,1607.45 2076.53,1565.11 1966.32,1461.35ZM483.963,2255.18C484.167,2256.25 377.684,2215.37 508.236,2156.79C616.548,2108.19 619.507,2105.11 679.355,2096.12C763.993,2083.41 909.437,2065.2 1016.07,2080.54C1122.7,2095.89 1329.09,2110.97 1410.62,2143.32C1467.55,2165.92 1509.66,2172.73 1508.13,2267.23C1506.6,2361.73 1487.44,2617.65 1487.44,2617.65C1487.44,2617.65 1474.17,2708.63 1375.13,2664.18C1276.09,2619.74 953.396,2476.37 953.396,2476.37C953.396,2476.37 483.759,2254.12 483.963,2255.18Z"/>
    <path d="M1582.45,1508.75C1586.79,1533.1 1589.32,1560.21 1590.05,1590.06C1590.78,1619.91 1588.26,1649.24 1582.49,1678.05C1576.73,1706.86 1566.91,1733.73 1553.04,1758.65C1539.17,1783.58 1520.4,1803.02 1496.74,1817C1480.55,1826.97 1464.38,1834.98 1448.23,1841.03C1432.08,1847.08 1414.14,1849.48 1394.42,1848.23C1379.06,1847.19 1364.14,1845.95 1349.66,1844.52C1335.19,1843.09 1321.17,1838.26 1307.61,1830.04C1284.95,1817.3 1264.47,1801.83 1246.16,1783.63C1227.85,1765.43 1211.58,1745.43 1197.37,1723.65C1183.16,1701.87 1170.9,1678.87 1160.59,1654.66C1150.28,1630.45 1141.8,1605.97 1135.15,1581.21C1127.72,1554.66 1123.01,1525.85 1121.04,1494.78C1119.06,1463.7 1121.12,1433.33 1127.22,1403.66C1133.32,1374 1144.33,1346.61 1160.24,1321.49C1176.15,1296.38 1198.42,1276.81 1227.03,1262.78C1240.44,1256.16 1253.73,1250.49 1266.91,1245.75C1280.09,1241.01 1294.23,1238.86 1309.33,1239.3C1324.43,1239.75 1339.21,1241.05 1353.65,1243.21C1368.09,1245.37 1382.29,1249.4 1396.26,1255.32C1421.62,1266.15 1444.1,1280.92 1463.7,1299.62C1483.29,1318.32 1500.61,1339.09 1515.64,1361.93C1530.67,1384.77 1543.76,1408.83 1554.89,1434.1C1566.02,1459.37 1575.21,1484.25 1582.45,1508.75ZM1506.28,1531.65C1500.8,1512.77 1494.43,1494.28 1487.17,1476.18C1479.9,1458.08 1470.73,1440.47 1459.63,1423.35C1450.44,1408.94 1440.51,1394.85 1429.84,1381.1C1419.16,1367.34 1406.65,1355.46 1392.3,1345.45C1376.57,1333.92 1359.92,1326.35 1342.36,1322.73C1324.79,1319.11 1307.83,1319.3 1291.49,1323.3C1275.15,1327.31 1260.24,1334.94 1246.74,1346.21C1233.25,1357.48 1222.41,1372.37 1214.24,1390.88C1202.48,1417.37 1197.66,1449.13 1199.78,1486.18C1201.9,1523.22 1209.35,1559.88 1222.13,1596.13C1234.91,1632.39 1251.84,1665.58 1272.91,1695.7C1293.99,1725.81 1317.47,1746.88 1343.36,1758.91C1358.71,1766.35 1373.16,1769.74 1386.72,1769.09C1400.28,1768.44 1415.14,1766.33 1431.32,1762.76C1452.86,1750.43 1469.71,1735.9 1481.87,1719.18C1494.03,1702.47 1502.77,1684.42 1508.07,1665.05C1513.38,1645.67 1515.69,1625.13 1515,1603.42C1514.32,1581.72 1511.9,1559.71 1507.75,1537.4L1506.28,1531.65ZM530.646,1603.76C542.825,1586.13 554.458,1569.43 565.543,1553.65C576.629,1537.86 588.951,1523.64 602.51,1510.99C612.823,1500.55 622.535,1492.03 631.644,1485.43C640.754,1478.83 649.906,1472.47 659.1,1466.33C662.926,1442.91 669.866,1416.99 679.921,1388.57C689.975,1360.15 704.842,1329.41 724.523,1296.36C738.372,1273.1 751.633,1254.67 764.307,1241.08C776.981,1227.48 788.902,1217.37 800.07,1210.76C811.239,1204.14 821.21,1200.75 829.983,1200.59C838.757,1200.42 846.168,1202.14 852.217,1205.74C857.198,1208.71 861.128,1213.74 864.008,1220.85C866.887,1227.95 867.864,1237.24 866.938,1248.71C866.012,1260.18 862.554,1274.08 856.565,1290.41C850.576,1306.74 841.203,1325.62 828.447,1347.04C816.785,1366.63 805.642,1383.62 795.018,1398.03C784.395,1412.43 773.833,1425.21 763.333,1436.37C752.833,1447.53 742.213,1457.37 731.472,1465.9C720.731,1474.43 709.412,1482.61 697.514,1490.45C696.309,1503 694.603,1516.28 692.397,1530.31C690.191,1544.33 686.994,1559.01 682.805,1574.34C678.617,1589.67 673.17,1605.5 666.465,1621.82C659.759,1638.14 650.94,1655.48 640.006,1673.85C630.166,1690.37 619.083,1705.95 606.756,1720.58C594.43,1735.21 582.258,1747.87 570.242,1758.54C558.225,1769.21 547.039,1777.47 536.685,1783.33C526.33,1789.18 518.111,1791.96 512.027,1791.65C502.716,1791.91 495.124,1790.29 489.254,1786.8C482.671,1782.88 478.402,1775.98 476.447,1766.11C474.492,1756.24 475.139,1741.5 478.388,1721.88C480.882,1705.95 486.609,1689.05 495.568,1671.17C504.528,1653.29 514.029,1634.9 524.073,1616.01L530.646,1603.76ZM731.619,1336.65C724.074,1356.2 718.294,1373.9 714.279,1389.75C710.264,1405.6 707.103,1421.13 704.795,1436.34C717.413,1428.1 730.088,1418.64 742.82,1407.99C755.553,1397.33 769.529,1383.26 784.75,1365.8C788.021,1361.11 791.203,1356.37 794.297,1351.58C797.391,1346.79 800.391,1342.36 803.298,1338.29C804.764,1335.02 806.455,1331.67 808.371,1328.25C810.286,1324.83 811.977,1321.48 813.444,1318.21C817.708,1304.17 819.022,1294.17 817.383,1288.22C815.745,1282.27 812.702,1277.97 808.255,1275.33C805.586,1273.74 802.059,1272.88 797.675,1272.76C793.29,1272.63 788.401,1273.66 783.008,1275.84C777.615,1278.02 771.757,1281.78 765.435,1287.14C759.113,1292.5 752.77,1299.91 746.405,1309.39C744.032,1313.78 741.568,1318.32 739.012,1323.02C736.457,1327.71 733.992,1332.26 731.619,1336.65ZM571.865,1590.99C568.593,1595.67 565.231,1600.51 561.777,1605.5C558.323,1610.49 554.961,1615.33 551.689,1620.02C548.765,1625.74 545.752,1631.4 542.65,1637.02C539.548,1642.63 536.717,1648 534.157,1653.1C529.554,1665.29 526.495,1675.28 524.981,1683.08C523.467,1690.89 522.998,1697.24 523.573,1702.14C524.148,1707.05 525.499,1710.55 527.625,1712.64C529.751,1714.74 531.882,1716.42 534.016,1717.69C537.219,1719.6 541.552,1720.31 547.017,1719.83C552.482,1719.36 558.909,1716.76 566.299,1712.04C573.688,1707.32 581.952,1700.22 591.092,1690.74C600.232,1681.25 610.255,1668.57 621.163,1652.68C627.554,1640.73 632.513,1628.76 636.04,1616.76C639.567,1604.77 642.421,1593 644.601,1581.44C646.78,1569.89 648.418,1558.84 649.513,1548.3C650.608,1537.76 651.559,1528.17 652.366,1519.53C637.036,1530.3 623.684,1540.38 612.307,1549.78C600.93,1559.17 587.45,1572.91 571.865,1590.99ZM2061.89,1362.59C2073.72,1370.8 2082.24,1377.75 2087.45,1383.44C2092.66,1389.13 2094.63,1392.92 2093.35,1394.81C2092.23,1396.45 2088.49,1396.11 2082.13,1393.77C2075.78,1391.43 2066.53,1386.4 2054.38,1378.66L1968.19,1320.1C1963.11,1326.46 1958.22,1332.82 1953.52,1339.18C1948.82,1345.54 1944.25,1351.43 1939.81,1356.85C1933.78,1360.16 1920.93,1355.13 1901.26,1341.76C1898.67,1340.01 1895.39,1337.6 1891.4,1334.55C1844.56,1293.25 1798.66,1252.51 1753.7,1212.32C1708.75,1172.14 1663.14,1131.51 1616.89,1090.45C1610.8,1084.93 1606.63,1080.5 1604.36,1077.15C1602.1,1073.81 1601.4,1071.49 1602.28,1070.19C1603.4,1068.54 1607.31,1068.91 1614.01,1071.31C1620.7,1073.71 1628.97,1078.25 1638.8,1084.93C1643.46,1088.1 1648.65,1092.14 1654.39,1097.07C1692.56,1131.1 1730.75,1165.09 1768.96,1199.06C1807.16,1233.03 1845.36,1267.02 1883.52,1301.05C1886.76,1297.4 1890.01,1293.45 1893.27,1289.21C1896.53,1284.97 1900.02,1280.67 1903.74,1276.31L1817.55,1217.74C1807.6,1210.12 1800.58,1204.02 1796.5,1199.44C1792.42,1194.86 1790.95,1191.75 1792.07,1190.1C1793.19,1188.45 1796.41,1188.44 1801.73,1190.08C1807.05,1191.71 1814.83,1195.58 1825.06,1201.67L1914.36,1262.35L1921.44,1251.92C1926.67,1252.03 1932.49,1253.49 1938.9,1256.3C1945.32,1259.1 1951.89,1262.8 1958.62,1267.37C1965.87,1272.29 1972.05,1277.39 1977.16,1282.68C1982.27,1287.96 1985.32,1292.65 1986.31,1296.77L1983.07,1301.54C1981.95,1303.19 1980.53,1304.72 1978.81,1306.14L2061.89,1362.59ZM1017.43,2161.61C1026.38,2165.79 1033.76,2170.91 1039.58,2176.96C1045.76,2183.39 1049.01,2189.33 1049.34,2194.79C1049.66,2200.26 1047.12,2204.14 1041.72,2206.45C1037.6,2208.21 1031.58,2208.24 1023.68,2206.55C1015.78,2204.86 1007.45,2202.95 998.687,2200.82C989.924,2198.7 981.195,2196.96 972.501,2195.6C963.807,2194.25 956.443,2194.86 950.409,2197.43C941.834,2201.1 936.223,2206.56 933.577,2213.83C930.93,2221.09 930.758,2229.3 933.062,2238.45C935.365,2247.6 939.689,2257.22 946.033,2267.32C952.378,2277.41 960.095,2287.18 969.185,2296.64C978.638,2306.47 989.234,2313.41 1000.97,2317.47C1012.71,2321.52 1024.45,2323.71 1036.18,2324.03C1047.92,2324.36 1058.8,2323.45 1068.83,2321.3C1078.86,2319.15 1087.05,2316.72 1093.4,2314C1101.25,2313.32 1108.7,2314.54 1115.74,2317.67C1122.78,2320.79 1128.66,2324.82 1133.38,2329.73C1138.11,2334.65 1140.98,2339.96 1141.98,2345.66C1142.99,2351.37 1141.23,2356.52 1136.69,2361.13C1131.7,2364.32 1126.85,2368.13 1122.13,2372.54C1117.42,2376.96 1113.41,2381.87 1110.1,2387.28C1106.79,2392.7 1104.77,2398.63 1104.03,2405.08C1103.29,2411.53 1104.74,2418.51 1108.38,2426.03L1121.54,2440.41L1134.89,2451.51C1139.53,2455.4 1144.39,2458.12 1149.48,2459.69C1154.56,2461.25 1159.66,2462.01 1164.76,2461.96C1169.87,2461.91 1174.76,2461.29 1179.43,2460.09C1184.11,2458.9 1188.35,2457.49 1192.16,2455.86C1199.47,2452.74 1206.59,2448.5 1213.53,2443.13C1220.46,2437.77 1224.73,2432.88 1226.31,2428.47C1226.89,2423.96 1227.62,2420.05 1228.47,2416.75C1229.33,2413.45 1231.51,2411.05 1235,2409.56C1240.08,2407.39 1246.72,2407.89 1254.92,2411.05C1263.12,2414.22 1271.58,2420.34 1280.3,2429.42C1285.53,2436.25 1288.11,2442.89 1288.02,2449.33C1287.94,2455.76 1286.07,2461.63 1282.43,2466.92C1278.78,2472.21 1274.27,2477.07 1268.89,2481.5C1263.52,2485.93 1258.5,2489.67 1253.83,2492.74C1249.15,2495.8 1245.31,2497.97 1242.29,2499.26L1239.67,2500.38C1228.24,2505.26 1216.06,2508.2 1203.12,2509.19C1190.18,2510.18 1176.8,2508.96 1162.98,2505.53C1149.15,2502.1 1135.19,2496.19 1121.08,2487.81C1106.98,2479.43 1093.2,2468.25 1079.75,2454.26C1077.2,2451.61 1073.54,2447.57 1068.77,2442.14C1064,2436.71 1059.56,2430.47 1055.47,2423.42C1051.38,2416.36 1048.27,2408.36 1046.15,2399.39C1044.03,2390.43 1043.98,2380.72 1046.01,2370.25C1036.66,2368.91 1026.57,2366.68 1015.74,2363.57C1004.91,2360.46 993.984,2356.33 982.971,2351.16C971.957,2345.99 961.18,2339.8 950.64,2332.56C940.101,2325.33 930.286,2316.98 921.196,2307.53C907.379,2293.16 896.523,2277.79 888.628,2261.43C880.733,2245.06 875.971,2229.62 874.342,2215.12C872.713,2200.61 874.274,2187.68 879.027,2176.31C883.779,2164.95 891.713,2156.89 902.828,2152.14C917.119,2146.04 934.457,2144.5 954.842,2147.53C975.227,2150.56 996.09,2155.26 1017.43,2161.61ZM1852.86,1963.78C1856.28,1956.93 1859.57,1951.99 1862.75,1948.95C1865.93,1945.91 1868.75,1944.53 1871.2,1944.82C1874.05,1945.15 1876.07,1947.74 1877.23,1952.56C1878.39,1957.39 1877.95,1964.16 1875.91,1972.88C1867.56,1997.91 1857.73,2024.05 1846.44,2051.29C1835.14,2078.54 1823.14,2105.28 1810.45,2131.51C1797.75,2157.74 1784.51,2182.94 1770.7,2207.12C1756.9,2231.3 1743.42,2252.86 1730.26,2271.78L1796.11,2272.02C1800.25,2273.78 1802.69,2277.27 1803.43,2282.47C1804.17,2287.68 1806.19,2295.51 1800.27,2296.52C1793.98,2297.59 1793.94,2306.37 1790.13,2311.25C1786.32,2316.14 1785.63,2322.82 1780.82,2322.68L1688.34,2319.32C1682.25,2314.77 1681.01,2306.1 1684.63,2293.31C1685.68,2289.59 1687.48,2285.11 1690.02,2279.87C1694.86,2273.18 1699.62,2266.6 1704.31,2260.11C1708.99,2253.62 1713.71,2246.82 1718.47,2239.7C1731.13,2220.29 1743.74,2199.6 1756.28,2177.61C1768.83,2155.63 1780.89,2132.95 1792.46,2109.57C1804.03,2086.2 1814.93,2062.21 1825.17,2037.61C1835.4,2013.01 1844.63,1988.4 1852.86,1963.78Z"/>
</svg>
