<?xml version="1.0" encoding="UTF-8" standalone="no"?>
<!DOCTYPE svg PUBLIC "-//W3C//DTD SVG 1.1//EN" "http://www.w3.org/Graphics/SVG/1.1/DTD/svg11.dtd">
<svg width="100%" height="100%" viewBox="0 0 2481 3508" version="1.1" xmlns="http://www.w3.org/2000/svg" xmlns:xlink="http://www.w3.org/1999/xlink" xml:space="preserve" xmlns:serif="http://www.serif.com/" style="fill-rule:evenodd;clip-rule:evenodd;stroke-linecap:round;stroke-linejoin:round;stroke-miterlimit:1.5;">
    <g transform="matrix(5.02505,0,0,5.02505,-3979.16,-3556.73)">
        <path d="M911.482,890.456L999.559,834.927C999.559,834.927 1020.68,822.794 1009.42,841.692C998.159,860.591 956.204,926.822 956.204,926.822L929.726,964.909C929.726,964.909 926.718,972.917 912.93,968.074C899.142,963.23 869.208,945.349 869.208,945.349C869.208,945.349 855.627,935.373 866.97,923.34C878.312,911.307 911.482,890.456 911.482,890.456ZM849.739,1052.37L845.21,969.387C845.21,969.387 847.024,942.245 868.253,953.945C889.482,965.645 904.893,980.23 908.023,984.325C909.655,986.46 911.115,989.551 911.779,994.011C912.639,999.783 908.69,1012.82 905.878,1019.12C896.727,1039.61 868.813,1108.93 868.813,1108.93L862.761,1121.05C862.761,1121.05 853.94,1142.86 851.514,1107.93C849.81,1083.4 849.739,1052.37 849.739,1052.37ZM882.56,1096.14L916.149,1020.93C916.149,1020.93 929.697,1002.13 941.858,1022.72C955.056,1041.76 1043.64,1175.98 1043.64,1175.98C1043.64,1175.98 1049.22,1189.49 1033.34,1187.29C1017.47,1185.1 885.516,1157.79 885.516,1157.79C885.516,1157.79 868.005,1155.84 865.881,1142.69C865.433,1139.91 866.95,1130.64 870.568,1123.24C874.186,1115.84 882.56,1096.14 882.56,1096.14ZM962.859,935.435L1016.38,846.416C1016.38,846.416 1022.61,832.879 1031.46,829.914C1040.31,826.948 1049.34,828.352 1061.67,840.2C1074,852.048 1123.79,903.792 1123.79,903.792L1153.87,934.393C1153.87,934.393 1176.42,953.724 1150.75,956.784C1125.09,959.843 1077.24,964.18 1077.24,964.18L975.61,975.092L963.232,975.627C963.232,975.627 947.458,977.841 944.894,971.501C942.329,965.162 948.01,956.865 951.265,951.629C954.52,946.392 962.859,935.435 962.859,935.435ZM953.481,1018.88C953.481,1018.88 941.911,999.378 953.532,992.408C954.63,991.75 956.493,988.721 974.815,986.454C994.517,984.017 1039.48,979.609 1039.48,979.609L1127.17,969.388L1153.33,967.963C1153.33,967.963 1173.79,965.645 1168.8,978.831C1163.8,992.016 1080.75,1154.72 1080.75,1154.72L1069.51,1172.5C1069.51,1172.5 1060.06,1184.39 1049.62,1166.44C1039.19,1148.49 953.481,1018.88 953.481,1018.88ZM1111.11,1200.95L1067.58,1225.2C1067.58,1225.2 1052.13,1230.99 1055.16,1218.62C1055.99,1215.28 1058.05,1209.15 1059.99,1207.01C1067.32,1198.91 1075.16,1199.53 1087.44,1194.14C1102.97,1187.33 1131.17,1176.55 1131.17,1176.55L1186.65,1157.05C1186.65,1157.05 1187.33,1157.65 1175.55,1165.38C1163.78,1173.11 1111.11,1200.95 1111.11,1200.95ZM996.717,1223.25C973.988,1214.57 924.923,1186.49 899.606,1175.36C874.29,1164.22 894.773,1166.49 894.773,1166.49L913.491,1169.62L1005.16,1189.72C1005.16,1189.72 1029.31,1196.04 1040.1,1201.54C1041.38,1202.19 1046.42,1205.06 1047.38,1210.29C1048.63,1217.09 1045.32,1226.81 1041.74,1229.99C1039.67,1231.84 1035.24,1231.46 1028.52,1231.06C1020.82,1230.6 1009.9,1228.28 996.717,1223.25ZM1093.84,1147.37L1178.24,981.304C1178.24,981.304 1183.76,968.848 1190.92,999.498C1199.31,1029.07 1212.84,1076.76 1212.84,1076.76L1220.53,1105.12C1220.53,1105.12 1228.62,1132.45 1200.33,1144.45C1175.7,1152.85 1087.78,1183.84 1087.78,1183.84C1087.78,1183.84 1072.99,1190.23 1079.46,1174.32C1085.92,1158.4 1093.84,1147.37 1093.84,1147.37ZM1192.49,972.857C1192.49,972.857 1190.89,957.749 1192.59,953.583C1193.9,950.356 1193.72,949.501 1197.33,944.429C1199.12,941.918 1200.84,939.933 1202.5,938.666C1206.73,935.429 1210.53,936.869 1213.84,946.158C1218.46,959.084 1221.02,1022.91 1221.02,1022.91L1226.18,1084.14C1226.18,1084.14 1223.02,1089.39 1219.15,1072.79C1215.29,1056.18 1192.49,972.857 1192.49,972.857ZM1168.98,939.26L1115.37,883.446C1115.37,883.446 1095.11,863.57 1074.16,842.798C1053.21,822.027 1078.18,836.575 1078.18,836.575C1078.18,836.575 1141.27,872.67 1172,889.077C1202.73,905.484 1197.13,916.034 1197.99,922.096C1198.85,928.158 1194.82,934.346 1188.21,940.962C1181.61,947.578 1168.98,939.26 1168.98,939.26Z" style="stroke:black;stroke-width:4.34px;"/>
    </g>
</svg>
