<?xml version="1.0" encoding="UTF-8" standalone="no"?>
<!DOCTYPE svg PUBLIC "-//W3C//DTD SVG 1.1//EN" "http://www.w3.org/Graphics/SVG/1.1/DTD/svg11.dtd">
<svg width="100%" height="100%" viewBox="0 0 2481 3508" version="1.1" xmlns="http://www.w3.org/2000/svg" xmlns:xlink="http://www.w3.org/1999/xlink" xml:space="preserve" xmlns:serif="http://www.serif.com/" style="fill-rule:evenodd;clip-rule:evenodd;stroke-linecap:round;stroke-linejoin:round;stroke-miterlimit:1.5;">
    <g transform="matrix(4.05761,0,0,4.05761,-3397.86,-4912.41)">
        <path d="M917.833,1642.22L899.298,1490.73C899.298,1490.73 895.78,1450.61 915.12,1437.07C934.46,1423.53 957.598,1416.28 976.819,1409C989.785,1404.09 1091.06,1346.13 1073.49,1425.29C1070.16,1440.29 1057.49,1510.47 1040.35,1579.21C1007.27,1711.86 961.467,1874.72 961.467,1874.72C961.467,1874.72 948.09,1905.36 942.682,1847.5C935.509,1770.76 917.833,1642.22 917.833,1642.22Z" style="fill:none;stroke:black;stroke-width:5.13px;"/>
    </g>
    <g transform="matrix(4.05761,0,0,4.05761,-3397.86,-4912.41)">
        <path d="M1007.89,1736.3C1007.27,1736.24 1063.2,1533.5 1078.28,1480.38C1081.66,1468.5 1092.27,1429.9 1098.2,1418.91C1105.37,1405.64 1107.22,1382.73 1134.61,1402.86C1187.36,1441.64 1289.69,1526.73 1289.69,1526.73C1289.69,1526.73 1349.03,1573.85 1384.02,1608.12C1398.96,1622.75 1395.65,1641.08 1361.78,1666.77C1304.9,1709.9 1016.03,1891.35 1016.03,1891.35C1016.03,1891.35 971.586,1919.01 983.033,1853.41C998.058,1767.31 1008.51,1736.36 1007.89,1736.3Z" style="fill:none;stroke:black;stroke-width:5.13px;"/>
    </g>
    <path d="M326.342,1751.06L251.135,1136.4C251.135,1136.4 236.861,973.596 315.335,918.647C393.81,863.698 487.693,834.275 565.686,804.757C618.296,784.845 1029.22,549.656 957.943,870.866C944.445,931.7 893.005,1216.47 823.455,1495.39C689.243,2033.63 503.393,2694.45 503.393,2694.45C503.393,2694.45 449.117,2818.78 427.171,2584C398.065,2272.64 326.342,1751.06 326.342,1751.06ZM691.778,2132.81C689.263,2132.55 916.171,1309.95 977.392,1094.37C991.072,1046.19 1034.14,889.555 1058.2,844.989C1087.27,791.135 1094.8,698.165 1205.92,779.852C1419.96,937.19 1835.21,1282.45 1835.21,1282.45C1835.21,1282.45 2075.96,1473.65 2217.94,1612.72C2278.55,1672.07 2265.13,1746.45 2127.69,1850.67C1896.9,2025.67 724.777,2761.96 724.777,2761.96C724.777,2761.96 544.454,2874.16 590.899,2608C651.865,2258.62 694.293,2133.06 691.778,2132.81Z"/>
</svg>
