<?xml version="1.0" encoding="UTF-8" standalone="no"?>
<!DOCTYPE svg PUBLIC "-//W3C//DTD SVG 1.1//EN" "http://www.w3.org/Graphics/SVG/1.1/DTD/svg11.dtd">
<svg width="100%" height="100%" viewBox="0 0 2481 3508" version="1.1" xmlns="http://www.w3.org/2000/svg" xmlns:xlink="http://www.w3.org/1999/xlink" xml:space="preserve" xmlns:serif="http://www.serif.com/" style="fill-rule:evenodd;clip-rule:evenodd;stroke-linejoin:round;stroke-miterlimit:2;">
    <path d="M384.098,1613.26L614.276,856.714C614.276,856.714 671.534,798.025 646.852,1007.92C622.17,1217.81 587.729,1546.12 587.729,1546.12L541.405,1780.38C541.405,1780.38 539.627,1916.78 427.688,1998.84C315.75,2080.91 233.971,2139.8 275.889,1990.54C317.807,1841.27 384.098,1613.26 384.098,1613.26ZM616.91,1745.63L668.152,1095.37C668.152,1095.37 682.371,781.749 688.298,738.144C693.159,702.371 715.273,566.798 862.604,621.109C897.803,634.084 946.451,656.932 999.565,684.163C1117.69,744.723 1466.51,907.601 1466.51,907.601L2100.82,1211.26C2100.82,1211.26 2154.35,1242.23 1969.21,1325.4C1733.57,1431.25 1216.07,1646.27 1216.07,1646.27L725.872,1856.92C725.872,1856.92 594.511,1927.61 616.91,1745.63ZM1178.27,2665.72L365.823,2225.15C365.823,2225.15 250.816,2144.69 363.109,2093.3C475.401,2041.9 532.98,2025.58 627.191,2097.76C721.403,2169.93 1409.67,2751.37 1409.67,2751.37C1409.67,2751.37 1506.39,2845.47 1353.56,2759.11C1200.73,2672.76 1178.27,2665.72 1178.27,2665.72ZM883.913,2269.65L696.412,2055.9C696.412,2055.9 630.589,1969.64 776.957,1890.81C1028,1755.59 1319.47,1630.19 1319.47,1630.19L1682.09,1484.95L2072.03,1348.35C2072.03,1348.35 2206.19,1287.44 2136.29,1488.63C2066.39,1689.83 1725.45,2783.54 1725.45,2783.54C1725.45,2783.54 1691.58,2908.53 1540.33,2807.28C1341.91,2674.47 883.913,2269.65 883.913,2269.65Z"/>
    <path d="M1058.4,1407.97C1049.63,1390.24 1041.5,1373.29 1034,1357.11C1026.51,1340.93 1024.59,1322.34 1028.24,1301.32C1029.44,1285.49 1033.11,1270.34 1039.23,1255.88C1045.35,1241.41 1052,1226.83 1059.2,1212.13C1021.98,1209.85 986.381,1202.66 952.411,1190.58C918.44,1178.49 889.958,1158.55 866.963,1130.75C850.781,1111.19 842.694,1091.75 842.701,1072.43C842.709,1053.12 847.884,1034.45 858.227,1016.45C868.57,998.443 882.652,981.905 900.472,966.836C918.292,951.767 936.924,938.696 956.368,927.625C972.38,918.507 990.206,910.818 1009.84,904.559C1029.48,898.299 1049.39,894.912 1069.58,894.4C1089.77,893.887 1109.4,897.284 1128.49,904.593C1147.57,911.902 1164.56,924.566 1179.47,942.585C1193.09,959.059 1202.8,975.116 1208.58,990.755C1214.37,1006.39 1217.16,1022.22 1216.95,1038.25C1216.74,1054.27 1213.75,1070.74 1207.98,1087.66C1202.2,1104.58 1194.57,1122.55 1185.08,1141.59C1206.76,1141.36 1228.83,1141.86 1251.29,1143.08C1273.75,1144.3 1295.42,1147.1 1316.3,1151.5C1337.18,1155.89 1356.41,1162.36 1373.99,1170.9C1391.57,1179.44 1406.75,1191.44 1419.53,1206.88C1431.02,1220.79 1438.12,1237 1440.83,1255.53C1443.54,1274.05 1442.75,1292.68 1438.46,1311.4C1434.18,1330.12 1426.98,1347.85 1416.85,1364.6C1406.73,1381.35 1395.08,1394.98 1381.92,1405.51C1363.17,1421.48 1344.36,1434.85 1325.48,1445.59C1304.32,1457.64 1282.21,1466.25 1259.16,1471.43C1236.1,1476.61 1209.03,1478.2 1177.94,1476.21C1152.41,1474.85 1131.69,1468.09 1115.76,1455.96C1099.83,1443.82 1084.05,1430.85 1068.42,1417.03L1058.4,1407.97ZM1119.02,1339.37C1121.28,1344.14 1123.65,1349.04 1126.12,1354.07C1128.6,1359.1 1130.97,1364 1133.23,1368.77C1138.21,1372.75 1142.9,1376.89 1147.3,1381.2C1151.71,1385.51 1156.18,1389.4 1160.74,1392.86C1174.69,1398.55 1187.62,1401.98 1199.53,1403.15C1211.43,1404.32 1222.7,1403.96 1233.34,1402.07C1243.97,1400.18 1253.5,1397.22 1261.94,1393.17C1270.37,1389.13 1278.02,1385.15 1284.88,1381.25C1295.17,1375.38 1305.51,1367.79 1315.89,1358.48C1326.27,1349.16 1334.55,1338.57 1340.73,1326.72C1346.91,1314.87 1350.32,1301.95 1350.94,1287.97C1351.57,1273.98 1347.85,1259.06 1339.79,1243.2C1329.98,1234.4 1317.17,1228.06 1301.35,1224.19C1285.53,1220.33 1268.75,1217.58 1251,1215.95C1233.24,1214.32 1215.35,1213.53 1197.3,1213.58C1179.26,1213.63 1162.75,1213.75 1147.77,1213.95C1136.83,1238.36 1128.65,1259.49 1123.23,1277.34C1117.81,1295.19 1116.4,1315.87 1119.02,1339.37ZM959.259,1111.14C981.33,1120.53 1003.48,1127.23 1025.72,1131.23C1047.95,1135.23 1071.34,1137.82 1095.87,1139C1106.08,1118.8 1114.07,1098.72 1119.86,1078.76C1125.65,1058.81 1127.45,1037.33 1125.26,1014.35C1123,1009.58 1120.45,1004.97 1117.61,1000.52C1114.78,996.08 1112.44,991.731 1110.6,987.476C1107.33,985.553 1104.38,983.257 1101.75,980.588C1099.12,977.919 1096.17,975.624 1092.9,973.701C1074.66,968.94 1058.12,968.515 1043.27,972.428C1028.42,976.34 1013.84,982.366 999.546,990.507C990.968,995.391 982.027,1001.62 972.725,1009.19C963.423,1016.75 955.294,1024.98 948.34,1033.86C941.386,1042.75 936.534,1052.13 933.784,1062.03C931.033,1071.93 932.207,1081.48 937.304,1090.7C940.857,1093.98 944.516,1097.38 948.282,1100.92C952.047,1104.45 955.707,1107.86 959.259,1111.14ZM1619.02,1746.63C1631.91,1755.54 1639.62,1766.79 1642.16,1780.4C1644.32,1791.97 1642.44,1802.58 1636.52,1812.24C1630.6,1821.89 1621.27,1828.3 1608.53,1831.47C1601.82,1833.13 1595.26,1833.69 1588.85,1833.15C1569.25,1825.91 1549.43,1821.22 1529.38,1819.08C1509.34,1816.93 1488.92,1818.44 1468.13,1823.6C1450.69,1827.93 1434.83,1835.07 1420.55,1845.02C1406.27,1854.97 1394.14,1867.06 1384.16,1881.29C1374.18,1895.51 1367.13,1911.32 1363.01,1928.72C1358.89,1946.12 1358.6,1964.34 1362.16,1983.4C1365.71,2002.45 1373.08,2017.53 1384.28,2028.63C1395.47,2039.74 1408.37,2047.75 1422.97,2052.67C1437.57,2057.59 1452.93,2060.01 1469.05,2059.92C1485.17,2059.83 1499.94,2058.12 1513.36,2054.8C1524.76,2051.97 1535.83,2048.33 1546.58,2043.88C1557.33,2039.43 1568.09,2034.09 1578.85,2027.86C1583.04,2023.97 1586.35,2020.12 1588.8,2016.31C1591.25,2012.5 1593.73,2008.86 1596.24,2005.39C1598.75,2001.92 1601.69,1998.87 1605.06,1996.26C1608.43,1993.64 1612.8,1991.67 1618.16,1990.34C1628.22,1987.84 1638.14,1989.29 1647.92,1994.69C1657.7,2000.1 1665.12,2010.72 1670.18,2026.55C1677.99,2060.92 1685.47,2095.37 1692.61,2129.91C1699.76,2164.45 1707.36,2199.58 1715.43,2235.31C1727.27,2242.34 1734.39,2252.32 1736.8,2265.25C1738.83,2276.14 1736.71,2287.34 1730.44,2298.87C1724.17,2310.39 1713.32,2318.07 1697.9,2321.89C1692.53,2323.23 1682.84,2325.81 1668.82,2329.65C1654.8,2333.48 1638.27,2337.94 1619.22,2343.03C1600.17,2348.11 1580.11,2353.45 1559.05,2359.03C1537.99,2364.61 1518.1,2369.91 1499.38,2374.91C1480.67,2379.91 1464.13,2384.37 1449.78,2388.29C1435.42,2392.21 1425.9,2394.75 1421.2,2395.91C1407.16,2395.84 1396.36,2392.47 1388.8,2385.8C1381.24,2379.14 1376.57,2371.04 1374.79,2361.51C1372.89,2351.31 1374.7,2341.25 1380.21,2331.33C1385.73,2321.42 1394.88,2313.1 1407.66,2306.37C1444.96,2295.68 1481.89,2285.81 1518.44,2276.73C1554.99,2267.66 1591.58,2257.87 1628.21,2247.35C1623.48,2225.74 1618.71,2203.96 1613.92,2182.01C1609.12,2160.07 1604.3,2137.95 1599.44,2115.66C1588,2122.06 1576.07,2127.69 1563.64,2132.55C1551.22,2137.42 1538.64,2141.43 1525.89,2144.59C1493.03,2152.75 1462.31,2154.5 1433.73,2149.85C1405.14,2145.2 1379.85,2135.64 1357.86,2121.16C1335.86,2106.69 1317.61,2088.79 1303.11,2067.47C1288.61,2046.15 1278.94,2022.56 1274.12,1996.71C1269.55,1972.21 1270.18,1946.42 1276.01,1919.35C1281.83,1892.27 1292.43,1866.32 1307.8,1841.5C1323.17,1816.69 1342.76,1794.74 1366.56,1775.66C1390.37,1756.58 1418.03,1743.12 1449.55,1735.3C1477.72,1728.31 1506.41,1725.99 1535.62,1728.35C1564.83,1730.72 1592.63,1736.81 1619.02,1746.63ZM548.996,1325.32C550.886,1313.35 552.002,1303.26 552.346,1295.07C552.689,1286.87 552.23,1281.93 550.968,1280.25C546.03,1279.08 539.722,1285.69 532.043,1300.09C524.364,1314.48 516.363,1331.73 508.041,1351.84C504.921,1358 502.464,1360.87 500.668,1360.44C498.76,1359.99 498.107,1355.87 498.71,1348.08C499.312,1340.29 501.007,1330.51 503.795,1318.75C506.272,1308.3 509.178,1298.29 512.51,1288.73C517.74,1276.17 523.099,1263.81 528.587,1251.65C534.076,1239.5 539.384,1228.86 544.513,1219.72C549.641,1210.59 554.389,1203.43 558.757,1198.26C563.125,1193.08 566.88,1190.87 570.022,1191.61C573.613,1192.46 575.934,1197.67 576.986,1207.23C578.038,1216.8 577.817,1229.86 576.324,1246.41C574.831,1262.96 572.125,1282.5 568.206,1305.04C564.288,1327.57 559.232,1351.9 553.038,1378.03C551.025,1386.53 548.766,1395.31 546.261,1404.37C537.903,1434.13 530.217,1458.19 523.201,1476.53C516.185,1494.88 509.547,1510.39 503.286,1523.05C497.025,1535.71 490.962,1547.04 485.096,1557.03C479.231,1567.03 473.318,1578.22 467.36,1590.61C461.401,1603 455.149,1618.25 448.603,1636.36C442.057,1654.48 435.041,1677.83 427.554,1706.41L459.538,1714C460.885,1714.31 462.166,1713.41 463.381,1711.28C464.597,1709.16 465.528,1707.48 466.174,1706.25C466.708,1705 468.226,1701.22 470.729,1694.91C473.231,1688.61 474.862,1684.85 475.62,1683.65C476.646,1681.82 477.601,1680.67 478.485,1680.19C479.37,1679.71 480.092,1679.54 480.654,1679.67C482.674,1680.15 483.333,1684.62 482.632,1693.08C481.931,1701.53 480.264,1711.32 477.631,1722.42C475.928,1729.61 474.471,1735.13 473.262,1738.98C472.052,1742.84 471.18,1745.39 470.646,1746.64C464.333,1763.78 458.467,1777.4 453.051,1787.5C447.634,1797.6 443.074,1802.21 439.37,1801.33L399.306,1791.84C395.549,1788.19 396.719,1772.25 402.816,1744.02C408.375,1722.57 413.931,1701.63 419.482,1681.21C425.033,1660.79 430.71,1641.09 436.513,1622.11C442.315,1603.13 448.145,1585.54 454.002,1569.33C459.858,1553.12 465.871,1538.5 472.041,1525.48C477.41,1514.33 483.016,1503.93 488.861,1494.27C494.705,1484.62 500.652,1473.78 506.702,1461.76C512.752,1449.73 518.856,1435.48 525.014,1419C531.173,1402.52 537.117,1382.19 542.846,1358.02C544.395,1351.49 545.796,1344.58 547.051,1337.28C548.305,1329.99 548.954,1326 548.996,1325.32ZM623.219,2192.46C632.305,2196.28 641.023,2201.18 649.373,2207.14C658.245,2213.47 664.792,2219.47 669.014,2225.15C673.236,2230.82 674.376,2235.02 672.432,2237.74C670.946,2239.82 666.923,2240.22 660.365,2238.92C653.806,2237.62 646.799,2236.13 639.344,2234.43C631.888,2232.74 624.738,2231.44 617.894,2230.54C611.05,2229.65 606.541,2230.72 604.369,2233.76C601.282,2238.09 601.511,2244.11 605.054,2251.84C608.598,2259.57 614.499,2268.13 622.757,2277.53C631.015,2286.93 640.977,2296.71 652.645,2306.85C664.313,2316.99 676.67,2326.72 689.717,2336.03C703.286,2345.72 715.507,2352.33 726.38,2355.86C737.253,2359.39 746.756,2360.97 754.89,2360.61C763.024,2360.25 769.679,2358.66 774.853,2355.82C780.028,2352.99 783.758,2349.97 786.045,2346.77C790.826,2345.59 796.732,2346.42 803.763,2349.26C810.794,2352.1 817.701,2355.95 824.486,2360.79C831.27,2365.63 837.091,2371 841.95,2376.88C846.808,2382.77 849.399,2388.24 849.722,2393.31C848.708,2396.94 848.231,2401.19 848.293,2406.07C848.355,2410.95 849.257,2416.31 850.999,2422.15C852.741,2427.98 855.727,2434.28 859.956,2441.05C864.186,2447.82 870.279,2455.01 878.237,2462.62L897.636,2476.83L914.761,2487.61C920.73,2491.39 925.999,2493.94 930.567,2495.26C935.134,2496.59 939.119,2497.08 942.522,2496.72C945.924,2496.37 948.76,2495.44 951.029,2493.91C953.298,2492.39 955.119,2490.67 956.49,2488.74C959.12,2485.06 960.804,2480.22 961.542,2474.22C962.281,2468.22 961.567,2462.87 959.4,2458.18C956.482,2453.44 954.103,2449.32 952.261,2445.83C950.42,2442.34 950.128,2439.72 951.386,2437.95C953.215,2435.39 958.049,2435.52 965.887,2438.33C973.725,2441.15 983.907,2447.03 996.432,2455.97C1004.96,2462.78 1011.56,2469.54 1016.22,2476.26C1020.88,2482.97 1023.92,2489.19 1025.35,2494.92C1026.77,2500.65 1027.3,2505.99 1026.93,2510.92C1026.56,2515.85 1025.92,2520.05 1025.02,2523.52C1024.12,2526.99 1023.13,2529.48 1022.04,2531.01L1021.1,2532.33C1016.98,2538.09 1010.94,2541.87 1002.96,2543.67C994.975,2545.47 985.076,2544.99 973.256,2542.24C961.436,2539.48 947.709,2534.16 932.075,2526.26C916.441,2518.36 898.969,2507.52 879.659,2493.74C876.006,2491.13 870.583,2487.14 863.391,2481.76C856.199,2476.39 848.641,2470.15 840.716,2463.04C832.791,2455.93 824.829,2447.77 816.832,2438.56C808.835,2429.34 801.683,2419.22 795.376,2408.19C788.1,2407.35 779.677,2405.63 770.109,2403.03C760.541,2400.43 750.158,2396.76 738.96,2392.03C727.761,2387.3 715.964,2381.48 703.568,2374.57C691.172,2367.65 678.451,2359.54 665.404,2350.23C645.572,2336.07 627.002,2320.7 609.693,2304.11C592.384,2287.53 577.865,2271.72 566.135,2256.7C554.405,2241.68 545.975,2228.1 540.843,2215.98C535.712,2203.85 535.147,2194.99 539.149,2189.38C544.293,2182.18 554.836,2179.55 570.776,2181.5C586.716,2183.45 604.197,2187.1 623.219,2192.46Z"/>
</svg>
