<?xml version="1.0" encoding="UTF-8" standalone="no"?>
<!DOCTYPE svg PUBLIC "-//W3C//DTD SVG 1.1//EN" "http://www.w3.org/Graphics/SVG/1.1/DTD/svg11.dtd">
<svg width="100%" height="100%" viewBox="0 0 2481 3508" version="1.1" xmlns="http://www.w3.org/2000/svg" xmlns:xlink="http://www.w3.org/1999/xlink" xml:space="preserve" xmlns:serif="http://www.serif.com/" style="fill-rule:evenodd;clip-rule:evenodd;stroke-linecap:round;stroke-linejoin:round;stroke-miterlimit:1.5;">
    <g transform="matrix(4.73553,0,0,4.73553,-4896.11,-3958.44)">
        <path d="M1240.29,993.854C1281.98,987.588 1351.31,984.361 1360.25,985.464C1371.42,986.845 1375.35,978.379 1414.79,1023.31C1454.23,1068.24 1489.61,1125.78 1489.61,1125.78L1522.58,1183.08C1522.58,1183.08 1544.84,1209.23 1511.99,1274.35C1479.14,1339.48 1475.83,1367.08 1445.56,1384.08C1415.28,1401.08 1389.31,1423.69 1340.76,1425.16C1292.21,1426.62 1245.75,1430.55 1245.75,1430.55C1245.75,1430.55 1204.87,1438.38 1156.15,1357.5C1102.62,1279.48 1055.9,1243.84 1072.47,1194.46C1089.04,1145.08 1095.31,1127.07 1111.09,1099.74C1126.87,1072.41 1152.86,1041.87 1178.7,1020.5C1201.7,1001.48 1214.1,997.791 1240.29,993.854Z" style="fill:none;stroke:black;stroke-width:8.8px;"/>
    </g>
    <path d="M257.596,1704.47L429.504,1313.2C429.504,1313.2 476.225,1181.75 563.712,1091.92C651.2,1002.08 710.846,957.493 710.846,957.493C710.846,957.493 790.92,870.92 751.561,994.89C712.203,1118.86 697.056,1265.29 672.262,1302.64C648.487,1338.46 548.433,1494.61 465.608,1590.84C382.784,1687.07 294.649,1814.42 294.649,1814.42C294.649,1814.42 217.813,1852.59 257.596,1704.47ZM636.167,1246.32C639.768,1230.8 642.12,1216.51 643.223,1203.46C644.326,1190.4 642.103,1181.69 636.554,1177.32C632.238,1173.92 625.57,1174.21 616.55,1178.18C607.531,1182.15 597.495,1188.81 586.445,1198.14C575.394,1207.48 563.817,1219.09 551.715,1232.97C539.613,1246.86 528.455,1261.81 518.243,1277.82C511.524,1288.35 505.701,1298.64 500.775,1308.68C495.849,1318.73 491.732,1328.3 488.425,1337.41C485.118,1346.51 482.595,1354.97 480.856,1362.78C479.117,1370.58 478.014,1377.47 477.546,1383.43C469.379,1388.39 461.915,1394.06 455.155,1400.45C448.395,1406.83 442.427,1413.21 437.253,1419.58C432.079,1425.94 427.548,1432.03 423.663,1437.83C419.777,1443.63 416.893,1448.01 415.012,1450.95C405.068,1466.54 397.3,1480.68 391.708,1493.36C386.117,1506.05 382.418,1517.22 380.613,1526.87C378.808,1536.53 378.674,1544.65 380.213,1551.24C381.751,1557.84 384.74,1562.88 389.18,1566.38L390.197,1567.18C391.369,1568.1 393.272,1568.97 395.906,1569.77C398.54,1570.58 401.72,1571.19 405.446,1571.59C409.173,1572 413.179,1571.67 417.465,1570.61C421.751,1569.56 426.37,1567.18 431.322,1563.49C436.273,1559.79 441.218,1554.51 446.157,1547.64C452.607,1537.53 456.803,1529.28 458.744,1522.9C460.686,1516.52 460.67,1512.55 458.697,1511C457.34,1509.93 455.368,1510.11 452.78,1511.56C450.192,1513 447.144,1514.87 443.638,1517.17C440.153,1518.86 436.141,1519.34 431.602,1518.61C427.063,1517.89 423.376,1516.41 420.539,1514.17C419.059,1513.01 417.719,1511.48 416.519,1509.58C415.319,1507.69 414.548,1505.34 414.205,1502.54C413.861,1499.73 414.137,1496.47 415.032,1492.75C415.927,1489.02 417.729,1484.74 420.439,1479.91L428.164,1466.06L438.428,1450.41C443.983,1444.02 449.262,1439.16 454.264,1435.82C459.266,1432.48 463.947,1430.16 468.306,1428.84C472.665,1427.53 476.682,1426.9 480.358,1426.94C484.033,1426.99 487.25,1427.47 490.007,1428.37C493.818,1428.21 497.885,1426.19 502.209,1422.32C506.532,1418.44 510.441,1413.77 513.935,1408.29C517.429,1402.82 520.166,1397.22 522.147,1391.5C524.128,1385.78 524.619,1380.94 523.619,1376.99C521.153,1375.05 518.792,1371.92 516.538,1367.62C514.283,1363.31 512.927,1357.81 512.47,1351.12C512.013,1344.43 512.99,1336.66 515.401,1327.8C517.811,1318.93 522.511,1309.03 529.498,1298.08C536.217,1287.54 543.264,1277.59 550.639,1268.2C558.014,1258.82 565.149,1250.83 572.044,1244.24C578.938,1237.64 585.257,1232.97 590.999,1230.21C596.741,1227.45 601.277,1227.39 604.606,1230.01C606.95,1231.85 607.862,1235.58 607.344,1241.18C606.825,1246.79 606.013,1252.64 604.906,1258.73C603.8,1264.82 602.833,1270.54 602.006,1275.91C601.18,1281.27 601.568,1284.58 603.171,1285.84C605.268,1287.49 608.405,1286.64 612.583,1283.29C616.762,1279.93 621.136,1274.67 625.704,1267.51C630.005,1260.77 633.492,1253.71 636.167,1246.32ZM950.271,2621.77C950.271,2621.77 1221.53,2514.57 1428.97,2497.03C1636.4,2479.49 1778.5,2488.39 1778.5,2488.39C1778.5,2488.39 2010.8,2475.01 1838.07,2574.7C1665.33,2674.39 1614.85,2704.8 1562.17,2713.74C1509.49,2722.68 1077.66,2744.85 1077.66,2744.85C1077.66,2744.85 947.176,2762.36 884.83,2698.62C844.98,2659.89 841.008,2654.74 950.271,2621.77ZM1524.2,2576.03C1533.24,2575.89 1541.55,2574.89 1549.14,2573.03C1556.29,2571.28 1561.51,2569.13 1564.81,2566.57C1568.12,2564.01 1568.6,2561.75 1566.27,2559.78C1563.78,2557.68 1558.47,2556.35 1550.33,2555.8C1528.42,2554.8 1504.68,2554.56 1479.11,2555.09C1453.54,2555.62 1427.4,2557.01 1400.7,2559.25C1373.99,2561.49 1347.56,2564.58 1321.41,2568.51C1295.27,2572.44 1270.81,2577.19 1248.04,2582.76C1240.01,2584.73 1232.41,2586.83 1225.26,2589.05C1215.73,2592.18 1208.09,2594.73 1202.35,2596.69C1196.61,2598.65 1191.43,2600.6 1186.8,2602.52C1182.17,2604.45 1177.77,2606.56 1173.58,2608.86C1169.39,2611.16 1164.08,2614.21 1157.64,2618.01C1145.81,2625.04 1139.02,2632.19 1137.26,2639.46C1135.51,2646.73 1138.06,2653.26 1144.92,2659.06C1151.05,2664.24 1159.51,2668.22 1170.27,2670.99C1181.04,2673.77 1193.72,2675.36 1208.31,2675.76C1222.89,2676.17 1239.21,2675.24 1257.25,2672.97C1275.29,2670.71 1294.36,2667.11 1314.45,2662.2C1333.19,2657.61 1348.84,2652.71 1361.38,2647.49C1373.91,2642.28 1383.45,2636.96 1389.99,2631.54C1396.53,2626.13 1399.99,2620.78 1400.38,2615.52C1400.77,2610.26 1398.19,2605.28 1392.64,2600.59C1383.3,2592.7 1366.2,2587.26 1341.36,2584.27C1373.74,2580 1406.01,2577.24 1438.19,2575.97C1470.36,2574.69 1499.03,2574.72 1524.2,2576.03ZM1261.7,2602.33C1279.94,2601.68 1295.86,2602.36 1309.45,2604.37C1323.05,2606.37 1332.62,2609.71 1338.17,2614.4C1340.65,2616.49 1341.95,2618.8 1342.05,2621.32C1342.15,2623.84 1340.74,2626.53 1337.8,2629.4C1334.86,2632.27 1329.84,2635.21 1322.75,2638.21C1315.66,2641.22 1306.09,2644.2 1294.04,2647.15C1290.02,2648.13 1283.96,2649.46 1275.86,2651.12C1267.75,2652.79 1259.06,2653.96 1249.79,2654.64C1240.52,2655.31 1231.34,2655.1 1222.24,2653.98C1213.15,2652.87 1205.76,2649.9 1200.06,2645.09C1195.54,2641.27 1194.65,2636.75 1197.41,2631.54C1200.17,2626.34 1209.25,2619.54 1224.66,2611.16C1229.13,2609.58 1233.42,2607.98 1237.52,2606.34C1241.62,2604.7 1246.06,2603.22 1250.82,2601.89C1252.15,2602.04 1253.74,2602.17 1255.59,2602.27C1257.44,2602.38 1259.48,2602.4 1261.7,2602.33ZM1268.84,2728.72C1279.1,2726.2 1286.76,2722.94 1291.79,2718.93C1296.82,2714.91 1297.59,2711.42 1294.08,2708.46C1290.14,2705.13 1283.1,2703.32 1272.95,2703.01C1262.81,2702.71 1252.6,2703.82 1242.33,2706.33C1232.07,2708.84 1224.53,2712.08 1219.72,2716.04C1214.91,2720 1214.47,2723.65 1218.42,2726.98C1221.92,2729.94 1228.63,2731.6 1238.55,2731.95C1248.48,2732.31 1258.57,2731.23 1268.84,2728.72ZM785.387,1050.17C811.882,954.303 820.923,845.643 1027.84,819.327C1282.5,786.939 1402.16,787.606 1402.16,787.606C1402.16,787.606 1593.72,737.908 1704.13,898.42C1752.48,968.714 1821.61,1040.85 1864.14,1098.19C1878.61,1117.7 1960.87,1173.99 1836.16,1273.04C1736.27,1352.38 1664.59,1431.25 1567.89,1474.22C1464.26,1520.28 1408.15,1561.49 1187.36,1478.12C966.566,1394.75 852.028,1367.55 823.322,1352.28C797.452,1338.51 743.737,1348.79 752.996,1226.43C760.626,1125.59 754.464,1162.05 785.387,1050.17ZM1111.76,1185.53L1109.75,1195.13C1106.85,1209.97 1104.59,1224.52 1102.97,1238.78C1101.35,1253.04 1105.46,1267.59 1115.3,1282.42C1127.07,1300.63 1139.61,1315.01 1152.91,1325.57C1166.21,1336.12 1181.48,1344.63 1198.71,1351.08C1214.08,1356.83 1231.22,1361.39 1250.13,1364.75C1262.94,1367.42 1277.24,1367.87 1293.04,1366.08C1308.84,1364.3 1324.09,1360.45 1338.78,1354.53C1353.47,1348.62 1366.62,1340.8 1378.22,1331.07C1389.83,1321.34 1397.98,1310.19 1402.69,1297.62C1407.92,1283.65 1409.76,1269.87 1408.21,1256.28C1406.66,1242.7 1402.99,1229.11 1397.19,1215.52C1391.39,1201.94 1384.16,1188.61 1375.52,1175.55C1366.87,1162.49 1357.88,1149.97 1348.56,1137.99C1365.67,1134.84 1381.27,1131.12 1395.35,1126.83C1409.43,1122.55 1422.03,1116.91 1433.14,1109.92C1444.25,1102.93 1453.96,1094.35 1462.28,1084.19C1470.6,1074.03 1477.54,1061.5 1483.12,1046.6C1489.22,1030.3 1490.76,1015.21 1487.72,1001.34C1484.69,987.456 1478.73,975.005 1469.85,963.982C1460.97,952.959 1450.23,943.362 1437.62,935.193C1425.02,927.023 1412.19,920.498 1399.15,915.617C1383.32,909.69 1366.46,905.102 1348.56,901.853C1330.66,898.604 1313.33,898.09 1296.57,900.311C1279.81,902.532 1264.79,907.924 1251.5,916.487C1238.2,925.049 1228.24,938.178 1221.62,955.874C1212.2,981.021 1210.52,1005.74 1216.55,1030.04C1222.59,1054.33 1232.69,1077.36 1246.84,1099.11C1233.69,1101.62 1220.85,1104.38 1208.31,1107.38C1195.77,1110.39 1183.79,1115.07 1172.39,1121.41C1156.39,1128.7 1144.41,1138.02 1136.44,1149.37C1128.47,1160.72 1120.25,1172.78 1111.76,1185.53ZM1184.56,1188.89C1199.63,1177.01 1214.45,1168.62 1229.03,1163.72C1243.6,1158.83 1261.6,1154.01 1283.01,1149.29C1289.48,1157.55 1296.54,1166.69 1304.19,1176.73C1311.85,1186.76 1318.87,1197.09 1325.25,1207.71C1331.63,1218.33 1336.83,1228.9 1340.85,1239.43C1344.87,1249.96 1345.93,1259.91 1344.01,1269.28C1336.51,1280.81 1327.82,1289.5 1317.92,1295.36C1308.04,1301.21 1297.71,1305.04 1286.94,1306.85C1276.18,1308.66 1265.39,1308.74 1254.6,1307.09C1243.8,1305.44 1234.21,1303.04 1225.83,1299.9C1220.24,1297.81 1214.28,1295.31 1207.93,1292.41C1201.59,1289.5 1195.52,1285.5 1189.72,1280.41C1183.93,1275.33 1178.92,1269.2 1174.7,1262.05C1170.47,1254.89 1167.37,1246.16 1165.38,1235.86C1165.85,1231.79 1166.63,1227.57 1167.74,1223.2C1168.84,1218.84 1169.71,1214.39 1170.35,1209.85C1172.67,1206.47 1175.04,1202.98 1177.45,1199.37C1179.87,1195.76 1182.24,1192.27 1184.56,1188.89ZM1274.11,998.619C1274.86,995.185 1275.66,991.635 1276.5,987.968C1277.34,984.301 1278.14,980.75 1278.9,977.316C1283.08,970.389 1289.16,965.496 1297.13,962.64C1305.11,959.784 1313.62,958.324 1322.66,958.261C1331.71,958.198 1340.81,959.08 1349.95,960.908C1359.08,962.736 1367.15,964.957 1374.13,967.572C1385.77,971.93 1396.08,977.38 1405.04,983.923C1414.01,990.465 1420.71,999.874 1425.14,1012.15C1425.2,1014.83 1424.86,1017.49 1424.14,1020.14C1423.41,1022.79 1423.08,1025.45 1423.14,1028.13C1420.99,1031.04 1418.98,1034.27 1417.12,1037.82C1415.26,1041.37 1413.17,1044.84 1410.84,1048.21C1395.95,1059.63 1380.41,1068.15 1364.24,1073.77C1348.06,1079.4 1330.87,1083.85 1312.66,1087.12C1303.1,1072.92 1295.01,1058.74 1288.36,1044.57C1281.72,1030.4 1276.97,1015.09 1274.11,998.619ZM1059.25,1503.09L1289.03,1580.14C1289.03,1580.14 1426.68,1622 1425.75,1799.99C1424.82,1977.98 1430.9,2274.81 1430.9,2274.81C1430.9,2274.81 1423.58,2428.32 1224.86,2481.15C1026.15,2533.99 901.957,2602.6 868.34,2602.09C813.884,2601.25 758.306,2567.66 724.153,2525.24C692.907,2486.43 334.89,1998.76 334.89,1998.76C334.89,1998.76 269.93,1908.34 334.2,1838.66C395.693,1756.43 596.327,1510.7 596.327,1510.7C596.327,1510.7 680.292,1364.92 845.271,1427.52C1010.25,1490.11 1059.25,1503.09 1059.25,1503.09ZM706.84,2005.92L688.107,1979.89L986.565,1765.11C998.076,1751.31 999.331,1738.15 990.327,1725.64C987.713,1722.01 983.509,1718.3 977.715,1714.5L920.412,1692.33C914.279,1690.62 908.541,1690.31 903.198,1691.4C897.855,1692.49 893.367,1694.34 889.735,1696.95C883.681,1701.31 879.858,1707.27 878.266,1714.85C876.675,1722.43 878.348,1729.65 883.285,1736.51C887.932,1742.97 894.307,1747.57 902.409,1750.32L652.382,1930.25L639.748,1912.69C633.068,1903.41 625.333,1898.4 616.545,1897.68C607.756,1896.96 600.537,1898.64 594.886,1902.7C589.236,1906.77 585.413,1912.74 583.418,1920.6C581.423,1928.47 583.216,1937.14 588.799,1946.6L655.891,2039.83C663.718,2046.45 671.303,2050.18 678.647,2051.02C685.991,2051.86 692.488,2050.25 698.139,2046.18C703.385,2042.4 707.022,2037.03 709.05,2030.06C711.077,2023.09 710.341,2015.04 706.84,2005.92ZM1120.11,2053.6C1120.01,2054.29 1118.37,2057.07 1115.18,2061.94C1111.99,2066.81 1108.4,2070.73 1104.42,2073.71C1089.69,2084.73 1074.32,2090.32 1058.3,2090.5C1042.29,2090.68 1026.38,2088.29 1010.58,2083.35C994.775,2078.4 979.22,2072.34 963.915,2065.16C948.61,2057.97 933.949,2052.49 919.933,2048.69C903.828,2044.59 888.167,2042.95 872.951,2043.77C857.734,2044.6 842.614,2047.21 827.591,2051.61C812.569,2056.02 797.892,2061.71 783.562,2068.7C769.231,2075.7 754.9,2083.31 740.568,2091.54C724.933,2106.34 722.127,2122.1 732.147,2138.82L838.453,2280.98C848.28,2294.12 860.275,2303.31 874.439,2308.55C888.603,2313.79 903.889,2316.18 920.299,2315.7C921.691,2315.9 923.954,2315.61 927.088,2314.82C930.221,2314.03 933.978,2311.99 938.359,2308.72C945.128,2303.66 949.364,2297.07 951.066,2288.97C952.768,2280.87 950.94,2273.23 945.58,2266.07C944.091,2264.07 942.179,2261.93 939.846,2259.64C937.512,2257.35 935.003,2255.66 932.32,2254.56C930.332,2253.56 926.082,2252.86 919.568,2252.45C913.055,2252.05 909.103,2251.74 907.711,2251.54C906.021,2250.94 903.586,2249.97 900.405,2248.62C897.225,2247.28 893.848,2244.21 890.275,2239.43L805.408,2125.94C824.716,2115.23 842.874,2109.41 859.881,2108.49C876.888,2107.57 893.17,2109.21 908.727,2113.41C924.285,2117.61 939.741,2123.13 955.096,2129.96C970.451,2136.79 986.305,2142.63 1002.66,2147.48C1019.01,2152.33 1036.31,2154.91 1054.56,2155.24C1072.81,2155.56 1092.73,2151.06 1114.32,2141.75C1120.79,2138.77 1126.61,2135.35 1131.79,2131.48C1147.72,2119.57 1160.66,2106.16 1170.63,2091.26C1180.6,2076.36 1187.4,2061.17 1191.06,2045.72C1194.71,2030.26 1195.05,2014.94 1192.09,1999.77C1189.13,1984.6 1182.88,1970.64 1173.36,1957.9C1165.02,1946.75 1155.11,1937.24 1143.64,1929.37C1132.16,1921.5 1119.71,1914.82 1106.3,1909.33C1092.88,1903.84 1079.01,1899.62 1064.7,1896.66C1050.38,1893.71 1036.41,1891.43 1022.79,1889.82C1014.13,1890.7 1006.62,1893.52 1000.25,1898.29C993.084,1903.65 988.773,1910.13 987.321,1917.73C985.868,1925.34 987.672,1932.53 992.735,1939.3C997.499,1945.67 1003.96,1950.15 1012.11,1952.75C1033.78,1955.17 1054.66,1960.05 1074.74,1967.38C1094.82,1974.72 1111.41,1987.15 1124.51,2004.67C1127.88,2010.84 1129.19,2018.4 1128.43,2027.35C1127.67,2036.3 1124.9,2045.05 1120.11,2053.6ZM1485.03,2103.5L1481.41,1795.94C1481.41,1795.94 1450.99,1629.57 1630.35,1502.01C1717.67,1439.92 1827.06,1320.33 1897.38,1294.99C1990.23,1261.51 2018.89,1335.73 2061.9,1380.01C2116.63,1436.34 2225.77,1632.98 2225.77,1632.98C2225.77,1632.98 2314.75,1774.21 2227.25,1968.62C2154.7,2129.85 2073.13,2317.81 2048.73,2369.36C1991.26,2490.81 1938.92,2458.78 1751.69,2444.61C1657.64,2437.49 1514.07,2422.99 1487.37,2297.95C1482.66,2175.91 1485.03,2103.5 1485.03,2103.5ZM1648.79,1984.18C1677.22,1984.03 1706,1986.22 1735.12,1990.75C1764.25,1995.27 1792.98,2001.85 1821.31,2010.46C1849.65,2019.08 1877.44,2029.38 1904.69,2041.37C1931.93,2053.36 1957.87,2066.5 1982.49,2080.78C1991.56,2086.28 2000.29,2091.94 2008.68,2097.76C2017.07,2103.59 2025.59,2109.52 2034.24,2115.57C2040.58,2117.37 2045.86,2118.03 2050.08,2117.56C2064.62,2115.95 2073.15,2106.25 2075.68,2088.47L2048.68,1811.57C2047.1,1800.24 2043.1,1792.06 2036.68,1787.02C2030.27,1781.97 2023.54,1779.84 2016.51,1780.62C2009.94,1781.35 2004.1,1784.62 1998.97,1790.44C1993.85,1796.26 1991.12,1804.69 1990.77,1815.74L2011.48,2028.04C1987.18,2012.23 1960.05,1997.72 1930.08,1984.54C1900.11,1971.35 1869.28,1960.26 1837.59,1951.26C1805.89,1942.26 1773.92,1935.3 1741.68,1930.37C1709.43,1925.43 1678.86,1923.07 1649.96,1923.27C1640.21,1925.35 1633.04,1929.64 1628.46,1936.15C1623.88,1942.66 1621.93,1949.38 1622.6,1956.31C1623.18,1962.25 1625.61,1967.73 1629.9,1972.76C1634.18,1977.79 1640.48,1981.6 1648.79,1984.18Z"/>
</svg>
