<?xml version="1.0" encoding="UTF-8" standalone="no"?>
<!DOCTYPE svg PUBLIC "-//W3C//DTD SVG 1.1//EN" "http://www.w3.org/Graphics/SVG/1.1/DTD/svg11.dtd">
<svg width="100%" height="100%" viewBox="0 0 2481 3508" version="1.1" xmlns="http://www.w3.org/2000/svg" xmlns:xlink="http://www.w3.org/1999/xlink" xml:space="preserve" xmlns:serif="http://www.serif.com/" style="fill-rule:evenodd;clip-rule:evenodd;stroke-linecap:round;stroke-linejoin:round;stroke-miterlimit:1.5;">
    <g transform="matrix(5.22832,0,0,5.22832,-4131.7,-3639.41)">
        <path d="M836.249,1044.72L830.361,960.284C830.361,960.284 831.012,920.639 876.432,897.025C925.04,867.28 993.471,823.276 993.471,823.276C993.471,823.276 1034.07,792.457 1077.83,819.316C1123.07,847.502 1187.34,884.634 1187.34,884.634C1187.34,884.634 1218.39,900.527 1226.73,936.1C1230.25,971.217 1239.77,1083.39 1239.77,1083.39C1239.77,1083.39 1242.16,1096.33 1239.76,1112.49C1237.02,1130.9 1228.05,1153.5 1202.2,1165.86C1192.33,1170.57 1182.37,1178.09 1169.03,1183.19C1105.48,1218.4 1066.54,1240.42 1066.54,1240.42C1066.54,1240.42 1036.13,1261.08 985.815,1235.38C937.038,1210.48 895.363,1189.5 895.363,1189.5C895.363,1189.5 841.163,1169.58 838.672,1124.53C836.676,1088.41 836.249,1044.72 836.249,1044.72Z" style="fill:none;stroke:black;stroke-width:7.97px;"/>
    </g>
    <path d="M1591.49,2687.48L1449.95,2766.33C1449.95,2766.33 1369.17,2796.6 1385.01,2731.93C1389.35,2714.46 1400.12,2682.41 1410.27,2671.23C1448.59,2628.88 1489.58,2632.12 1553.78,2603.94C1634.98,2568.33 1782.42,2511.97 1782.42,2511.97L2072.48,2410.02C2072.48,2410.02 2076.04,2413.16 2014.45,2453.57C1990.72,2469.16 1935.18,2500.38 1875.9,2532.86C1872.77,2530.22 1870,2526.78 1867.89,2521.83C1866.73,2519.13 1864.95,2516.74 1862.55,2514.67C1856.01,2510.01 1847.87,2507.81 1838.12,2508.05C1828.37,2508.28 1819.04,2510.11 1810.14,2513.52C1801.24,2516.93 1794.19,2521.43 1789.01,2527.04C1783.83,2532.64 1782.53,2538.48 1785.13,2544.56L1794.47,2577.08C1756.46,2597.55 1722.56,2615.63 1701.17,2627C1691.22,2629.04 1680.73,2630.8 1669.37,2631.92C1617.01,2637.1 1564.59,2645.09 1512.1,2655.89C1503.3,2657.75 1493.46,2659.85 1482.59,2662.2C1471.72,2664.55 1462.65,2668.45 1455.38,2673.91C1448.82,2678.66 1444.83,2683.21 1443.4,2687.57C1441.98,2691.92 1442.58,2695.68 1445.19,2698.83C1447.8,2701.99 1452.13,2704.44 1458.19,2706.19C1464.24,2707.94 1471.64,2708.41 1480.38,2707.58L1484.85,2707.39C1521.02,2699.05 1556.57,2692.41 1591.49,2687.48ZM922.215,2682.86C801.659,2621.78 659.435,2544.31 571.727,2505.75C439.367,2447.51 546.458,2459.37 546.458,2459.37L644.322,2475.74L1123.6,2580.83C1123.6,2580.83 1249.86,2613.87 1306.27,2642.63C1312.97,2646.03 1339.32,2661.03 1344.34,2688.38C1350.87,2723.93 1333.57,2774.75 1314.85,2791.37C1304.03,2801.05 1280.86,2799.06 1245.73,2796.97C1215.91,2795.18 1176.86,2788.07 1130.61,2773.81C1127.57,2769.73 1123.54,2765.43 1118.51,2760.91C1108.85,2752.21 1096.98,2743.6 1082.9,2735.06C1068.83,2726.52 1053.17,2718.52 1035.93,2711.06C1018.7,2703.6 1001.38,2697.5 983.997,2692.78C974.881,2690.33 966.25,2688.39 958.105,2686.97C949.96,2685.56 941.927,2684.44 934.007,2683.62C929.81,2683.2 925.879,2682.95 922.215,2682.86ZM853.733,2591.62L855.675,2586.62C903.102,2604.73 950.417,2622.83 997.62,2640.92C1044.82,2659.02 1092.36,2677.13 1140.24,2695.26C1143.83,2696.63 1147.97,2697.74 1152.68,2698.58C1157.39,2699.42 1161.14,2699.78 1163.92,2699.67C1171.7,2699.69 1175.67,2697.72 1175.84,2693.74C1176.02,2689.76 1173.76,2684.96 1169.08,2679.35C1164.39,2673.73 1157.95,2667.93 1149.76,2661.93C1141.56,2655.93 1133.15,2651.06 1124.53,2647.33C1119.45,2645.1 1114.28,2643.38 1109.03,2642.18C1103.77,2640.99 1099.1,2640.34 1095.02,2640.26C1090.93,2640.17 1087.67,2640.61 1085.23,2641.6C1082.79,2642.58 1081.84,2644.13 1082.39,2646.25L864.784,2563.17C866.328,2559.2 863.91,2554.53 857.533,2549.15C851.155,2543.77 843.595,2539.08 834.852,2535.08C826.108,2531.08 817.664,2528.37 809.519,2526.95C801.374,2525.54 796.53,2526.81 794.987,2530.79C792.349,2536.4 789.66,2542.44 786.922,2548.9C784.184,2555.36 783.215,2562.27 784.013,2569.64C784.363,2573.45 787.639,2577.09 793.842,2580.56C800.045,2584.03 806.97,2586.82 814.616,2588.93C822.263,2591.04 829.848,2592.43 837.37,2593.1C844.892,2593.76 850.346,2593.27 853.733,2591.62ZM2257.94,1777.05L2279.16,2028.82C2279.16,2028.82 2262.64,2056.27 2242.4,1969.48C2222.22,1882.64 2103.02,1447 2103.02,1447C2103.02,1447 2094.65,1368.01 2103.54,1346.23C2110.39,1329.36 2109.45,1324.89 2128.32,1298.37C2137.68,1285.24 2146.67,1274.86 2155.35,1268.24C2177.47,1251.31 2197.34,1258.84 2214.64,1307.41C2228.77,1346.94 2239.22,1477.56 2245.45,1579.16C2242.14,1576.56 2238.93,1574.01 2235.83,1571.52C2237.18,1563.25 2238.37,1554.6 2239.38,1545.58C2240.39,1536.56 2240.61,1526.85 2240.06,1516.44C2239.72,1509.62 2239.05,1502.66 2238.04,1495.57C2237.04,1488.48 2235.68,1481.47 2233.98,1474.56C2232.37,1467.99 2230.54,1461.18 2228.5,1454.13C2226.47,1447.08 2224.02,1441.01 2221.17,1435.92C2214.24,1423.42 2206.98,1415.92 2199.38,1413.41C2191.78,1410.91 2184.71,1412.03 2178.17,1416.79C2171.62,1421.54 2165.98,1429.39 2161.24,1440.35C2156.5,1451.3 2153.56,1463.95 2152.42,1478.32C2151.28,1492.68 2152.32,1508.22 2155.53,1524.94C2158.74,1541.65 2164.99,1558.17 2174.28,1574.51C2177.84,1581.1 2181.38,1586.65 2184.9,1591.18C2188.42,1595.7 2192,1599.76 2195.64,1603.34C2194.28,1609.94 2193.2,1617.15 2192.38,1624.95C2191.57,1632.76 2191.14,1640.87 2191.08,1649.29C2191.03,1657.7 2191.44,1666.34 2192.33,1675.21C2193.22,1684.08 2194.85,1692.94 2197.22,1701.79C2198.92,1708.71 2200.52,1714.66 2202.01,1719.67C2204.53,1727.97 2207.33,1736.05 2210.4,1743.89C2213.47,1751.73 2216.94,1758.17 2220.83,1763.22C2226.6,1770.85 2232.46,1775.78 2238.42,1778.01C2244.38,1780.24 2250.09,1780.28 2255.55,1778.13C2256.36,1777.81 2257.15,1777.45 2257.94,1777.05ZM2248.99,1641.4C2250.97,1679.24 2252.05,1705.41 2252.17,1708.4C2252.12,1708.49 2252.07,1708.57 2252.01,1708.65C2248.76,1713.74 2244.87,1716.32 2240.35,1716.42C2235.83,1716.51 2231.3,1713.06 2226.74,1706.07C2225.65,1703.66 2224.8,1701.46 2224.19,1699.47C2223.58,1697.47 2223.05,1695.63 2222.59,1693.92C2220.95,1687.8 2220.11,1683.81 2220.06,1681.97C2220.01,1680.12 2219.9,1678.86 2219.72,1678.18C2219.4,1667.57 2219.71,1658 2220.63,1649.47C2221.54,1640.95 2222.8,1632.44 2224.41,1623.96C2226.83,1625.24 2229.59,1626.76 2232.66,1628.52C2235.74,1630.28 2238.83,1632.35 2241.93,1634.73C2244.34,1636.59 2246.69,1638.81 2248.99,1641.4ZM2180.29,1513.52C2180.11,1512.84 2179.98,1512.1 2179.92,1511.32C2180.01,1504.97 2180.89,1499.09 2182.57,1493.68C2184.25,1488.27 2186.44,1484.09 2189.16,1481.15C2191.87,1478.21 2194.81,1476.53 2197.98,1476.13C2201.14,1475.72 2204.32,1477.3 2207.51,1480.85C2209.18,1484.86 2210.18,1487.77 2210.52,1489.58C2210.85,1491.38 2211.28,1494.37 2211.8,1498.53C2212.02,1508.8 2211.64,1518.23 2210.66,1526.8C2209.68,1535.38 2208.47,1543.63 2207.02,1551.57C2202.92,1547.95 2198.96,1544.01 2195.14,1539.75C2191.31,1535.48 2187.55,1530.33 2183.84,1524.29C2183.05,1522.45 2182.34,1520.76 2181.7,1519.21C2181.06,1517.67 2180.59,1515.77 2180.29,1513.52ZM633.818,1016.18L1094.31,725.858C1094.31,725.858 1204.74,662.422 1145.87,761.227C1086.99,860.037 867.639,1206.31 867.639,1206.31L729.204,1405.44C729.204,1405.44 713.477,1447.31 641.389,1421.99C569.301,1396.67 412.796,1303.18 412.796,1303.18C412.796,1303.18 341.79,1251.02 401.095,1188.11C460.395,1125.2 633.818,1016.18 633.818,1016.18ZM562.911,1242.26L558.828,1239.9C597.075,1201.57 635.267,1163.32 673.405,1125.18C711.543,1087.03 749.844,1048.6 788.307,1009.88C791.199,1006.98 794.073,1003.56 796.928,999.623C799.783,995.687 801.756,992.511 802.847,990.095C806.217,983.411 805.98,979.722 802.137,979.029C798.294,978.336 792.601,979.62 785.058,982.884C777.515,986.147 769.027,990.895 759.593,997.128C750.159,1003.36 741.75,1009.93 734.365,1016.84C729.978,1020.9 726.063,1025.12 722.622,1029.48C719.18,1033.84 716.536,1037.77 714.691,1041.27C712.845,1044.77 711.879,1047.64 711.794,1049.88C711.709,1052.11 712.829,1053.14 715.154,1052.95L539.67,1228.86C536.425,1226.99 530.782,1228.43 522.743,1233.18C514.703,1237.93 506.832,1243.8 499.129,1250.78C491.427,1257.75 485.124,1264.65 480.222,1271.46C475.319,1278.28 474.49,1282.62 477.736,1284.5C482.125,1287.53 486.909,1290.67 492.088,1293.91C497.266,1297.15 503.654,1298.93 511.25,1299.25C515.153,1299.47 520.148,1297.15 526.236,1292.29C532.325,1287.42 538.054,1281.85 543.424,1275.55C548.794,1269.26 553.426,1262.92 557.319,1256.54C561.213,1250.16 563.077,1245.4 562.911,1242.26ZM854.245,1070.73C863.193,1065.23 871.417,1058.68 878.917,1051.08C886.418,1043.48 892.087,1036.6 895.924,1030.44C899.762,1024.28 901.2,1019.78 900.238,1016.94C899.277,1014.1 894.808,1014.7 886.831,1018.73C877.367,1023.42 866.612,1029.78 854.566,1037.8C842.52,1045.83 830.951,1053.75 819.858,1061.56C800.766,1074.91 780.676,1089.84 759.585,1106.36C738.495,1122.87 717.841,1140.27 697.622,1158.55C677.403,1176.83 658.125,1195.79 639.787,1215.41C621.449,1235.03 605.699,1254.49 592.539,1273.8C579.811,1292.35 572.578,1306.95 570.839,1317.62C569.01,1327.22 571.035,1333.21 576.912,1335.59C582.258,1338.16 590.445,1337.81 601.472,1334.52C612.499,1331.24 626.336,1323.48 642.982,1311.26C655.361,1302.16 668.823,1291.14 683.369,1278.21C697.914,1265.29 711.727,1251.94 724.807,1238.16C737.887,1224.39 749.272,1211.04 758.961,1198.1C768.651,1185.17 774.881,1174.17 777.653,1165.11C779.438,1158.53 780.094,1153.32 779.622,1149.5C779.15,1145.67 777.56,1142.47 774.853,1139.9C772.766,1138.19 769.981,1137.34 766.497,1137.36C763.013,1137.38 758.938,1138.08 754.273,1139.45C772.101,1125.88 789.28,1113.33 805.811,1101.8C822.343,1090.27 838.487,1079.91 854.245,1070.73ZM668.402,1218.59C673.732,1215.06 678.979,1211.74 684.145,1208.63C689.31,1205.52 693.964,1203.13 698.105,1201.46C704.377,1198.48 709.409,1197.32 713.199,1197.98C715.622,1198.36 717.215,1199.53 717.978,1201.5C718.741,1203.46 718.088,1206.63 716.018,1211.02C714.165,1215.03 710.58,1220.19 705.262,1226.52C699.944,1232.84 694.099,1239.11 687.727,1245.33C681.355,1251.55 674.965,1257.26 668.555,1262.44C662.145,1267.63 656.761,1271.25 652.403,1273.3C646.341,1276.4 641.941,1277.67 639.204,1277.11C636.468,1276.55 634.535,1275.18 633.405,1273.01C632.896,1271.7 632.948,1269.95 633.561,1267.77C634.173,1265.58 635.025,1263.28 636.116,1260.87C637.535,1257.62 639.626,1253.63 642.387,1248.88C645.148,1244.13 648.304,1239.48 651.854,1234.92C650.561,1236.72 650.21,1237.28 650.8,1236.6C651.391,1235.93 652.385,1234.72 653.782,1232.99C655.18,1231.26 656.738,1229.37 658.457,1227.31L662.325,1222.69C664.881,1221.12 666.907,1219.75 668.402,1218.59ZM311.006,1862.72L287.327,1428.86C287.327,1428.86 296.811,1286.95 407.803,1348.12C518.795,1409.29 599.369,1485.55 615.733,1506.96C624.266,1518.12 631.899,1534.28 635.371,1557.6C639.867,1587.78 619.221,1655.94 604.519,1688.88C556.674,1796.01 410.731,2158.43 410.731,2158.43L379.089,2221.8C379.089,2221.8 332.97,2335.83 320.286,2153.2C311.377,2024.95 311.006,1862.72 311.006,1862.72ZM426.981,1498.25L414.576,1568.14C411.262,1566.26 408.396,1564.93 405.977,1564.17C403.559,1563.41 400.877,1562.42 397.934,1561.19C386.3,1562.33 379.118,1570.59 376.389,1585.97C373.991,1599.48 376.998,1612 385.411,1623.52L403.412,1631.05L389.767,1707.93C389.245,1717.72 390.12,1725.47 392.391,1731.17C394.662,1736.88 397.835,1740.58 401.911,1742.28C410.062,1745.69 417.233,1738.17 423.423,1719.74L436.572,1645.65L479.334,1665.77L430.127,1760.08C421.529,1777.01 412.993,1793.58 404.518,1809.81C396.044,1826.04 387.549,1842.39 379.034,1858.85C376.374,1864.25 374.671,1869.04 373.927,1873.24C372.273,1882.55 372.648,1890.72 375.052,1897.73C377.456,1904.74 380.583,1909.05 384.432,1910.66C391.225,1913.5 397.621,1909.66 403.62,1899.15L448.497,1812.8C461.383,1788.15 474.291,1763.39 487.219,1738.51C500.147,1713.63 513.023,1688.35 525.849,1662.68C527.129,1658.21 527.893,1655.28 528.141,1653.88C531.614,1634.31 527.856,1621.23 516.865,1614.63L447.612,1583.44L460.761,1509.36C462.149,1497.42 461.713,1488.23 459.453,1481.78C457.193,1475.33 454.138,1471.3 450.289,1469.7C445.76,1467.8 441.337,1469.08 437.021,1473.54C432.704,1477.99 429.357,1486.23 426.981,1498.25ZM482.605,2091.56L658.219,1698.34C658.219,1698.34 729.052,1600.05 792.633,1707.7C861.637,1807.25 1324.78,2508.99 1324.78,2508.99C1324.78,2508.99 1353.96,2579.63 1270.93,2568.12C1187.96,2556.67 498.06,2413.89 498.06,2413.89C498.06,2413.89 406.507,2403.69 395.402,2334.94C393.059,2320.41 400.991,2271.94 419.907,2233.25C438.823,2194.56 482.605,2091.56 482.605,2091.56ZM752.726,2010.88C760.187,2013.86 766.844,2020.43 772.697,2030.57C778.55,2040.72 781.842,2050.45 782.571,2059.78C783.467,2071.23 782.422,2080.98 779.437,2089.02C776.453,2097.07 772.225,2104.24 766.753,2110.52C761.281,2116.8 755.014,2122.15 747.95,2126.56C740.887,2130.98 733.906,2135.3 727.009,2139.52C721.504,2143.07 716.074,2146.41 710.718,2149.56C705.362,2152.7 701.341,2155.59 698.655,2158.21C689.868,2165.99 682.705,2174.91 677.167,2184.96C671.629,2195.02 667.334,2205.96 664.283,2217.78C661.232,2229.6 659.135,2242.05 657.991,2255.15C656.847,2268.25 656.274,2281.73 656.274,2295.59C659.59,2314.88 669.539,2326.56 686.12,2330.63L814.704,2345.87C827.471,2347.38 838.398,2345 847.484,2338.72C856.571,2332.45 864.33,2324.23 870.764,2314.07C871.726,2312.51 872.654,2310.52 873.549,2308.1C874.445,2305.69 874.71,2302.15 874.345,2297.49C873.748,2289.85 870.764,2282.89 865.392,2276.58C860.02,2270.27 853.503,2266.66 845.843,2265.76C843.29,2265.45 840.753,2265.36 838.232,2265.48C835.712,2265.6 833.407,2266.17 831.318,2267.18C829.229,2268.2 827.455,2269.77 825.996,2271.91C824.537,2274.05 823.069,2276.08 821.594,2278C820.118,2279.93 818.352,2281.61 816.296,2283.05C814.24,2284.48 811.587,2285.22 808.337,2285.25L711.489,2273.78C712.284,2260.85 714.49,2249.77 718.104,2240.54C721.719,2231.3 726.254,2223.44 731.709,2216.95C737.164,2210.45 743.142,2204.86 749.641,2200.17C756.141,2195.48 762.84,2191.02 769.737,2186.8C778.359,2181.52 787.015,2175.51 795.703,2168.77C804.391,2162.03 812.002,2154.21 818.535,2145.32C825.068,2136.44 830.241,2126.34 834.054,2115.03C837.868,2103.72 839.228,2091.07 838.133,2077.08C836.774,2059.69 833.251,2043.52 827.563,2028.57C821.876,2013.61 814.705,2000.48 806.05,1989.16C797.395,1977.84 787.554,1968.69 776.528,1961.72C765.502,1954.74 753.97,1950.54 741.932,1949.11C731.353,1947.86 721.198,1948.54 711.465,1951.17C701.732,1953.8 692.554,1957.75 683.932,1963.03C675.31,1968.31 667.219,1974.6 659.658,1981.89C652.097,1989.19 645.183,1996.66 638.915,2004.32C635.798,2010.67 634.505,2017.24 635.035,2024.03C635.698,2032.51 638.608,2039.68 643.765,2045.54C648.922,2051.4 655.148,2054.76 662.443,2055.63C670.468,2056.58 677.349,2054.45 683.086,2049.25C692.67,2037.79 703.116,2028.1 714.424,2020.2C725.732,2012.3 738.5,2009.19 752.726,2010.88ZM902.433,1251.35L1182.26,785.926C1182.26,785.926 1214.83,715.15 1261.1,699.648C1307.37,684.141 1354.58,691.481 1419.05,753.427C1483.51,815.372 1743.83,1085.91 1743.83,1085.91L1901.1,1245.9C1901.1,1245.9 2019,1346.97 1884.79,1362.96C1750.63,1378.96 1500.45,1401.63 1500.45,1401.63L969.1,1458.68L904.384,1461.48C904.384,1461.48 821.912,1473.06 808.507,1439.91C795.096,1406.77 824.798,1363.39 841.816,1336.01C858.834,1308.63 902.433,1251.35 902.433,1251.35ZM1277.29,1275.53C1270.68,1278.86 1263.14,1281.38 1254.67,1283.08C1245.91,1284.84 1237.41,1285.99 1229.17,1286.52C1220.92,1287.04 1213.3,1287.31 1206.3,1287.31C1199.3,1287.31 1194.03,1287.5 1190.49,1287.9C1191.06,1275.7 1193.83,1265.02 1198.82,1255.85C1203.8,1246.68 1209.83,1238.17 1216.92,1230.34C1224.01,1222.5 1231.48,1215.2 1239.35,1208.45C1247.21,1201.7 1254.33,1194.84 1260.7,1187.86C1271.13,1176.52 1279.22,1163.87 1284.96,1149.92C1290.7,1135.97 1294.19,1121.49 1295.41,1106.48C1296.64,1091.46 1295.4,1076.33 1291.72,1061.08C1288.03,1045.84 1281.95,1031.05 1273.49,1016.73C1264.61,1001.67 1254.36,990.974 1242.73,984.639C1231.1,978.304 1219.05,975.441 1206.58,976.05C1194.12,976.66 1181.88,980.081 1169.89,986.314C1157.9,992.547 1147.12,1000.89 1137.57,1011.36C1133.51,1015.73 1128.53,1021.37 1122.64,1028.29C1116.75,1035.21 1111.82,1042.71 1107.86,1050.79C1103.89,1058.87 1101.66,1067.24 1101.18,1075.9C1100.7,1084.57 1103.66,1092.66 1110.05,1100.16C1117.58,1109.11 1124.64,1113.22 1131.23,1112.48C1137.82,1111.74 1144.07,1108.7 1149.98,1103.34C1155.88,1097.98 1161.41,1091.49 1166.57,1083.87C1171.73,1076.25 1176.66,1070.22 1181.37,1065.78C1191.01,1056.09 1200.05,1051.06 1208.47,1050.71C1216.9,1050.36 1224.62,1056.64 1231.62,1069.56C1236.86,1078.37 1238.6,1087.28 1236.86,1096.28C1235.11,1105.28 1231.6,1113.8 1226.33,1121.82C1221.05,1129.85 1215.05,1137.18 1208.31,1143.8C1201.57,1150.43 1195.83,1155.77 1191.08,1159.82C1180.74,1169.19 1171.81,1178.71 1164.28,1188.36C1156.75,1198.01 1150.52,1208.39 1145.59,1219.51C1140.67,1230.63 1137,1242.79 1134.59,1255.97C1132.18,1269.16 1130.92,1283.79 1130.79,1299.85C1130.89,1306.5 1130.75,1313.17 1130.38,1319.86C1130,1326.56 1130.82,1333.12 1132.86,1339.55C1135.43,1347.88 1139.78,1354.63 1145.91,1359.82C1152.03,1365.01 1158.79,1367.19 1166.19,1366.36L1280.99,1353.54C1293.21,1352.18 1303.41,1347.32 1311.58,1338.97C1319.75,1330.62 1326.91,1320.62 1333.08,1308.97C1336.32,1303.12 1337.64,1296.81 1337.03,1290.03C1336.42,1283.25 1334.67,1277.08 1331.76,1271.53C1328.85,1265.99 1324.99,1261.43 1320.19,1257.85C1315.38,1254.28 1310.23,1252.6 1304.72,1252.83C1296.91,1252.92 1291.11,1255.62 1287.32,1260.94C1284.11,1265.43 1280.77,1270.3 1277.29,1275.53ZM1605.52,1161.68C1606.25,1145.16 1605.82,1128.47 1604.23,1111.62C1602.64,1094.77 1599.66,1078.56 1595.29,1063C1590.91,1047.44 1584.74,1032.57 1576.78,1018.38C1568.82,1004.2 1558.67,991.534 1546.33,980.385C1533.99,969.236 1520.96,961.296 1507.23,956.566C1493.5,951.835 1479.99,950.408 1466.69,952.285C1453.39,954.162 1440.69,959.202 1428.59,967.403C1416.5,975.605 1405.89,986.87 1396.78,1001.2C1385.44,1018.91 1377.38,1038.99 1372.6,1061.45C1367.83,1083.9 1365.25,1106.31 1364.86,1128.67C1364.24,1160.45 1367.86,1190.18 1375.73,1217.88C1383.6,1245.58 1397.07,1271.68 1416.13,1296.17C1424.89,1307.33 1434.82,1315.91 1445.92,1321.91C1457.03,1327.91 1468.5,1331.42 1480.34,1332.45C1492.18,1333.48 1503.94,1332.36 1515.62,1329.1C1527.3,1325.84 1538.09,1320.52 1548,1313.15C1567.42,1294.93 1581.62,1272.3 1590.6,1245.27C1599.58,1218.23 1604.55,1190.37 1605.52,1161.68ZM1548.73,1156.28L1548.58,1159.24C1548.06,1171.82 1546.76,1184 1544.67,1195.79C1542.6,1207.57 1539.32,1218.11 1534.84,1227.42C1530.36,1236.73 1524.5,1244.62 1517.26,1251.11C1510.02,1257.6 1500.65,1261.87 1489.16,1263.94C1480.85,1265.26 1473.45,1263.93 1466.97,1259.96C1460.5,1255.98 1454.89,1250.34 1450.15,1243.04C1445.41,1235.74 1441.31,1227.59 1437.85,1218.58C1434.38,1209.57 1431.68,1200.87 1429.75,1192.47C1426.69,1179.89 1424.6,1164.37 1423.48,1145.9C1422.36,1127.43 1423.15,1109.34 1425.86,1091.61C1428.57,1073.89 1433.9,1058.51 1441.87,1045.49C1449.83,1032.46 1461.53,1025.09 1476.96,1023.37C1491.11,1021.78 1502.86,1025.56 1512.2,1034.7C1521.54,1043.83 1529.06,1055.52 1534.75,1069.76C1540.44,1084 1544.34,1099.03 1546.47,1114.84C1548.59,1130.66 1549.35,1144.47 1548.73,1156.28ZM853.402,1687.62C853.402,1687.62 792.911,1585.66 853.669,1549.22C859.41,1545.78 869.15,1529.94 964.943,1518.09C1067.95,1505.35 1303.03,1482.3 1303.03,1482.3L1761.5,1428.86L1898.28,1421.41C1898.28,1421.41 2005.25,1409.29 1979.16,1478.23C1953.02,1547.17 1518.81,2397.84 1518.81,2397.84L1460.04,2490.8C1460.04,2490.8 1410.63,2552.96 1356.05,2459.11C1301.52,2365.26 853.402,1687.62 853.402,1687.62ZM1489.43,1705.72L1503.1,1704.32C1508.26,1753.74 1513.32,1803.06 1518.29,1852.29C1523.25,1901.52 1528.5,1951.03 1534.06,2000.83C1534.45,2004.57 1536.02,2008.6 1538.78,2012.94C1541.53,2017.27 1544.44,2020.54 1547.51,2022.75C1555.26,2029.09 1563.89,2031.14 1573.41,2028.9C1582.92,2026.67 1591.91,2021.97 1600.38,2014.8C1608.85,2007.64 1616.01,1998.93 1621.85,1988.68C1627.69,1978.42 1630.66,1968.67 1630.76,1959.43C1630.89,1953.96 1629.73,1948.73 1627.26,1943.74C1624.79,1938.74 1621.6,1934.56 1617.71,1931.18C1613.81,1927.8 1609.48,1925.41 1604.73,1924.01C1599.97,1922.61 1595.38,1922.77 1590.95,1924.48L1567.29,1697.74C1578.16,1696.62 1586.7,1691.86 1592.91,1683.46C1599.12,1675.06 1602.53,1666.1 1603.13,1656.6C1603.74,1647.09 1601.61,1638.6 1596.75,1631.12C1591.9,1623.65 1584.03,1620.47 1573.16,1621.58C1557.33,1622.79 1540.47,1624.2 1522.56,1625.83C1504.65,1627.45 1487.45,1630.79 1470.97,1635.84C1462.37,1638.4 1457.12,1643.24 1455.2,1650.37C1453.29,1657.49 1453.69,1664.79 1456.43,1672.28C1459.16,1679.76 1463.52,1686.76 1469.52,1693.28C1475.52,1699.8 1482.15,1703.95 1489.43,1705.72ZM1135.41,1833.96C1134.42,1851.69 1134.7,1869.6 1136.23,1887.7C1137.77,1905.81 1140.83,1923.23 1145.41,1939.96C1149.99,1956.7 1156.54,1972.72 1165.05,1988C1173.55,2003.29 1184.46,2016.97 1197.77,2029.03C1211.09,2041.1 1225.19,2049.72 1240.09,2054.91C1254.99,2060.1 1269.69,2061.74 1284.2,2059.83C1298.71,2057.92 1312.6,2052.61 1325.87,2043.91C1339.14,2035.2 1350.83,2023.19 1360.93,2007.89C1373.49,1988.97 1382.5,1967.48 1387.96,1943.41C1393.42,1919.35 1396.5,1895.32 1397.18,1871.32C1398.23,1837.22 1394.63,1805.27 1386.38,1775.48C1378.13,1745.68 1363.76,1717.56 1343.28,1691.12C1333.87,1679.08 1323.15,1669.79 1311.13,1663.26C1299.1,1656.73 1286.65,1652.86 1273.76,1651.66C1260.88,1650.47 1248.05,1651.57 1235.29,1654.98C1222.53,1658.39 1210.71,1664.01 1199.84,1671.84C1178.46,1691.24 1162.73,1715.41 1152.64,1744.36C1142.55,1773.31 1136.8,1803.18 1135.41,1833.96ZM1197.2,1840.21L1197.41,1837.04C1198.12,1823.54 1199.68,1810.47 1202.09,1797.84C1204.49,1785.21 1208.19,1773.92 1213.17,1763.97C1218.16,1754.01 1224.63,1745.58 1232.6,1738.68C1240.56,1731.78 1250.81,1727.26 1263.35,1725.14C1272.43,1723.79 1280.47,1725.27 1287.48,1729.59C1294.49,1733.9 1300.53,1740 1305.6,1747.87C1310.68,1755.75 1315.05,1764.53 1318.72,1774.23C1322.39,1783.93 1325.23,1793.29 1327.24,1802.32C1330.42,1815.84 1332.52,1832.52 1333.53,1852.36C1334.53,1872.19 1333.46,1891.61 1330.3,1910.61C1327.14,1929.61 1321.15,1946.07 1312.33,1959.99C1303.5,1973.9 1290.67,1981.73 1273.84,1983.45C1258.4,1985.04 1245.65,1980.89 1235.58,1971.01C1225.51,1961.13 1217.46,1948.52 1211.43,1933.19C1205.4,1917.86 1201.32,1901.7 1199.19,1884.71C1197.06,1867.72 1196.4,1852.89 1197.2,1840.21ZM1587.24,2359.41L2028.51,1491.16C2028.51,1491.16 2057.37,1426.04 2094.81,1586.29C2138.67,1740.9 2209.41,1990.24 2209.41,1990.24L2249.62,2138.51C2249.62,2138.51 2291.92,2281.4 2144.01,2344.14C2015.23,2388.06 1555.56,2550.09 1555.56,2550.09C1555.56,2550.09 1478.23,2583.49 1512.06,2500.31C1545.84,2417.08 1587.24,2359.41 1587.24,2359.41ZM2180.24,2165.65C2179.67,2155.33 2177.32,2147.3 2173.22,2141.58C2169.12,2135.85 2164.22,2132.25 2158.53,2130.76C2152.85,2129.28 2146.88,2129.55 2140.64,2131.59C2134.39,2133.62 2128.69,2137.28 2123.54,2142.56C2118.38,2147.84 2114.29,2154.6 2111.27,2162.83C2108.25,2171.05 2107.33,2180.45 2108.53,2191.01C2109.7,2201.16 2112.34,2208.99 2116.43,2214.51C2120.52,2220.03 2125.34,2223.55 2130.88,2225.08C2136.41,2226.61 2142.23,2226.38 2148.32,2224.39C2154.42,2222.39 2159.9,2218.8 2164.76,2213.61C2169.61,2208.41 2173.55,2201.7 2176.57,2193.47C2179.6,2185.24 2180.82,2175.97 2180.24,2165.65ZM1953.61,2296.07L1954.05,2295.94C1970.02,2278.26 1984.44,2259.89 1997.3,2240.82C2010.17,2221.74 2021.29,2201.39 2030.68,2179.76C2040.07,2158.14 2047.5,2135.2 2052.95,2110.94C2058.41,2086.68 2061.42,2060.63 2061.98,2032.77C2062.3,2022.18 2062.23,2011.4 2061.76,2000.41C2061.3,1989.43 2060.32,1978.6 2058.81,1967.92C2057.31,1957.24 2055.21,1946.83 2052.52,1936.71C2049.84,1926.58 2046.31,1917.54 2041.92,1909.59C2035.13,1896.47 2027.09,1886.65 2017.79,1880.13C2008.5,1873.62 1998.51,1869.72 1987.84,1868.43C1977.17,1867.14 1966.25,1868.23 1955.09,1871.7C1943.93,1875.17 1932.94,1880.38 1922.12,1887.31C1909.86,1895.51 1899,1906.98 1889.53,1921.7C1880.05,1936.43 1872.55,1952.57 1867.02,1970.13C1861.49,1987.7 1858.34,2005.82 1857.57,2024.51C1856.8,2043.2 1858.84,2060.65 1863.68,2076.86C1866.27,2085.33 1869.5,2092.99 1873.37,2099.84C1877.23,2106.68 1881.61,2113.17 1886.49,2119.29C1893.32,2127.79 1901.01,2133.93 1909.55,2137.73C1918.09,2141.53 1927.13,2143.4 1936.66,2143.34C1946.2,2143.28 1955.8,2141.63 1965.46,2138.39C1975.12,2135.15 1984.35,2130.98 1993.15,2125.89C1988,2142.09 1981.44,2157.54 1973.48,2172.24C1965.52,2186.95 1956.89,2200.48 1947.59,2212.85C1944.77,2216.61 1941.79,2220.11 1938.64,2223.34C1935.49,2226.57 1932.42,2229.88 1929.43,2233.27C1926.44,2236.66 1923.7,2240.5 1921.21,2244.79C1918.73,2249.09 1916.88,2253.93 1915.67,2259.32C1914.27,2266.86 1914.52,2273.92 1916.4,2280.51C1918.28,2287.09 1921.15,2292.34 1925,2296.25C1928.85,2300.16 1933.29,2302.32 1938.31,2302.74C1943.33,2303.16 1948.43,2300.94 1953.61,2296.07ZM2007.97,2025.32C2007.97,2025.3 2007.97,2025.28 2007.96,2025.26C2008.22,2025 2008.22,2025.02 2007.97,2025.32ZM2007.93,2025.36C2007.6,2025.76 2006.9,2026.56 2005.83,2027.77C2003.84,2030.03 2001.42,2032.84 1998.58,2036.18C1995.74,2039.53 1992.74,2042.82 1989.59,2046.05C1986.44,2049.28 1983.7,2051.65 1981.36,2053.18C1970.29,2061.03 1959.93,2065.31 1950.28,2066.03C1940.63,2066.75 1931.19,2063.01 1921.95,2054.8C1915.43,2046.63 1911.96,2037.26 1911.52,2026.69C1911.08,2016.12 1912.61,2005.6 1916.11,1995.13C1919.62,1984.67 1924.61,1975.13 1931.09,1966.52C1937.58,1957.91 1944.56,1951.36 1952.03,1946.87C1959.5,1942.38 1966.98,1940.83 1974.48,1942.2C1981.97,1943.58 1988.57,1949.1 1994.25,1958.77C1996.59,1962.7 1998.43,1967.2 1999.78,1972.26C2001.12,1977.32 2002.25,1982.66 2003.17,1988.27C2003.61,1990.65 2004.1,1994.08 2004.65,1998.53C2005.2,2002.99 2005.75,2007.34 2006.29,2011.59C2006.83,2015.84 2007.26,2019.38 2007.57,2022.23C2007.75,2023.93 2007.87,2024.97 2007.93,2025.36ZM1980.1,1271.34L1699.81,979.53C1699.81,979.53 1593.88,875.612 1484.35,767.01C1374.82,658.412 1505.37,734.474 1505.37,734.474C1505.37,734.474 1835.22,923.19 1995.89,1008.97C2156.55,1094.75 2127.28,1149.91 2131.77,1181.61C2136.27,1213.3 2115.2,1245.65 2080.64,1280.24C2046.13,1314.83 1980.1,1271.34 1980.1,1271.34ZM1743.6,951.511L1743.69,951.385C1738.85,945.464 1733.87,940.38 1728.75,936.133C1723.64,931.885 1718.87,928.808 1714.45,926.9C1710.03,924.992 1707.2,924.877 1705.96,926.554C1704.65,928.315 1705.58,931.657 1708.73,936.581C1717.07,948.93 1726.89,962.236 1738.19,976.498C1749.48,990.76 1761.81,1005.27 1775.17,1020.03C1788.53,1034.78 1802.7,1049.43 1817.68,1063.97C1832.66,1078.52 1847.82,1092.16 1863.16,1104.9C1875.8,1115.39 1888.15,1124.63 1900.21,1132.62C1912.27,1140.6 1924.53,1148 1936.98,1154.82C1949.49,1161.55 1959.8,1165.34 1967.92,1166.19C1976.04,1167.04 1981.63,1165.41 1984.68,1161.3C1987.35,1157.69 1987.84,1152.77 1986.14,1146.55C1984.43,1140.32 1980.69,1133.08 1974.91,1124.82C1969.12,1116.56 1961.25,1107.35 1951.3,1097.18C1941.34,1087.01 1929.44,1076.18 1915.6,1064.69C1902.97,1054.19 1891.25,1045.41 1880.45,1038.34C1869.65,1031.27 1860.17,1026.04 1852,1022.63C1843.82,1019.24 1836.96,1017.5 1831.42,1017.44C1825.88,1017.38 1821.89,1018.98 1819.47,1022.25C1815.98,1026.95 1816.62,1034.6 1821.4,1045.2C1804.78,1028.28 1789.83,1011.73 1776.55,995.556C1763.28,979.377 1752.29,964.695 1743.6,951.511ZM1883.23,1101.44C1874.2,1090.68 1867.37,1081.05 1862.75,1072.53C1858.12,1064.02 1857,1058.16 1859.36,1054.98C1860.29,1053.72 1861.89,1053.05 1864.14,1052.95C1866.4,1052.86 1869.46,1053.64 1873.34,1055.3C1877.21,1056.96 1882.02,1059.66 1887.75,1063.41C1893.48,1067.15 1900.1,1072.14 1907.62,1078.39C1910.03,1080.39 1913.73,1083.6 1918.72,1088.01C1923.71,1092.43 1928.48,1097.14 1933.03,1102.14C1937.59,1107.14 1941.15,1112 1943.73,1116.72C1946.31,1121.43 1946.51,1125.26 1944.33,1128.19C1943.02,1129.95 1940.3,1130.51 1936.17,1129.85C1932.04,1129.2 1927.14,1127.61 1921.48,1125.08C1915.83,1122.55 1909.66,1119.22 1902.99,1115.11C1896.32,1110.99 1889.74,1106.43 1883.23,1101.44ZM2001.7,1088.21C1994.48,1082.22 1987.54,1077.81 1980.88,1074.99C1974.22,1072.17 1970.05,1071.89 1968.37,1074.16C1966.51,1076.67 1967.66,1081.02 1971.83,1087.19C1976,1093.37 1981.69,1099.45 1988.91,1105.45C1996.13,1111.45 2003,1115.79 2009.51,1118.49C2016.02,1121.18 2020.2,1121.27 2022.07,1118.76C2023.75,1116.49 2022.58,1112.33 2018.56,1106.28C2014.54,1100.24 2008.92,1094.21 2001.7,1088.21Z" style="stroke:black;stroke-width:3.98px;"/>
</svg>
