<?xml version="1.0" encoding="UTF-8" standalone="no"?>
<!DOCTYPE svg PUBLIC "-//W3C//DTD SVG 1.1//EN" "http://www.w3.org/Graphics/SVG/1.1/DTD/svg11.dtd">
<svg width="100%" height="100%" viewBox="0 0 2481 3508" version="1.1" xmlns="http://www.w3.org/2000/svg" xmlns:xlink="http://www.w3.org/1999/xlink" xml:space="preserve" xmlns:serif="http://www.serif.com/" style="fill-rule:evenodd;clip-rule:evenodd;stroke-linecap:round;stroke-linejoin:round;stroke-miterlimit:1.5;">
    <g transform="matrix(4.05761,0,0,4.05761,-3397.86,-4912.41)">
        <path d="M916.595,1799.93C905.887,1734.26 889.456,1540.6 885.084,1512.62C884.766,1510.58 864.918,1423.71 921.753,1407.76C986.168,1389.67 1013.75,1375.81 1042.98,1367.05C1060.68,1361.74 1080.95,1351.86 1097.14,1355.19C1127.63,1361.46 1135.82,1375.49 1158.86,1391.97C1181.9,1408.45 1294.27,1503.06 1294.27,1503.06L1398.09,1590.71C1398.09,1590.71 1449.04,1635.11 1381.97,1680.47C1324.91,1719.05 1093.82,1869.52 1024.34,1914.36C1012.14,1922.23 999.348,1929.25 999.348,1929.25C999.348,1929.25 938.337,1957.27 928.771,1895.79C919.644,1837.13 921.485,1829.92 916.595,1799.93Z" style="fill:none;stroke:black;stroke-width:10.27px;"/>
    </g>
    <g transform="matrix(4.05761,0,0,4.05761,-3397.86,-4912.41)">
        <path d="M917.833,1642.22L899.298,1490.73C899.298,1490.73 895.78,1450.61 915.12,1437.07C934.46,1423.53 957.598,1416.28 976.819,1409C989.785,1404.09 1091.06,1346.13 1073.49,1425.29C1070.16,1440.29 1057.49,1510.47 1040.35,1579.21C1007.27,1711.86 961.467,1874.72 961.467,1874.72C961.467,1874.72 948.09,1905.36 942.682,1847.5C935.509,1770.76 917.833,1642.22 917.833,1642.22Z" style="fill:none;stroke:black;stroke-width:5.13px;"/>
    </g>
    <g transform="matrix(4.05761,0,0,4.05761,-3397.86,-4912.41)">
        <path d="M1007.89,1736.3C1007.27,1736.24 1063.2,1533.5 1078.28,1480.38C1081.66,1468.5 1092.27,1429.9 1098.2,1418.91C1105.37,1405.64 1107.22,1382.73 1134.61,1402.86C1187.36,1441.64 1289.69,1526.73 1289.69,1526.73C1289.69,1526.73 1349.03,1573.85 1384.02,1608.12C1398.96,1622.75 1395.65,1641.08 1361.78,1666.77C1304.9,1709.9 1016.03,1891.35 1016.03,1891.35C1016.03,1891.35 971.586,1919.01 983.033,1853.41C998.058,1767.31 1008.51,1736.36 1007.89,1736.3Z" style="fill:none;stroke:black;stroke-width:5.13px;"/>
    </g>
    <path d="M326.342,1751.06L251.135,1136.4C251.135,1136.4 236.861,973.596 315.335,918.647C393.81,863.698 487.693,834.275 565.686,804.757C618.296,784.845 1029.22,549.656 957.943,870.866C944.445,931.7 893.005,1216.47 823.455,1495.39C689.243,2033.63 503.393,2694.45 503.393,2694.45C503.393,2694.45 449.117,2818.78 427.171,2584C398.065,2272.64 326.342,1751.06 326.342,1751.06ZM450.044,2124.89L471.969,2127.58L441.432,2570.49C443.046,2591.83 449.122,2603.14 459.659,2604.44C462.718,2604.81 466.56,2603.78 471.186,2601.32L509.154,2565.22C512.884,2560.85 515.72,2555.76 517.662,2549.96C519.605,2544.16 520.762,2538.56 521.133,2533.17C521.753,2524.19 520.515,2516.03 517.421,2508.7C514.327,2501.38 509.891,2497.36 504.112,2496.65C498.674,2495.98 493.368,2498.35 488.197,2503.76L513.778,2132.72L528.564,2134.54C536.382,2135.5 542.524,2132.17 546.991,2124.57C551.457,2116.96 553.98,2108.97 554.558,2100.58C555.136,2092.2 553.899,2084.04 550.846,2076.12C547.793,2068.19 542.568,2063.17 535.173,2061.05L456.653,2051.41C449.648,2053.56 444.219,2057.73 440.366,2063.9C436.513,2070.07 434.297,2077.35 433.719,2085.73C433.182,2093.52 434.206,2101.04 436.79,2108.31C439.374,2115.57 443.792,2121.1 450.044,2124.89ZM368.435,947.654C363.267,940.027 357.761,934.212 351.917,930.209C346.073,926.207 339.875,927.242 333.323,933.317C328.227,938.042 323.197,946.453 318.233,958.549C313.269,970.646 308.892,984.554 305.102,1000.27C301.313,1015.99 298.283,1032.82 296.014,1050.77C293.744,1068.72 292.752,1085.7 293.038,1101.71C293.226,1112.24 293.985,1121.6 295.315,1129.79C296.646,1137.98 298.363,1145.05 300.468,1151.03C302.573,1157 304.954,1161.85 307.611,1165.6C310.268,1169.35 312.944,1172.11 315.64,1173.89C311.844,1185.12 308.961,1195.61 306.989,1205.36C305.017,1215.11 303.656,1223.87 302.906,1231.63C302.157,1239.39 301.762,1246.29 301.722,1252.32C301.682,1258.35 301.688,1262.84 301.74,1265.79C302.019,1281.38 303.242,1293.94 305.411,1303.5C307.58,1313.05 310.441,1319.92 313.994,1324.12C317.547,1328.32 321.612,1330.12 326.19,1329.52C330.767,1328.91 335.677,1326.18 340.918,1321.32L342.119,1320.21C343.503,1318.92 345.424,1316.71 347.884,1313.58C350.345,1310.44 353.125,1306.58 356.225,1301.99C359.325,1297.4 362.269,1292.32 365.055,1286.74C367.842,1281.16 370.209,1274.89 372.157,1267.95C374.105,1261 375.234,1253.75 375.542,1246.18C375.362,1236.07 374.387,1229.16 372.619,1225.45C370.851,1221.73 368.802,1220.96 366.472,1223.12C364.871,1224.6 363.435,1227.11 362.166,1230.64C360.897,1234.17 359.492,1238.37 357.951,1243.22C356.111,1247.92 353.242,1253.05 349.345,1258.59C345.447,1264.13 341.824,1268.45 338.475,1271.56C336.728,1273.18 334.903,1274.55 332.999,1275.67C331.095,1276.79 329.29,1277.29 327.586,1277.16C325.881,1277.02 324.42,1276.02 323.203,1274.15C321.986,1272.29 321.19,1269.17 320.816,1264.81L319.705,1252.35L319.642,1236.35C320.679,1228.1 322.282,1220.52 324.452,1213.58C326.623,1206.64 329.063,1200.31 331.773,1194.59C334.483,1188.86 337.277,1183.7 340.155,1179.11C343.033,1174.51 345.775,1170.58 348.38,1167.3C351.255,1162.5 353.377,1157 354.746,1150.8C356.116,1144.61 356.751,1138.77 356.654,1133.3C356.556,1127.82 355.808,1123.27 354.412,1119.64C353.015,1116.01 350.914,1114.42 348.11,1114.88C345.198,1117.58 341.762,1119.91 337.801,1121.87C333.839,1123.83 329.965,1124.43 326.177,1123.66C322.389,1122.88 319.157,1120.1 316.481,1115.3C313.805,1110.5 312.369,1102.63 312.174,1091.67C311.986,1081.14 312.347,1070.32 313.259,1059.19C314.17,1048.07 315.61,1037.53 317.578,1027.57C319.547,1017.61 322.053,1008.75 325.096,1001C328.14,993.258 331.628,987.562 335.559,983.917C338.325,981.352 340.945,980.957 343.419,982.732C345.893,984.506 348.263,986.698 350.53,989.307C352.797,991.916 354.985,994.276 357.095,996.388C359.205,998.501 361.206,998.679 363.099,996.924C365.574,994.629 367.573,990.528 369.095,984.62C370.618,978.711 371.315,972.177 371.187,965.015C371.067,958.275 370.15,952.488 368.435,947.654ZM649.642,1277.29L689.34,1195.09C693.184,1201.72 697.014,1207.88 700.832,1213.59L711.876,1230.09C718.566,1235.68 724.765,1237.67 730.473,1236.06C736.181,1234.45 740.766,1230.06 744.229,1222.89C747.444,1216.23 749.185,1208.25 749.451,1198.95C749.718,1189.65 747.99,1179.13 744.267,1167.39L720.134,1131.33L762.8,1042.98C766.136,1031.21 767.287,1020.8 766.254,1011.76C765.22,1002.72 762.795,995.348 758.977,989.642C755.159,983.936 750.644,981.376 745.431,981.962C740.218,982.548 734.456,986.944 728.146,995.15L686.964,1080.43C676.304,1063.61 665.922,1047.43 655.82,1031.89C645.718,1016.35 636.155,1001.4 627.13,987.03C659.981,964.7 692.764,942.268 725.479,919.734C758.194,897.2 790.976,874.768 823.827,852.438C828.432,848.738 831.847,844.582 834.073,839.973C838.772,830.242 840.778,820.012 840.09,809.283C839.402,798.555 837.149,790.338 833.332,784.632C830.332,780.149 826.659,777.304 822.311,776.097C817.964,774.891 813.092,775.986 807.695,779.384C768.185,806.753 728.984,833.482 690.092,859.57C651.201,885.658 612.013,912.847 572.528,941.136C570.004,944.418 568.123,947.339 566.887,949.9C557.488,969.363 558.033,989.137 568.522,1009.22C581.637,1029.71 595.699,1051.39 610.71,1074.26C625.721,1097.14 640.874,1120.45 656.17,1144.19L614.988,1229.47C610.118,1242.47 607.952,1254 608.491,1264.07C609.029,1274.13 611.208,1282.02 615.025,1287.72C619.389,1294.25 624.758,1296.98 631.135,1295.93C637.512,1294.88 643.681,1288.66 649.642,1277.29ZM691.778,2132.81C689.263,2132.55 916.171,1309.95 977.392,1094.37C991.072,1046.19 1034.14,889.555 1058.2,844.989C1087.27,791.135 1094.8,698.165 1205.92,779.852C1419.96,937.19 1835.21,1282.45 1835.21,1282.45C1835.21,1282.45 2075.96,1473.65 2217.94,1612.72C2278.55,1672.07 2265.13,1746.45 2127.69,1850.67C1896.9,2025.67 724.777,2761.96 724.777,2761.96C724.777,2761.96 544.454,2874.16 590.899,2608C651.865,2258.62 694.293,2133.06 691.778,2132.81ZM1359.05,1312.36L1333.18,1231.16C1341.02,1229.57 1348.52,1227.8 1355.69,1225.85L1376.42,1220.21C1385.85,1214.89 1392.33,1208.59 1395.85,1201.31C1399.37,1194.03 1400.01,1186.84 1397.75,1179.76C1395.65,1173.18 1391.42,1167.74 1385.04,1163.42C1378.66,1159.11 1369.78,1156.58 1358.42,1155.83L1313.11,1168.16L1285.31,1080.89C1279.69,1071.97 1273.25,1066.16 1265.99,1063.46C1258.73,1060.77 1251.52,1060.39 1244.36,1062.35C1237.19,1064.3 1231.68,1068.41 1227.84,1074.68C1224,1080.95 1222.41,1089.49 1223.07,1100.31L1249.91,1184.55C1229.27,1189.62 1209.31,1194.64 1190.04,1199.62C1170.76,1204.59 1152.34,1209.19 1134.77,1213.43C1145.78,1165.89 1156.65,1118.39 1167.4,1070.93C1178.15,1023.47 1189.02,975.965 1200.03,928.43C1201.16,921.522 1201.01,915.791 1199.56,911.238C1196.49,901.625 1190.88,894.906 1182.7,891.083C1174.53,887.26 1166.86,886.324 1159.7,888.276C1154.07,889.809 1149.05,892.825 1144.64,897.325C1140.23,901.824 1137.03,907.92 1135.03,915.613C1122.16,973.003 1109.09,1029.76 1095.81,1085.89C1082.54,1142.01 1069.8,1198.95 1057.61,1256.71C1057.87,1261.04 1058.41,1264.47 1059.21,1267C1065.34,1286.22 1079.81,1294.1 1102.63,1290.64C1127.87,1284.32 1154.74,1277.41 1183.23,1269.93C1211.72,1262.44 1240.64,1254.98 1269.98,1247.54L1296.81,1331.79C1302.06,1343.01 1308.47,1350.47 1316.05,1354.18C1323.63,1357.89 1331,1358.77 1338.16,1356.82C1346.36,1354.59 1352.68,1349.56 1357.15,1341.75C1361.61,1333.94 1362.25,1324.14 1359.05,1312.36ZM933.323,2223.33L962.894,2247.73L692.217,2575.72C683.533,2594.65 686.296,2609.98 700.509,2621.71C704.635,2625.12 710.593,2628.17 718.383,2630.87L790.542,2640.09C798.054,2640.33 804.673,2639.08 810.396,2636.35C816.119,2633.61 820.628,2630.25 823.922,2626.26C829.413,2619.61 831.856,2611.74 831.251,2602.67C830.646,2593.6 826.447,2585.84 818.653,2579.41C811.318,2573.36 802.611,2569.9 792.532,2569.04L1019.29,2294.27L1039.23,2310.73C1049.77,2319.43 1060.15,2322.96 1070.37,2321.33C1080.58,2319.69 1088.25,2315.77 1093.37,2309.56C1098.5,2303.35 1100.94,2295.49 1100.7,2285.97C1100.46,2276.45 1095.67,2267.09 1086.31,2257.88L980.408,2170.48C969.408,2165.13 959.603,2163 950.992,2164.1C942.381,2165.19 935.514,2168.85 930.389,2175.05C925.631,2180.82 923.21,2187.96 923.127,2196.46C923.044,2204.97 926.443,2213.92 933.323,2223.33ZM2061.06,1741.63C2060.48,1742.07 2057.19,1743.3 2051.19,1745.31C2045.2,1747.32 2039.58,1748.5 2034.33,1748.86C2014.9,1750.16 1998.88,1747.41 1986.28,1740.61C1973.68,1733.81 1963,1725.27 1954.25,1714.99C1945.5,1704.71 1937.75,1693.76 1931,1682.14C1924.25,1670.52 1916.79,1660.35 1908.6,1651.65C1899.01,1641.83 1887.99,1633.91 1875.53,1627.91C1863.08,1621.9 1849.42,1617.18 1834.53,1613.76C1819.65,1610.33 1804.11,1607.95 1787.9,1606.62C1771.69,1605.3 1755.03,1604.4 1737.93,1603.94C1715.08,1607.48 1701.53,1617.25 1697.28,1633.23L1677.62,1778.23C1675.8,1791.63 1678.52,1803.22 1685.78,1813C1693.03,1822.77 1703.23,1831.04 1716.36,1837.81C1717.3,1838.55 1719.27,1839.32 1722.29,1840.12C1725.3,1840.93 1729.69,1841.14 1735.47,1840.75C1744.39,1840.15 1752.44,1837.4 1759.61,1832.49C1766.78,1827.58 1770.86,1821.47 1771.85,1814.16C1772.12,1812.13 1772.18,1809.81 1772.01,1807.21C1771.84,1804.6 1771.11,1802.34 1769.81,1800.41C1768.98,1798.86 1766.17,1796.53 1761.39,1793.43C1756.61,1790.33 1753.75,1788.41 1752.81,1787.67C1751.93,1786.52 1750.73,1784.79 1749.22,1782.48C1747.72,1780.16 1747.29,1776.57 1747.95,1771.69L1763.65,1655.94C1786.42,1656.83 1804.77,1660.63 1818.68,1667.34C1832.6,1674.05 1844.11,1682.24 1853.2,1691.89C1862.3,1701.54 1870.36,1712.07 1877.4,1723.47C1884.44,1734.87 1892.58,1745.79 1901.83,1756.24C1911.08,1766.68 1922.7,1775.97 1936.68,1784.08C1950.67,1792.2 1969.43,1797.68 1992.98,1800.53C2000.17,1801.25 2007.17,1801.39 2014,1800.93C2035,1799.52 2054.75,1795.78 2073.26,1789.71C2091.78,1783.63 2108.03,1776 2122.02,1766.82C2136.01,1757.63 2147.32,1747.11 2155.95,1735.26C2164.59,1723.41 2169.78,1710.99 2171.54,1697.99C2173.09,1686.62 2172.22,1675.71 2168.96,1665.26C2165.69,1654.82 2160.81,1644.78 2154.31,1635.16C2147.82,1625.53 2140.05,1616.59 2131.03,1608.35C2122,1600.1 2112.76,1592.47 2103.31,1585.45C2095.93,1582.33 2088.04,1581.05 2079.64,1581.61C2070.19,1582.24 2062.15,1584.9 2055.54,1589.57C2048.92,1594.24 2045.14,1600.02 2044.21,1606.93C2043.33,1613.43 2045.12,1619.34 2049.6,1624.68C2064.75,1635.73 2077.5,1648.16 2087.86,1661.95C2098.22,1675.75 2102.18,1691.58 2099.76,1709.45C2097.94,1715.21 2093.5,1721.04 2086.46,1726.94C2079.41,1732.85 2070.95,1737.74 2061.06,1741.63Z"/>
</svg>
