<?xml version="1.0" encoding="UTF-8" standalone="no"?>
<svg
   xmlns:dc="http://purl.org/dc/elements/1.1/"
   xmlns:cc="http://creativecommons.org/ns#"
   xmlns:rdf="http://www.w3.org/1999/02/22-rdf-syntax-ns#"
   xmlns:svg="http://www.w3.org/2000/svg"
   xmlns="http://www.w3.org/2000/svg"
   xmlns:sodipodi="http://sodipodi.sourceforge.net/DTD/sodipodi-0.dtd"
   xmlns:inkscape="http://www.inkscape.org/namespaces/inkscape"
   width="210mm"
   height="297mm"
   viewBox="0 0 210 297"
   version="1.1"
   id="svg8"
   inkscape:version="1.0.2-2 (e86c870879, 2021-01-15)"
   sodipodi:docname="d6 filled numbered.svg">
  <defs
     id="defs2" />
  <sodipodi:namedview
     id="base"
     pagecolor="#ffffff"
     bordercolor="#666666"
     borderopacity="1.0"
     inkscape:pageopacity="0.0"
     inkscape:pageshadow="2"
     inkscape:zoom="11.2"
     inkscape:cx="383.35278"
     inkscape:cy="433.82512"
     inkscape:document-units="mm"
     inkscape:current-layer="layer1"
     inkscape:document-rotation="0"
     showgrid="false"
     inkscape:window-width="2560"
     inkscape:window-height="1377"
     inkscape:window-x="2552"
     inkscape:window-y="-8"
     inkscape:window-maximized="1" />
  <metadata
     id="metadata5">
    <rdf:RDF>
      <cc:Work
         rdf:about="">
        <dc:format>image/svg+xml</dc:format>
        <dc:type
           rdf:resource="http://purl.org/dc/dcmitype/StillImage" />
        <dc:title></dc:title>
      </cc:Work>
    </rdf:RDF>
  </metadata>
  <g
     inkscape:label="Layer 1"
     inkscape:groupmode="layer"
     id="layer1">
    <g
       style="clip-rule:evenodd;fill-rule:evenodd;stroke-linecap:round;stroke-linejoin:round;stroke-miterlimit:1.5"
       id="g866"
       transform="matrix(0.09363433,0,0,0.09363433,-6.3315432,-1.3142308)">
      <g
         transform="matrix(4.5136,0,0,4.5136,-4565.98,-5641.82)"
         id="g851">
        <path
   d="m 1477.98,1786.6 c 0,0 18.01,-47.5 24.82,-77.82 6.82,-30.34 11.48,-53.52 16.07,-104.18 4.59,-50.66 8.77,-131.79 8.77,-131.79 0,0 -4.38,-47.32 -62.3,-60.7 -57.93,-13.37 -206.64,-43.88 -206.64,-43.88 0,0 -69.07,-19.46 -104.77,48.45 -37.64,51.53 -89.79,126.85 -89.79,126.85 0,0 -21.4,31.05 -13.05,86.17 8.36,55.12 26.29,157.41 26.29,157.41 0,0 4.43,58.37 77.46,70.39 42.56,11.16 173.09,45.9 173.09,45.9 0,0 89.78,39.49 116.23,-26.6 26.46,-66.1 33.82,-90.2 33.82,-90.2 z"
   style="fill:none;stroke:#000000;stroke-width:9.23px"
   id="path849" />

    </g>
      <path
         d="m 353.181,2223.36 -83.765,-511.44 c 0,0 -37.666,-175.99 158.807,-140.34 196.473,35.65 1162.007,290.14 1162.007,290.14 0,0 223.09,29.63 221.3,282.1 -1.8,252.48 2.02,623.03 -19.04,675.56 -16.23,40.52 -50.64,133.53 -181.69,94.81 -131.04,-38.72 -1029.515,-282.1 -1029.515,-282.1 0,0 -150.133,-43.84 -183.916,-169.94 -33.782,-126.11 -44.188,-238.79 -44.188,-238.79 z m 738.609,-101.74 c 0.78,0.95 3.1,5.96 6.98,15.03 3.88,9.07 6.38,17.37 7.5,24.9 4.15,27.87 1.4,49.72 -8.25,65.56 -9.64,15.84 -22.29,28.44 -37.95,37.81 -15.67,9.37 -32.51,17.12 -50.55,23.26 -18.036,6.14 -33.647,13.73 -46.832,22.75 -14.832,10.7 -26.437,23.97 -34.815,39.83 -8.378,15.85 -14.549,33.81 -18.513,53.86 -3.963,20.05 -6.162,41.34 -6.596,63.89 -0.435,22.54 -0.124,45.84 0.932,69.91 8.127,33.37 25.304,55.4 51.532,66.09 l 235.982,70.33 c 21.82,6.5 40.22,6.05 55.23,-1.35 15.01,-7.41 27.27,-19.4 36.81,-36 1.1,-1.11 2.13,-3.68 3.11,-7.7 0.98,-4.03 0.86,-10.19 -0.38,-18.47 -1.9,-12.8 -7.19,-25 -15.86,-36.58 -8.68,-11.58 -18.96,-19.14 -30.86,-22.69 -3.31,-0.98 -7.05,-1.74 -11.24,-2.27 -4.18,-0.52 -7.76,-0.15 -10.73,1.13 -2.42,0.71 -5.87,4 -10.37,9.86 -4.5,5.85 -7.3,9.34 -8.39,10.45 -1.76,0.92 -4.43,2.1 -8,3.56 -3.58,1.45 -9.33,0.99 -17.26,-1.37 l -188.392,-56.14 c -0.967,-31.96 3.231,-56.8 12.595,-74.52 9.367,-17.72 21.357,-31.6 35.967,-41.64 14.61,-10.04 30.74,-18.37 48.39,-24.98 17.65,-6.62 34.42,-14.94 50.3,-24.96 15.88,-10.02 29.63,-23.74 41.25,-41.14 11.62,-17.41 18.49,-42.36 20.6,-74.83 0.41,-9.96 -0.11,-19.83 -1.57,-29.62 -4.48,-30.13 -12.59,-59.17 -24.34,-87.14 -11.74,-27.97 -25.76,-53.2 -42.06,-75.69 -16.3,-22.49 -34.46,-41.58 -54.48,-57.26 -20.02,-15.69 -40.61,-26.68 -61.77,-32.98 -18.503,-5.52 -36.012,-7.5 -52.519,-5.94 -16.508,1.56 -32.184,5.52 -47.027,11.89 -14.844,6.38 -28.444,14.74 -40.8,25.09 -12.356,10.35 -23.692,21.19 -34.009,32.51 -4.267,9.52 -5.504,20.31 -3.71,32.36 2.018,13.56 7.143,25.7 15.373,36.43 8.23,10.73 17.964,17.77 29.201,21.12 10.576,3.15 19.931,2.34 28.064,-2.44 16.242,-18.19 34.944,-32.58 56.106,-43.19 21.162,-10.61 46.281,-11.58 75.371,-2.91 9.48,4.26 19.35,12.24 29.62,23.94 10.27,11.7 19.06,25.11 26.36,40.25 z m 759.32,546.6 c 0.49,-16.59 24.39,-693.58 24.39,-693.58 0,0 17.64,-126.21 110.79,-341.5 93.16,-215.29 202.64,-502.64 202.64,-502.64 0,0 80.57,-222.21 41.5,138.74 -39.08,360.94 -25.13,361.74 -47.61,561.87 -17.12,152.36 -45.9,259.58 -95.19,409.21 -29.09,88.32 -121.92,333.64 -148.22,395.87 -12.18,28.85 -95.8,282.41 -88.3,32.03 z m 231.61,-557.56 -1.56,-116.42 c 2.87,-4.37 5.64,-8.93 8.31,-13.68 l 7.72,-13.76 c 3.76,-10.42 6.59,-21.58 8.47,-33.49 1.89,-11.9 2.77,-22.93 2.64,-33.09 -0.13,-9.43 -1.1,-16.6 -2.92,-21.53 -1.83,-4.92 -4.68,-6.52 -8.56,-4.81 l -16.86,30.06 -1.67,-125.12 c -1.13,-12.09 -2.84,-19.26 -5.11,-21.52 -2.28,-2.26 -4.75,-1.01 -7.42,3.74 -2.66,4.76 -4.95,12.36 -6.86,22.82 -1.91,10.46 -3.24,23.79 -4,39.99 l 1.61,120.77 c -7.64,12.86 -15.03,25.48 -22.18,37.85 -7.15,12.37 -13.97,23.97 -20.46,34.79 8.18,-74.71 16.3,-149.34 24.38,-223.89 8.08,-74.54 16.2,-149.17 24.37,-223.88 1.03,-10.74 1.5,-19.38 1.41,-25.91 -0.18,-13.78 -1.52,-22.54 -4,-26.27 -2.49,-3.73 -5.07,-3.22 -7.74,1.53 -2.09,3.74 -4.11,9.56 -6.06,17.48 -1.94,7.92 -3.61,17.95 -5.01,30.1 -9.72,90.1 -19.46,179.29 -29.21,267.58 -9.74,88.29 -19.38,177.67 -28.9,268.16 -0.31,6.48 -0.44,11.54 -0.39,15.16 0.37,27.56 4.68,35.86 12.92,24.88 9.35,-15.91 19.31,-33.11 29.89,-51.6 10.58,-18.48 21.31,-37.04 32.18,-55.68 l 1.61,120.77 c 0.8,15.67 2.34,25.35 4.63,29.07 2.29,3.71 4.78,3.18 7.44,-1.57 3.05,-5.43 5.71,-14.63 7.98,-27.57 2.26,-12.95 3.38,-27.94 3.35,-44.96 z M 404.249,1266.97 768.321,722.431 c 0,0 72.276,-139.638 279.949,-96.556 207.68,43.082 820.71,157.838 820.71,157.838 0,0 409.93,11.579 294.42,272.647 -115.51,261.07 -258.96,598.44 -258.96,598.44 0,0 -68.04,195.42 -338.18,127.01 -270.14,-68.42 -959.016,-210.61 -959.016,-210.61 0,0 -183.378,-38.31 -204.91,-51.35 -21.531,-13.05 -135.321,-68.06 1.915,-252.88 z M 1473.58,950.939 c 15.3,-7.718 26.1,-17.325 32.42,-28.821 5.93,-10.819 6.98,-21.26 3.15,-31.323 -3.84,-10.062 -11.52,-17.002 -23.05,-20.818 -12.24,-4.056 -26.53,-3.596 -42.88,1.378 -42.17,14.802 -84.66,33.294 -127.48,55.474 -42.82,22.181 -83.41,47.294 -121.79,75.341 -38.37,28.05 -73.07,58.31 -104.09,90.79 -31.03,32.48 -56,65.96 -74.93,100.45 -6.69,12.17 -12.1,24.37 -16.252,36.58 -4.937,16.74 -8.744,30.27 -11.42,40.57 -2.676,10.3 -4.441,20.1 -5.295,29.41 -0.853,9.31 -0.627,18.97 0.68,29 1.307,10.02 3.475,23.13 6.504,39.31 5.732,29.87 20.743,56.02 45.023,78.45 24.29,22.43 53.36,39.25 87.2,50.46 30.25,10.02 60.03,14.69 89.34,14.01 29.31,-0.68 57.52,-6.32 84.62,-16.92 27.09,-10.61 52.19,-26.47 75.27,-47.6 23.09,-21.12 42.98,-46.9 59.69,-77.33 15.59,-28.4 24.55,-55.2 26.89,-80.39 2.35,-25.2 -0.95,-48.27 -9.88,-69.21 -8.93,-20.94 -22.97,-39.17 -42.1,-54.7 -19.14,-15.53 -42.39,-27.83 -69.76,-36.9 -46.09,-15.26 -96.52,-17.18 -151.31,-5.76 40.69,-38.47 86.84,-72.53 138.44,-102.19 51.6,-29.661 101.94,-52.747 151.01,-69.261 z m -358.557,283.1874 c 29.54,-16.59 57.467,-22.6864 88.827,-27.8864 31.36,-5.19 60.73,-3.26 88.1,5.81 12.24,4.05 23.19,9.68 32.86,16.87 9.67,7.2 17.32,16.13 22.96,26.79 5.64,10.66 7.9,23.2 6.8,37.62 -1.11,14.41 -6.67,30.75 -16.7,49.01 -3.34,6.09 -8.98,14.81 -16.91,26.16 -7.94,11.36 -18.76,21.76 -32.45,31.21 -13.7,9.45 -30.62,16.23 -50.75,20.35 -20.14,4.12 -44.25,1.53 -72.33,-7.77 -22.33,-7.4 -40.88,-19.73 -55.65,-37.01 -14.77,-17.28 -24.43,-44.26 -28.98,-80.93 0.9771,-6.3989 -0.063,-9.8466 4.41,-24.31 3.236,-8.5485 10.42,-19.0431 16.38,-26.35 4.1346,-3.713 9.793,-7.5736 13.433,-9.5636 z"
         id="path853"
         sodipodi:nodetypes="ccsccccccccscccccccccccccccccccccccccscsccccsccscsccsccscsccccccccccccccccccccccsccscccccccccccccccccccccccccccccccccccccccscccccsccccscccccccccsccccccscccc" />
    </g>
  </g>
</svg>
