<?xml version="1.0" encoding="UTF-8" standalone="no"?>
<!DOCTYPE svg PUBLIC "-//W3C//DTD SVG 1.1//EN" "http://www.w3.org/Graphics/SVG/1.1/DTD/svg11.dtd">
<svg width="100%" height="100%" viewBox="0 0 2481 3508" version="1.1" xmlns="http://www.w3.org/2000/svg" xmlns:xlink="http://www.w3.org/1999/xlink" xml:space="preserve" xmlns:serif="http://www.serif.com/" style="fill-rule:evenodd;clip-rule:evenodd;stroke-linecap:round;stroke-linejoin:round;stroke-miterlimit:1.5;">
    <g transform="matrix(3.65027,0,0,3.65027,-2469.5,-4177.01)">
        <path d="M792.33,1637.63L983.127,1430.92L884.708,1610.5L792.33,1637.63Z" style="stroke:black;stroke-width:1.14px;"/>
    </g>
    <g transform="matrix(-3.65027,0,0,3.65027,5038.88,-4181.99)">
        <path d="M792.33,1637.63L983.127,1430.92L881.378,1612.93L792.33,1637.63Z" style="stroke:black;stroke-width:1.14px;"/>
    </g>
    <g transform="matrix(3.65027,0,0,3.65027,-2469.5,-4177.01)">
        <path d="M909.079,1617.77L1027.51,1387.81L1149.14,1616.73L1030.77,1673.07L909.079,1617.77Z" style="stroke:black;stroke-width:1.14px;"/>
    </g>
    <g transform="matrix(3.65027,0,0,3.65027,-2469.5,-4177.01)">
        <path d="M779.158,1667.19L1015.77,1889.54L1014.94,1691.68L890.906,1633.19L779.158,1667.19Z" style="stroke:black;stroke-width:1.14px;"/>
    </g>
    <g transform="matrix(-3.65027,0,0,3.65027,5052.65,-4176.34)">
        <path d="M779.158,1667.19L1015.77,1889.54L1014.94,1691.68L890.906,1633.19L779.158,1667.19Z" style="stroke:black;stroke-width:1.14px;"/>
    </g>
</svg>
