<?xml version="1.0" encoding="UTF-8" standalone="no"?>
<!DOCTYPE svg PUBLIC "-//W3C//DTD SVG 1.1//EN" "http://www.w3.org/Graphics/SVG/1.1/DTD/svg11.dtd">
<svg width="100%" height="100%" viewBox="0 0 2481 3508" version="1.1" xmlns="http://www.w3.org/2000/svg" xmlns:xlink="http://www.w3.org/1999/xlink" xml:space="preserve" xmlns:serif="http://www.serif.com/" style="fill-rule:evenodd;clip-rule:evenodd;stroke-linecap:round;stroke-linejoin:round;stroke-miterlimit:1.5;">
    <g transform="matrix(4.55175,0,0,4.55175,-2613.96,-5428.61)">
        <path d="M716.4,1535.38L858.418,1433.65L999.231,1537.3L947.074,1704.86L767.224,1705.45L716.4,1535.38Z" style="stroke:black;stroke-width:1.83px;"/>
    </g>
    <g transform="matrix(4.55175,0,0,4.55175,-2613.96,-5428.61)">
        <path d="M642.703,1500.91L723.753,1393.21L846.748,1351.15L846.347,1415.04L702.599,1522.31L642.703,1500.91Z" style="stroke:black;stroke-width:1.83px;"/>
    </g>
    <g transform="matrix(4.55175,0,0,4.55175,-2613.96,-5428.61)">
        <path d="M635.851,1522.36L635.5,1655.84L717.157,1761.06L748.892,1713.37L699.04,1541.91L635.851,1522.36Z" style="stroke:black;stroke-width:1.83px;"/>
    </g>
    <g transform="matrix(-4.55175,0,0,4.55175,5200.85,-5428.27)">
        <path d="M635.851,1522.36L635.5,1655.84L715.595,1759.05L748.892,1713.37L696.568,1543.09L635.851,1522.36Z" style="stroke:black;stroke-width:1.83px;"/>
    </g>
    <g transform="matrix(4.55175,0,0,4.55175,-2613.96,-5428.61)">
        <path d="M732.104,1775.86L767.878,1726.06L946.991,1726.96L988.68,1774.42L858.915,1820.13L732.104,1775.86Z" style="stroke:black;stroke-width:1.83px;"/>
    </g>
    <g transform="matrix(-4.55494,0,0,4.59754,5198.95,-5493.87)">
        <path d="M642.703,1500.91L723.753,1393.21L847.701,1353.21L847.672,1415.04L702.599,1522.31L642.703,1500.91Z" style="stroke:black;stroke-width:1.82px;"/>
    </g>
</svg>
