<?xml version="1.0" encoding="UTF-8" standalone="no"?>
<!DOCTYPE svg PUBLIC "-//W3C//DTD SVG 1.1//EN" "http://www.w3.org/Graphics/SVG/1.1/DTD/svg11.dtd">
<svg width="100%" height="100%" viewBox="0 0 2481 3508" version="1.1" xmlns="http://www.w3.org/2000/svg" xmlns:xlink="http://www.w3.org/1999/xlink" xml:space="preserve" xmlns:serif="http://www.serif.com/" style="fill-rule:evenodd;clip-rule:evenodd;stroke-linecap:round;stroke-linejoin:round;stroke-miterlimit:1.5;">
    <g transform="matrix(3.69422,0,0,3.69422,-2096.94,-3006.5)">
        <path d="M687.471,1131.15L744.094,1329.96L880.833,1082.59L687.471,1131.15Z" style="stroke:black;stroke-width:0.27px;"/>
    </g>
    <g transform="matrix(3.69422,0,0,3.69422,-2096.94,-3006.5)">
        <path d="M745.802,1095.43L890.337,1007.49L890.702,1059.46L745.802,1095.43Z" style="stroke:black;stroke-width:0.27px;"/>
    </g>
    <g transform="matrix(3.69422,0,0,3.69422,-2096.94,-3006.5)">
        <path d="M914.533,1058.55L913.476,1008.24L1062.83,1096.18L914.533,1058.55Z" style="stroke:black;stroke-width:0.27px;"/>
    </g>
    <g transform="matrix(3.69422,0,0,3.69422,-2096.94,-3006.5)">
        <path d="M759.127,1351.48L903.328,1091.91L1047.31,1349.84L759.127,1351.48Z" style="stroke:black;stroke-width:0.27px;"/>
    </g>
    <g transform="matrix(3.69422,0,0,3.69422,-2096.94,-3006.5)">
        <path d="M925.099,1083.34L1062.83,1329.96L1122.05,1130.49L925.099,1083.34Z" style="stroke:black;stroke-width:0.27px;"/>
    </g>
    <g transform="matrix(3.69422,0,0,3.69422,-2096.94,-3006.5)">
        <path d="M1079.86,1355.98L1128.1,1381.21L1127.81,1196.36L1079.86,1355.98Z" style="stroke:black;stroke-width:0.27px;"/>
    </g>
    <g transform="matrix(3.69422,0,0,3.69422,-2096.94,-3006.5)">
        <path d="M1116.48,1401.49L1069.26,1373.73L964.317,1487.29L1116.48,1401.49Z" style="stroke:black;stroke-width:0.27px;"/>
    </g>
    <g transform="matrix(3.69422,0,0,3.69422,-2096.94,-3006.5)">
        <path d="M766.736,1370.91L903.943,1516.33L1044.36,1369.86L766.736,1370.91Z" style="stroke:black;stroke-width:0.27px;"/>
    </g>
    <g transform="matrix(3.69422,0,0,3.69422,-2096.94,-3006.5)">
        <path d="M683.097,1381.21L683.315,1197.72L729.505,1354.93L683.097,1381.21Z" style="stroke:black;stroke-width:0.27px;"/>
    </g>
    <g transform="matrix(3.69422,0,0,3.69422,-2096.94,-3006.5)">
        <path d="M691.508,1399.06L848.212,1487L739.883,1372.55L691.508,1399.06Z" style="stroke:black;stroke-width:0.27px;"/>
    </g>
</svg>
