<?xml version="1.0" encoding="UTF-8" standalone="no"?>
<!DOCTYPE svg PUBLIC "-//W3C//DTD SVG 1.1//EN" "http://www.w3.org/Graphics/SVG/1.1/DTD/svg11.dtd">
<svg width="100%" height="100%" viewBox="0 0 2481 3508" version="1.1" xmlns="http://www.w3.org/2000/svg" xmlns:xlink="http://www.w3.org/1999/xlink" xml:space="preserve" xmlns:serif="http://www.serif.com/" style="fill-rule:evenodd;clip-rule:evenodd;stroke-linecap:round;stroke-linejoin:round;stroke-miterlimit:1.5;">
    <g transform="matrix(4.11526,0,0,4.11526,-3559.91,-2605.31)">
        <path d="M985.375,960.902L1090.05,821.565C1090.05,821.565 1111.32,780.913 1150.34,798.685C1189.37,816.456 1241.2,850.616 1241.2,850.616L1358.32,915.888C1358.32,915.888 1393.64,942.517 1406.2,961.734C1418.77,980.951 1433.11,1002.6 1433.11,1002.6C1433.11,1002.6 1453.17,1027.43 1423.43,1067.99C1393.69,1108.55 1274.51,1259.45 1274.51,1259.45L1250.33,1290.81C1250.33,1290.81 1229.72,1315.55 1179.25,1291.31C1128.77,1267.06 1003.43,1209.77 1003.43,1209.77L964.201,1190.63C964.201,1190.63 937.103,1178.54 928.763,1150.97C920.424,1123.4 912.179,1100.91 912.179,1100.91C912.179,1100.91 900.115,1081.66 919.671,1051.38C939.228,1021.1 985.375,960.902 985.375,960.902Z" style="fill:none;stroke:black;stroke-width:10.12px;"/>
    </g>
    <g transform="matrix(4.11526,0,0,4.11526,-3559.91,-2605.31)">
        <path d="M935.011,1112.07C932.694,1105.9 929.896,1098.64 929.101,1092.2C927.903,1082.5 925.877,1073.17 941.203,1053.77C956.529,1034.36 1006.94,966.085 1006.94,966.085L1098.58,841.772C1098.58,841.772 1119.92,806.333 1106.75,857.581C1093.58,908.83 1061.65,1054.07 1061.65,1054.07C1061.65,1054.07 1042.83,1118.54 1015.81,1133.75C988.776,1148.95 979.23,1154.22 967.973,1156.28C960.703,1157.61 953.438,1155.82 948.266,1146.11C943.095,1136.4 938.35,1120.97 935.011,1112.07Z" style="fill:none;stroke:black;stroke-width:5.06px;"/>
    </g>
    <g transform="matrix(4.11526,0,0,4.11526,-3559.91,-2605.31)">
        <path d="M1071.98,1052.85C1071.98,1052.85 1104.59,877.947 1119.15,842.288C1124.24,829.842 1132.09,819.285 1142.92,827.245C1183.08,856.755 1360.13,1019.35 1360.13,1019.35C1360.13,1019.35 1371.97,1029.09 1358.75,1043.38C1345.53,1057.68 1257.79,1127.59 1257.79,1127.59C1257.79,1127.59 1242.79,1140.56 1216.97,1139.65C1191.14,1138.75 1101.37,1128.88 1101.37,1128.88C1101.37,1128.88 1057.67,1123.79 1063.45,1094.62C1069.23,1065.45 1071.98,1052.85 1071.98,1052.85Z" style="fill:none;stroke:black;stroke-width:5.06px;"/>
    </g>
    <g transform="matrix(4.11526,0,0,4.11526,-3559.91,-2605.31)">
        <path d="M982.653,1181.09C982.702,1181.35 956.827,1171.41 988.551,1157.18C1014.87,1145.37 1015.59,1144.62 1030.13,1142.44C1050.7,1139.35 1086.04,1134.92 1111.95,1138.65C1137.86,1142.38 1188.02,1146.05 1207.83,1153.91C1221.66,1159.4 1231.89,1161.06 1231.52,1184.02C1231.15,1206.98 1226.5,1269.17 1226.5,1269.17C1226.5,1269.17 1223.27,1291.28 1199.2,1280.48C1175.14,1269.68 1096.72,1234.84 1096.72,1234.84C1096.72,1234.84 982.603,1180.83 982.653,1181.09Z" style="fill:none;stroke:black;stroke-width:5.06px;"/>
    </g>
    <g transform="matrix(4.11526,0,0,4.11526,-3559.91,-2605.31)">
        <path d="M1237.41,1238.37C1237.41,1238.37 1243.92,1182.38 1247.85,1171.36C1251.78,1160.34 1254.02,1151.55 1270.94,1135.47C1287.87,1119.39 1338.59,1075.67 1338.59,1075.67C1338.59,1075.67 1371.15,1044.11 1385.46,1039.99C1399.77,1035.87 1428.03,1029.74 1415.12,1046.59C1402.2,1063.44 1244.14,1268.82 1244.14,1268.82C1244.14,1268.82 1227.09,1288.01 1237.41,1238.37Z" style="fill:none;stroke:black;stroke-width:5.06px;"/>
    </g>
    <g transform="matrix(4.11526,0,0,4.11526,-3559.91,-2605.31)">
        <path d="M1342.86,988.191L1175.1,841.092C1175.1,841.092 1155.8,822.075 1192.89,844.6C1229.98,867.125 1325.36,917.07 1325.36,917.07C1325.36,917.07 1371.18,938.107 1389.71,971.312C1408.24,1004.52 1417.46,1014.43 1417.46,1014.43C1417.46,1014.43 1424.7,1027.98 1407.05,1025.84C1389.38,1023.69 1369.64,1013.4 1342.86,988.191Z" style="fill:none;stroke:black;stroke-width:5.06px;"/>
    </g>
</svg>
