<?xml version="1.0" encoding="UTF-8" standalone="no"?>
<!DOCTYPE svg PUBLIC "-//W3C//DTD SVG 1.1//EN" "http://www.w3.org/Graphics/SVG/1.1/DTD/svg11.dtd">
<svg width="100%" height="100%" viewBox="0 0 2481 3508" version="1.1" xmlns="http://www.w3.org/2000/svg" xmlns:xlink="http://www.w3.org/1999/xlink" xml:space="preserve" xmlns:serif="http://www.serif.com/" style="fill-rule:evenodd;clip-rule:evenodd;stroke-linecap:round;stroke-linejoin:round;stroke-miterlimit:1.5;">
    <g transform="matrix(4.73553,0,0,4.73553,-4896.11,-3958.44)">
        <path d="M1199.76,1057.67C1205.35,1037.42 1207.26,1014.48 1250.96,1008.92C1304.74,1002.08 1330,1002.22 1330,1002.22C1330,1002.22 1370.45,991.727 1393.77,1025.62C1403.98,1040.47 1418.58,1055.7 1427.56,1067.81C1430.62,1071.93 1447.99,1083.82 1421.65,1104.73C1400.56,1121.49 1385.42,1138.14 1365,1147.21C1343.12,1156.94 1331.27,1165.64 1284.64,1148.04C1238.02,1130.43 1213.83,1124.69 1207.77,1121.46C1202.31,1118.56 1190.96,1120.73 1192.92,1094.89C1194.53,1073.59 1193.23,1081.29 1199.76,1057.67Z" style="fill:none;stroke:black;stroke-width:4.4px;"/>
    </g>
    <g transform="matrix(4.73553,0,0,4.73553,-4896.11,-3958.44)">
        <path d="M1347.5,1280.1L1346.74,1215.15C1346.74,1215.15 1340.32,1180.02 1378.19,1153.08C1396.63,1139.97 1419.73,1114.72 1434.58,1109.37C1454.19,1102.3 1460.24,1117.97 1469.32,1127.32C1480.88,1139.21 1503.92,1180.74 1503.92,1180.74C1503.92,1180.74 1522.71,1210.56 1504.24,1251.62C1488.92,1285.66 1471.69,1325.35 1466.54,1336.24C1454.4,1361.89 1443.35,1355.12 1403.81,1352.13C1383.95,1350.63 1353.63,1347.57 1348,1321.16C1347,1295.39 1347.5,1280.1 1347.5,1280.1Z" style="fill:none;stroke:black;stroke-width:4.4px;"/>
    </g>
    <g transform="matrix(4.73553,0,0,4.73553,-4896.11,-3958.44)">
        <path d="M1257.59,1153.31L1306.11,1169.58C1306.11,1169.58 1335.18,1178.42 1334.99,1216.01C1334.79,1253.59 1336.07,1316.27 1336.07,1316.27C1336.07,1316.27 1334.53,1348.69 1292.56,1359.85C1250.6,1371 1224.38,1385.49 1217.28,1385.38C1205.78,1385.21 1194.04,1378.12 1186.83,1369.16C1180.23,1360.96 1104.63,1257.98 1104.63,1257.98C1104.63,1257.98 1090.91,1238.88 1104.48,1224.17C1117.47,1206.81 1159.84,1154.92 1159.84,1154.92C1159.84,1154.92 1177.57,1124.13 1212.4,1137.35C1247.24,1150.57 1257.59,1153.31 1257.59,1153.31Z" style="fill:none;stroke:black;stroke-width:4.4px;"/>
    </g>
    <g transform="matrix(4.73553,0,0,4.73553,-4896.11,-3958.44)">
        <path d="M1088.31,1195.83L1124.61,1113.21C1124.61,1113.21 1134.47,1085.45 1152.95,1066.48C1171.42,1047.51 1184.02,1038.1 1184.02,1038.1C1184.02,1038.1 1200.93,1019.82 1192.62,1045.99C1184.31,1072.17 1181.11,1103.1 1175.87,1110.98C1170.85,1118.54 1149.72,1151.52 1132.23,1171.84C1114.74,1192.16 1096.13,1219.05 1096.13,1219.05C1096.13,1219.05 1079.9,1227.11 1088.31,1195.83Z" style="fill:none;stroke:black;stroke-width:4.4px;"/>
    </g>
    <g transform="matrix(4.73553,0,0,4.73553,-4896.11,-3958.44)">
        <path d="M1234.58,1389.54C1234.58,1389.54 1291.86,1366.9 1335.66,1363.2C1379.47,1359.5 1409.48,1361.38 1409.48,1361.38C1409.48,1361.38 1458.53,1358.55 1422.05,1379.6C1385.58,1400.65 1374.92,1407.08 1363.79,1408.96C1352.67,1410.85 1261.48,1415.53 1261.48,1415.53C1261.48,1415.53 1233.92,1419.23 1220.76,1405.77C1212.34,1397.59 1211.51,1396.5 1234.58,1389.54Z" style="fill:none;stroke:black;stroke-width:4.4px;"/>
    </g>
    <g transform="matrix(4.73553,0,0,4.73553,-4896.11,-3958.44)">
        <path d="M1240.29,993.854C1281.98,987.588 1351.31,984.361 1360.25,985.464C1371.42,986.845 1375.35,978.379 1414.79,1023.31C1454.23,1068.24 1489.61,1125.78 1489.61,1125.78L1522.58,1183.08C1522.58,1183.08 1544.84,1209.23 1511.99,1274.35C1479.14,1339.48 1475.83,1367.08 1445.56,1384.08C1415.28,1401.08 1389.31,1423.69 1340.76,1425.16C1292.21,1426.62 1245.75,1430.55 1245.75,1430.55C1245.75,1430.55 1204.87,1438.38 1156.15,1357.5C1102.62,1279.48 1055.9,1243.84 1072.47,1194.46C1089.04,1145.08 1095.31,1127.07 1111.09,1099.74C1126.87,1072.41 1152.86,1041.87 1178.7,1020.5C1201.7,1001.48 1214.1,997.791 1240.29,993.854Z" style="fill:none;stroke:black;stroke-width:8.8px;"/>
    </g>
</svg>
