<?xml version="1.0" encoding="UTF-8" standalone="no"?>
<!DOCTYPE svg PUBLIC "-//W3C//DTD SVG 1.1//EN" "http://www.w3.org/Graphics/SVG/1.1/DTD/svg11.dtd">
<svg width="100%" height="100%" viewBox="0 0 2481 3508" version="1.1" xmlns="http://www.w3.org/2000/svg" xmlns:xlink="http://www.w3.org/1999/xlink" xml:space="preserve" xmlns:serif="http://www.serif.com/" style="fill-rule:evenodd;clip-rule:evenodd;stroke-linecap:round;stroke-linejoin:round;stroke-miterlimit:1.5;">
    <g transform="matrix(4.05761,0,0,4.05761,-3397.86,-4912.41)">
        <path d="M916.595,1799.93C905.887,1734.26 889.456,1540.6 885.084,1512.62C884.766,1510.58 864.918,1423.71 921.753,1407.76C986.168,1389.67 1013.75,1375.81 1042.98,1367.05C1060.68,1361.74 1080.95,1351.86 1097.14,1355.19C1127.63,1361.46 1135.82,1375.49 1158.86,1391.97C1181.9,1408.45 1294.27,1503.06 1294.27,1503.06L1398.09,1590.71C1398.09,1590.71 1449.04,1635.11 1381.97,1680.47C1324.91,1719.05 1093.82,1869.52 1024.34,1914.36C1012.14,1922.23 999.348,1929.25 999.348,1929.25C999.348,1929.25 938.337,1957.27 928.771,1895.79C919.644,1837.13 921.485,1829.92 916.595,1799.93Z" style="fill:none;stroke:black;stroke-width:10.27px;"/>
    </g>
    <g transform="matrix(4.05761,0,0,4.05761,-3397.86,-4912.41)">
        <path d="M917.833,1642.22L899.298,1490.73C899.298,1490.73 895.78,1450.61 915.12,1437.07C934.46,1423.53 957.598,1416.28 976.819,1409C989.785,1404.09 1090.3,1350.6 1069.98,1429.1C1049.67,1507.61 961.467,1874.72 961.467,1874.72C961.467,1874.72 951.483,1924.06 942.682,1847.5C933.881,1770.93 917.833,1642.22 917.833,1642.22Z" style="fill:none;stroke:black;stroke-width:5.13px;"/>
    </g>
    <g transform="matrix(4.05761,0,0,4.05761,-3397.86,-4912.41)">
        <path d="M1007.89,1736.3C1007.27,1736.24 1067.39,1504.07 1082.47,1450.94C1085.85,1439.07 1091.42,1423.15 1099.78,1413.89C1107.51,1405.34 1117.87,1393.5 1143.78,1415.5C1196.22,1460.01 1291.62,1535.61 1291.62,1535.61C1291.62,1535.61 1349.03,1573.85 1384.02,1608.12C1398.96,1622.75 1395.65,1641.08 1361.78,1666.77C1304.9,1709.9 1016.03,1891.35 1016.03,1891.35C1016.03,1891.35 954.086,1946.53 975.727,1861.85C997.369,1777.17 1008.51,1736.36 1007.89,1736.3Z" style="fill:none;stroke:black;stroke-width:5.13px;"/>
    </g>
</svg>
