<?xml version="1.0" encoding="UTF-8" standalone="no"?>
<!DOCTYPE svg PUBLIC "-//W3C//DTD SVG 1.1//EN" "http://www.w3.org/Graphics/SVG/1.1/DTD/svg11.dtd">
<svg width="100%" height="100%" viewBox="0 0 2481 3508" version="1.1" xmlns="http://www.w3.org/2000/svg" xmlns:xlink="http://www.w3.org/1999/xlink" xml:space="preserve" xmlns:serif="http://www.serif.com/" style="fill-rule:evenodd;clip-rule:evenodd;stroke-linecap:round;stroke-linejoin:round;stroke-miterlimit:1.5;">
    <g transform="matrix(4.5136,0,0,4.5136,-4565.98,-5641.82)">
        <path d="M1477.98,1786.6C1477.98,1786.6 1495.99,1739.1 1502.8,1708.78C1509.62,1678.44 1514.28,1655.26 1518.87,1604.6C1523.46,1553.94 1527.64,1472.81 1527.64,1472.81C1527.64,1472.81 1523.26,1425.49 1465.34,1412.11C1407.41,1398.74 1258.7,1368.23 1258.7,1368.23C1258.7,1368.23 1189.63,1348.77 1153.93,1416.68C1116.29,1468.21 1064.14,1543.53 1064.14,1543.53C1064.14,1543.53 1042.74,1574.58 1051.09,1629.7C1059.45,1684.82 1077.38,1787.11 1077.38,1787.11C1077.38,1787.11 1081.81,1845.48 1154.84,1857.5C1197.4,1868.66 1327.93,1903.4 1327.93,1903.4C1327.93,1903.4 1417.71,1942.89 1444.16,1876.8C1470.62,1810.7 1477.98,1786.6 1477.98,1786.6Z" style="fill:none;stroke:black;stroke-width:9.23px;"/>
    </g>
    <g transform="matrix(4.5136,0,0,4.5136,-4565.98,-5641.82)">
        <path d="M1089.85,1742.55L1071.29,1629.24C1071.29,1629.24 1062.95,1590.25 1106.48,1598.15C1150.01,1606.05 1363.92,1662.43 1363.92,1662.43C1363.92,1662.43 1413.35,1668.99 1412.95,1724.93C1412.55,1780.87 1413.4,1862.96 1408.74,1874.6C1405.14,1883.58 1397.51,1904.18 1368.48,1895.61C1339.45,1887.03 1140.39,1833.11 1140.39,1833.11C1140.39,1833.11 1107.13,1823.39 1099.64,1795.45C1092.16,1767.52 1089.85,1742.55 1089.85,1742.55Z" style="fill:none;stroke:black;stroke-width:4.62px;"/>
    </g>
    <g transform="matrix(4.5136,0,0,4.5136,-4565.98,-5641.82)">
        <path d="M1101.17,1530.66L1181.83,1410.02C1181.83,1410.02 1197.84,1379.08 1243.85,1388.62C1289.86,1398.17 1425.68,1423.59 1425.68,1423.59C1425.68,1423.59 1516.5,1426.16 1490.91,1484C1465.32,1541.84 1433.54,1616.59 1433.54,1616.59C1433.54,1616.59 1418.46,1659.88 1358.61,1644.72C1298.76,1629.57 1146.14,1598.06 1146.14,1598.06C1146.14,1598.06 1105.51,1589.58 1100.74,1586.69C1095.97,1583.8 1070.76,1571.61 1101.17,1530.66Z" style="fill:none;stroke:black;stroke-width:4.62px;"/>
    </g>
    <g transform="matrix(4.5136,0,0,4.5136,-4565.98,-5641.82)">
        <path d="M1421.72,1841.11C1421.83,1837.43 1427.13,1687.45 1427.13,1687.45C1427.13,1687.45 1431.03,1659.49 1451.67,1611.79C1472.31,1564.09 1496.57,1500.43 1496.57,1500.43C1496.57,1500.43 1514.42,1451.19 1505.76,1531.16C1497.1,1611.13 1500.19,1611.31 1495.21,1655.65C1491.42,1689.4 1485.04,1713.16 1474.12,1746.31C1467.68,1765.88 1447.11,1820.23 1441.29,1834.02C1438.59,1840.4 1420.06,1896.58 1421.72,1841.11Z" style="fill:none;stroke:black;stroke-width:4.62px;"/>
    </g>
</svg>
