<?xml version="1.0" encoding="UTF-8" standalone="no"?>
<!DOCTYPE svg PUBLIC "-//W3C//DTD SVG 1.1//EN" "http://www.w3.org/Graphics/SVG/1.1/DTD/svg11.dtd">
<svg width="100%" height="100%" viewBox="0 0 2481 3508" version="1.1" xmlns="http://www.w3.org/2000/svg" xmlns:xlink="http://www.w3.org/1999/xlink" xml:space="preserve" xmlns:serif="http://www.serif.com/" style="fill-rule:evenodd;clip-rule:evenodd;stroke-linecap:round;stroke-linejoin:round;stroke-miterlimit:1.5;">
    <g transform="matrix(4.0269,0,0,4.0269,-4226.96,-4856.29)">
        <path d="M1183.12,1411.54L1132.66,1583.97L1116.86,1635.75C1116.86,1635.75 1100.65,1692.62 1095.69,1724.55C1090.73,1756.48 1134.39,1779.45 1134.39,1779.45L1231.64,1832.65C1231.64,1832.65 1356.34,1902.7 1421.29,1935.08C1486.23,1967.46 1500.59,1892.57 1500.59,1892.57L1536.7,1777.75C1536.7,1777.75 1595.21,1602.53 1608.64,1556.2C1622.08,1509.87 1589.3,1489.72 1589.3,1489.72L1518.05,1457.14C1518.05,1457.14 1334.84,1370.8 1273.12,1341.39C1221.29,1309.39 1202.16,1357.34 1198.69,1364.87C1191.42,1380.67 1183.12,1411.54 1183.12,1411.54Z" style="fill:none;stroke:black;stroke-width:10.35px;"/>
    </g>
    <g transform="matrix(4.0269,0,0,4.0269,-4226.96,-4856.29)">
        <path d="M1145.07,1606.59L1202.23,1418.71C1202.23,1418.71 1213.78,1392.95 1207.65,1445.08C1201.52,1497.2 1192.33,1573.99 1192.33,1573.99L1184.13,1648.08C1184.13,1648.08 1183.69,1681.96 1155.89,1702.34C1128.09,1722.72 1107.79,1737.34 1118.19,1700.27C1128.6,1663.21 1145.07,1606.59 1145.07,1606.59Z" style="fill:none;stroke:black;stroke-width:5.17px;"/>
    </g>
    <g transform="matrix(4.0269,0,0,4.0269,-4226.96,-4856.29)">
        <path d="M1202.88,1639.46L1213.21,1479.87C1213.21,1479.87 1219.14,1400.1 1220.61,1389.27C1221.82,1380.38 1227.31,1346.72 1263.89,1360.2C1272.63,1363.42 1284.71,1369.1 1297.9,1375.86C1327.24,1390.9 1413.86,1431.35 1413.86,1431.35L1555.35,1497C1555.35,1497 1601.74,1512.48 1541.73,1535.15C1481.72,1557.82 1351.67,1614.78 1351.67,1614.78L1229.94,1667.09C1229.94,1667.09 1197.32,1684.65 1202.88,1639.46Z" style="fill:none;stroke:black;stroke-width:5.17px;"/>
    </g>
    <g transform="matrix(4.0269,0,0,4.0269,-4226.96,-4856.29)">
        <path d="M1246.07,1740.37L1222.62,1716.51C1222.62,1716.51 1205.92,1693.72 1244.48,1678.96C1283.04,1664.2 1362.31,1625.38 1362.31,1625.38L1555.97,1541.12C1555.97,1541.12 1597.55,1525.67 1580.19,1575.64C1562.83,1625.6 1478.16,1897.2 1478.16,1897.2C1478.16,1897.2 1464.99,1934.2 1432.19,1903.1C1399.4,1872 1246.07,1740.37 1246.07,1740.37Z" style="fill:none;stroke:black;stroke-width:5.17px;"/>
    </g>
    <g transform="matrix(4.0269,0,0,4.0269,-4226.96,-4856.29)">
        <path d="M1342.28,1867.94L1140.53,1758.53C1140.53,1758.53 1111.79,1741.76 1139.68,1729C1167.56,1716.23 1182.04,1708.98 1205.43,1726.9C1228.83,1744.82 1399.75,1889.21 1399.75,1889.21C1399.75,1889.21 1423.77,1912.58 1385.81,1891.13C1347.86,1869.69 1342.28,1867.94 1342.28,1867.94Z" style="fill:none;stroke:black;stroke-width:5.17px;"/>
    </g>
</svg>
