<?xml version="1.0" encoding="UTF-8" standalone="no"?>
<!DOCTYPE svg PUBLIC "-//W3C//DTD SVG 1.1//EN" "http://www.w3.org/Graphics/SVG/1.1/DTD/svg11.dtd">
<svg width="100%" height="100%" viewBox="0 0 2481 3508" version="1.1" xmlns="http://www.w3.org/2000/svg" xmlns:xlink="http://www.w3.org/1999/xlink" xml:space="preserve" xmlns:serif="http://www.serif.com/" style="fill-rule:evenodd;clip-rule:evenodd;stroke-linecap:round;stroke-linejoin:round;stroke-miterlimit:1.5;">
    <g transform="matrix(4.73553,0,0,4.73553,-4896.11,-3958.44)">
        <path d="M1240.29,993.854C1281.98,987.588 1351.31,984.361 1360.25,985.464C1371.42,986.845 1375.35,978.379 1414.79,1023.31C1454.23,1068.24 1489.61,1125.78 1489.61,1125.78L1522.58,1183.08C1522.58,1183.08 1544.84,1209.23 1511.99,1274.35C1479.14,1339.48 1475.83,1367.08 1445.56,1384.08C1415.28,1401.08 1389.31,1423.69 1340.76,1425.16C1292.21,1426.62 1245.75,1430.55 1245.75,1430.55C1245.75,1430.55 1204.87,1438.38 1156.15,1357.5C1102.62,1279.48 1055.9,1243.84 1072.47,1194.46C1089.04,1145.08 1095.31,1127.07 1111.09,1099.74C1126.87,1072.41 1152.86,1041.87 1178.7,1020.5C1201.7,1001.48 1214.1,997.791 1240.29,993.854Z" style="fill:none;stroke:black;stroke-width:8.8px;"/>
    </g>
    <path d="M257.596,1704.47L429.504,1313.2C429.504,1313.2 476.225,1181.75 563.712,1091.92C651.2,1002.08 710.846,957.493 710.846,957.493C710.846,957.493 790.92,870.92 751.561,994.89C712.203,1118.86 697.056,1265.29 672.262,1302.64C648.487,1338.46 548.433,1494.61 465.608,1590.84C382.784,1687.07 294.649,1814.42 294.649,1814.42C294.649,1814.42 217.813,1852.59 257.596,1704.47ZM950.271,2621.77C950.271,2621.77 1221.53,2514.57 1428.97,2497.03C1636.4,2479.49 1778.5,2488.39 1778.5,2488.39C1778.5,2488.39 2010.8,2475.01 1838.07,2574.7C1665.33,2674.39 1614.85,2704.8 1562.17,2713.74C1509.49,2722.68 1077.66,2744.85 1077.66,2744.85C1077.66,2744.85 947.176,2762.36 884.83,2698.62C844.98,2659.89 841.008,2654.74 950.271,2621.77ZM785.387,1050.17C811.882,954.303 820.923,845.643 1027.84,819.327C1282.5,786.939 1402.16,787.606 1402.16,787.606C1402.16,787.606 1593.72,737.908 1704.13,898.42C1752.48,968.714 1821.61,1040.85 1864.14,1098.19C1878.61,1117.7 1960.87,1173.99 1836.16,1273.04C1736.27,1352.38 1664.59,1431.25 1567.89,1474.22C1464.26,1520.28 1408.15,1561.49 1187.36,1478.12C966.566,1394.75 852.028,1367.55 823.322,1352.28C797.452,1338.51 743.737,1348.79 752.996,1226.43C760.626,1125.59 754.464,1162.05 785.387,1050.17ZM1059.25,1503.09L1289.03,1580.14C1289.03,1580.14 1426.68,1622 1425.75,1799.99C1424.82,1977.98 1430.9,2274.81 1430.9,2274.81C1430.9,2274.81 1423.58,2428.32 1224.86,2481.15C1026.15,2533.99 901.957,2602.6 868.34,2602.09C813.884,2601.25 758.306,2567.66 724.153,2525.24C692.907,2486.43 334.89,1998.76 334.89,1998.76C334.89,1998.76 269.93,1908.34 334.2,1838.66C395.693,1756.43 596.327,1510.7 596.327,1510.7C596.327,1510.7 680.292,1364.92 845.271,1427.52C1010.25,1490.11 1059.25,1503.09 1059.25,1503.09ZM1485.03,2103.5L1481.41,1795.94C1481.41,1795.94 1450.99,1629.57 1630.35,1502.01C1717.67,1439.92 1827.06,1320.33 1897.38,1294.99C1990.23,1261.51 2018.89,1335.73 2061.9,1380.01C2116.63,1436.34 2225.77,1632.98 2225.77,1632.98C2225.77,1632.98 2314.75,1774.21 2227.25,1968.62C2154.7,2129.85 2073.13,2317.81 2048.73,2369.36C1991.26,2490.81 1938.92,2458.78 1751.69,2444.61C1657.64,2437.49 1514.07,2422.99 1487.37,2297.95C1482.66,2175.91 1485.03,2103.5 1485.03,2103.5Z"/>
</svg>
