<?xml version="1.0" encoding="UTF-8" standalone="no"?>
<!DOCTYPE svg PUBLIC "-//W3C//DTD SVG 1.1//EN" "http://www.w3.org/Graphics/SVG/1.1/DTD/svg11.dtd">
<svg width="100%" height="100%" viewBox="0 0 2481 3508" version="1.1" xmlns="http://www.w3.org/2000/svg" xmlns:xlink="http://www.w3.org/1999/xlink" xml:space="preserve" xmlns:serif="http://www.serif.com/" style="fill-rule:evenodd;clip-rule:evenodd;stroke-linecap:round;stroke-linejoin:round;stroke-miterlimit:1.5;">
    <path d="M977.299,747.984C1174.73,718.307 1503.08,703.026 1545.38,708.253C1598.28,714.79 1616.89,674.699 1803.68,887.465C1990.46,1100.23 2157.97,1372.72 2157.97,1372.72L2314.11,1644.05C2314.11,1644.05 2419.53,1767.9 2263.96,2076.3C2108.39,2384.69 2092.74,2515.41 1949.36,2595.91C1805.99,2676.4 1683.01,2783.51 1453.11,2790.43C1223.21,2797.36 1003.2,2815.98 1003.2,2815.98C1003.2,2815.98 809.596,2853.04 578.887,2470.02C325.359,2100.58 104.143,1931.77 182.609,1697.94C261.076,1464.11 290.756,1378.81 365.477,1249.39C440.198,1119.96 563.291,975.339 685.674,874.151C794.596,784.093 853.279,766.627 977.299,747.984ZM1108.27,1518.51C1108.27,1518.51 1033.02,1474.58 855.489,1418.77C687.158,1365.85 572.314,1516.81 572.314,1516.81C572.314,1516.81 501.126,1596.28 428.484,1694.43C396.513,1737.63 352.993,1813.53 334.2,1838.66C269.93,1908.34 334.89,1998.76 334.89,1998.76C334.89,1998.76 692.907,2486.43 724.153,2525.24C758.306,2567.66 813.884,2601.25 868.34,2602.09C901.957,2602.6 1064.28,2549.61 1262.99,2496.78C1461.7,2443.94 1454.99,2211.73 1454.99,2211.73C1454.99,2211.73 1434.37,1879.83 1423.21,1805.31C1396.83,1629.28 1353.5,1619.23 1353.5,1619.23L1108.27,1518.51ZM257.596,1704.47C217.813,1852.59 294.649,1814.42 294.649,1814.42C294.649,1814.42 380.979,1706.86 463.804,1610.64C546.629,1514.41 654.47,1341.78 672.262,1302.64C751.279,1128.84 739.782,1043.62 756.826,992.282C790.675,890.323 710.846,957.493 710.846,957.493C710.846,957.493 651.2,1002.08 563.712,1091.92C476.225,1181.75 429.504,1313.2 429.504,1313.2L257.596,1704.47ZM771.58,1030.62C740.657,1142.51 749.193,1099.32 741.563,1200.17C732.304,1322.53 805.77,1351.47 831.64,1365.24C860.346,1380.51 889.795,1405.98 1110.59,1489.35C1331.38,1572.73 1464.26,1520.28 1567.89,1474.22C1664.59,1431.25 1748.59,1364.88 1848.48,1285.54C1973.19,1186.49 1878.61,1117.7 1864.14,1098.19C1821.61,1040.85 1752.48,968.714 1704.13,898.42C1593.72,737.908 1400.41,779.318 1400.41,779.318C1400.41,779.318 1282.5,786.939 1027.84,819.327C820.923,845.643 798.076,934.759 771.58,1030.62ZM950.271,2621.77C841.008,2654.74 844.98,2659.89 884.83,2698.62C947.176,2762.36 1077.66,2744.85 1077.66,2744.85C1077.66,2744.85 1509.49,2722.68 1562.17,2713.74C1614.85,2704.8 1665.33,2674.39 1838.07,2574.7C2010.8,2475.01 1778.5,2488.39 1778.5,2488.39C1778.5,2488.39 1636.4,2479.49 1428.97,2497.03C1221.53,2514.57 950.271,2621.77 950.271,2621.77ZM1479.56,2132.21C1479.56,2132.21 1497.64,2266.59 1513.26,2339.78C1539.96,2464.82 1657.64,2437.49 1751.69,2444.61C1938.92,2458.78 1991.26,2490.81 2048.73,2369.36C2073.13,2317.81 2154.7,2129.85 2227.25,1968.62C2314.75,1774.21 2225.77,1632.98 2225.77,1632.98C2225.77,1632.98 2116.63,1436.34 2061.9,1380.01C2018.89,1335.73 1997.98,1266.46 1905.12,1299.93C1834.81,1325.28 1739.45,1406.47 1662.4,1470.1C1614.16,1509.93 1529.59,1544.15 1510.94,1593.02C1467.75,1706.17 1476.34,1823.27 1476.34,1823.27L1479.56,2132.21Z"/>
    <g transform="matrix(4.73553,0,0,4.73553,-4896.11,-3958.44)">
        <path d="M1240.29,993.854C1281.98,987.588 1351.31,984.361 1360.25,985.464C1371.42,986.845 1375.35,978.379 1414.79,1023.31C1454.23,1068.24 1489.61,1125.78 1489.61,1125.78L1522.58,1183.08C1522.58,1183.08 1544.84,1209.23 1511.99,1274.35C1479.14,1339.48 1475.83,1367.08 1445.56,1384.08C1415.28,1401.08 1389.31,1423.69 1340.76,1425.16C1292.21,1426.62 1245.75,1430.55 1245.75,1430.55C1245.75,1430.55 1204.87,1438.38 1156.15,1357.5C1102.62,1279.48 1055.9,1243.84 1072.47,1194.46C1089.04,1145.08 1095.31,1127.07 1111.09,1099.74C1126.87,1072.41 1152.86,1041.87 1178.7,1020.5C1201.7,1001.48 1214.1,997.791 1240.29,993.854Z" style="fill:none;stroke:black;stroke-width:8.8px;"/>
    </g>
</svg>
