<?xml version="1.0" encoding="UTF-8" standalone="no"?>
<!DOCTYPE svg PUBLIC "-//W3C//DTD SVG 1.1//EN" "http://www.w3.org/Graphics/SVG/1.1/DTD/svg11.dtd">
<svg width="100%" height="100%" viewBox="0 0 2481 3508" version="1.1" xmlns="http://www.w3.org/2000/svg" xmlns:xlink="http://www.w3.org/1999/xlink" xml:space="preserve" xmlns:serif="http://www.serif.com/" style="fill-rule:evenodd;clip-rule:evenodd;stroke-linecap:round;stroke-linejoin:round;stroke-miterlimit:1.5;">
    <path d="M223.034,1693.02L193.449,1268.74C193.449,1268.74 196.716,1069.52 424.958,950.86C669.211,801.389 1013.08,580.269 1013.08,580.269C1013.08,580.269 1217.09,425.398 1436.96,560.369C1664.33,702.006 1987.28,888.594 1987.28,888.594C1987.28,888.594 2143.34,968.457 2185.21,1147.21C2202.93,1323.68 2250.75,1887.34 2250.75,1887.34C2250.75,1887.34 2262.78,1952.38 2250.71,2033.56C2236.94,2126.12 2195.59,2228.17 2065.67,2290.25C2016.1,2313.93 1974.43,2344.98 1895.26,2388.85C1575.94,2565.79 1380.24,2676.45 1380.24,2676.45C1380.24,2676.45 1227.45,2780.24 974.611,2651.14C729.502,2525.98 520.084,2420.54 520.084,2420.54C520.084,2420.54 247.73,2320.45 235.213,2094.06C225.178,1912.58 223.034,1693.02 223.034,1693.02ZM812.133,1563.17C812.133,1563.17 878.441,1710.27 1001.83,1898.59C1107.71,2060.16 1271.02,2263.04 1295.24,2304.69C1347.67,2394.89 1395.16,2335.12 1395.16,2335.12C1395.16,2335.12 1468.76,2231.98 1629.56,1944C1753.36,1722.28 1874.89,1412.63 1894.09,1361.94C1919.2,1295.68 1816.38,1307.33 1816.38,1307.33L1684.95,1314.49C1684.95,1314.49 1611.53,1314.41 1272.38,1335.32C1157.85,1342.38 998.297,1376.22 899.567,1390.5C825.775,1401.16 809.315,1400.64 797.553,1423.66C766.569,1484.3 812.133,1563.17 812.133,1563.17ZM909.312,1023.55C872.918,1089.68 817.35,1198.93 800.993,1225.25C784.637,1251.56 756.093,1293.25 768.978,1325.11C781.864,1356.96 858.974,1357.33 858.974,1357.33C858.974,1357.33 913.765,1352.53 934.506,1351.78C1027.61,1348.44 1014.47,1352.36 1419.73,1325.8C1549.75,1317.28 1771.55,1275 1818.38,1268.53C1947.04,1250.78 1861.41,1130.64 1861.41,1130.64C1861.41,1130.64 1754.45,1029.26 1704.17,977.889C1626.95,899.002 1417.72,724.848 1355.77,665.312C1293.83,605.776 1248.44,598.718 1203.98,613.622C1159.53,628.525 1072.45,732.257 1031.82,805.942C929.401,991.71 1000,858.776 909.312,1023.55ZM1895.03,1163.09C1895.03,1163.09 1958.48,1204.89 1991.68,1171.65C2024.89,1138.4 2045.12,1107.31 2040.79,1076.84C2036.47,1046.38 2064.61,993.368 1910.19,910.922C1755.77,828.475 1438.77,647.098 1438.77,647.098C1438.77,647.098 1313.27,573.989 1418.54,678.368C1523.8,782.747 1529.68,803.208 1597.65,872.348C1677.06,953.135 1895.03,1163.09 1895.03,1163.09ZM1951.88,1388.44C1879.28,1398.83 1814.36,1586.29 1693.92,1818.9C1573.65,2051.2 1460.11,2304.17 1445.16,2344.26C1415.01,2425.13 1487.01,2392.12 1487.01,2392.12C1487.01,2392.12 1679.95,2364.21 1815.97,2316.48C1935.05,2274.69 2063.76,2211.26 2070.25,2208.51C2212.39,2148.2 2181.51,1994.54 2181.51,1994.54C2181.51,1994.54 2165.39,1909.65 2154.6,1861.63C2138.75,1791.07 2087.93,1653.12 2058.95,1573.18C2031.88,1498.52 1996.42,1382.06 1951.88,1388.44ZM1637.55,2475.17C1637.55,2475.17 1947.31,2320.56 2006.48,2281.72C2065.66,2242.88 1983.82,2257.47 1983.82,2257.47L1705.05,2355.48C1705.05,2355.48 1563.33,2409.63 1485.26,2443.9C1423.57,2470.98 1384.19,2467.83 1347.36,2508.52C1337.58,2519.33 1327.22,2550.12 1323.1,2566.89C1307.83,2629.05 1385.46,2599.98 1385.46,2599.98L1637.55,2475.17ZM1029.39,2590.15C1095.64,2615.43 1150.5,2627.1 1189.22,2629.42C1222.98,2631.44 1245.24,2633.31 1255.65,2624.05C1273.61,2608.06 1290.27,2559.18 1283.98,2525.01C1279.15,2498.75 1218.83,2456.44 1212.61,2452.79C1175.48,2430.97 1151.91,2422.53 1093.25,2403.11C1013.16,2376.61 846.604,2340.76 766.883,2322C710.464,2308.72 509.395,2288.21 509.395,2288.21C509.395,2288.21 414.193,2293.54 541.408,2349.49C668.623,2405.44 915.181,2546.56 1029.39,2590.15ZM430.568,2004.71C410.368,2050.05 413.668,2050.41 395.489,2087.61C377.31,2124.8 369.684,2171.38 371.939,2185.34C382.61,2251.43 470.604,2261.19 470.604,2261.19C470.604,2261.19 1133.66,2398.44 1213.43,2409.46C1293.2,2420.48 1265.2,2352.63 1265.2,2352.63C1265.2,2352.63 1177.79,2162.45 1050.02,1969.58C937.364,1799.53 784.801,1627.33 753.726,1582.49C692.613,1479.04 624.538,1573.49 624.538,1573.49C624.538,1573.49 468.743,1919.03 430.568,2004.71ZM290.823,1731.46C290.823,1731.46 291.181,1887.41 299.741,2010.65C311.934,2186.2 354.82,2091.24 354.82,2091.24L399.016,2014.71C399.016,2014.71 433.07,1955.2 465.268,1891.49C493.977,1834.68 510.151,1819.76 582.875,1666.78C610.566,1608.53 647.305,1530.59 647.685,1506.29C648.227,1471.65 643.751,1469.19 634.264,1446.24C625.605,1425.3 605.55,1383.21 597.348,1372.48C581.621,1351.9 505.672,1258.59 398.997,1199.8C292.322,1141 268.062,1314.48 268.062,1314.48L290.823,1731.46ZM601.085,917.85C601.085,917.85 434.403,1022.63 377.407,1083.09C320.41,1143.56 388.656,1193.69 388.656,1193.69C388.656,1193.69 549.914,1307.69 619.199,1332.03C688.484,1356.37 706.67,1315.77 706.67,1315.77C706.67,1315.77 808.613,1200.24 848.088,1134.58C912.512,1027.42 1036.64,767.775 1093.21,672.811C1149.79,577.846 1043.68,638.812 1043.68,638.812L601.085,917.85ZM2013.17,1331.92C2013.17,1331.92 2127.72,1750.61 2147.14,1834.07C2166.56,1917.52 2182.46,1891.13 2182.46,1891.13L2156.54,1583.44C2156.54,1583.44 2143.68,1262.71 2120.47,1197.75C2103.79,1151.08 2084.72,1143.84 2063.46,1160.11C2055.14,1166.48 2046.48,1176.45 2037.5,1189.07C2019.36,1214.56 2020.25,1218.85 2013.66,1235.07C2005.15,1256 2013.17,1331.92 2013.17,1331.92Z" style="stroke:black;stroke-width:41.18px;"/>
</svg>
