<?xml version="1.0" encoding="UTF-8" standalone="no"?>
<!DOCTYPE svg PUBLIC "-//W3C//DTD SVG 1.1//EN" "http://www.w3.org/Graphics/SVG/1.1/DTD/svg11.dtd">
<svg width="100%" height="100%" viewBox="0 0 2481 3508" version="1.1" xmlns="http://www.w3.org/2000/svg" xmlns:xlink="http://www.w3.org/1999/xlink" xml:space="preserve" xmlns:serif="http://www.serif.com/" style="fill-rule:evenodd;clip-rule:evenodd;stroke-linecap:round;stroke-linejoin:round;stroke-miterlimit:1.5;">
    <g transform="matrix(4.05761,0,0,4.05761,-3397.86,-4912.41)">
        <path d="M916.595,1799.93C905.887,1734.26 889.456,1540.6 885.084,1512.62C884.766,1510.58 864.918,1423.71 921.753,1407.76C986.168,1389.67 1013.75,1375.81 1042.98,1367.05C1060.68,1361.74 1080.95,1351.86 1097.14,1355.19C1127.63,1361.46 1135.82,1375.49 1158.86,1391.97C1181.9,1408.45 1294.27,1503.06 1294.27,1503.06L1398.09,1590.71C1398.09,1590.71 1449.04,1635.11 1381.97,1680.47C1324.91,1719.05 1093.82,1869.52 1024.34,1914.36C1012.14,1922.23 999.348,1929.25 999.348,1929.25C999.348,1929.25 938.337,1957.27 928.771,1895.79C919.644,1837.13 921.485,1829.92 916.595,1799.93Z" style="fill:none;stroke:black;stroke-width:10.27px;"/>
    </g>
    <g transform="matrix(4.05761,0,0,4.05761,-3397.86,-4912.41)">
        <path d="M917.833,1642.22L899.298,1490.73C899.298,1490.73 895.78,1450.61 915.12,1437.07C934.46,1423.53 957.598,1416.28 976.819,1409C989.785,1404.09 1091.06,1346.13 1073.49,1425.29C1070.16,1440.29 1057.49,1510.47 1040.35,1579.21C1007.27,1711.86 961.467,1874.72 961.467,1874.72C961.467,1874.72 948.09,1905.36 942.682,1847.5C935.509,1770.76 917.833,1642.22 917.833,1642.22Z" style="fill:none;stroke:black;stroke-width:5.13px;"/>
    </g>
    <g transform="matrix(4.05761,0,0,4.05761,-3397.86,-4912.41)">
        <path d="M1007.89,1736.3C1007.27,1736.24 1063.2,1533.5 1078.28,1480.38C1081.66,1468.5 1092.27,1429.9 1098.2,1418.91C1105.37,1405.64 1107.22,1382.73 1134.61,1402.86C1187.36,1441.64 1289.69,1526.73 1289.69,1526.73C1289.69,1526.73 1349.03,1573.85 1384.02,1608.12C1398.96,1622.75 1395.65,1641.08 1361.78,1666.77C1304.9,1709.9 1016.03,1891.35 1016.03,1891.35C1016.03,1891.35 971.586,1919.01 983.033,1853.41C998.058,1767.31 1008.51,1736.36 1007.89,1736.3Z" style="fill:none;stroke:black;stroke-width:5.13px;"/>
    </g>
    <path d="M321.321,2391C277.873,2124.52 211.201,1338.75 193.459,1225.2C192.169,1216.94 111.634,864.465 342.249,799.711C603.62,726.322 715.538,670.075 834.148,634.524C905.979,612.994 988.205,572.89 1053.91,586.404C1177.64,611.853 1210.83,668.775 1304.34,735.661C1397.84,802.547 1853.77,1186.4 1853.77,1186.4L2275.05,1542.06C2275.05,1542.06 2481.78,1722.23 2209.62,1906.26C1978.11,2062.8 1040.44,2673.37 758.5,2855.3C708.989,2887.24 657.1,2915.72 657.1,2915.72C657.1,2915.72 409.542,3029.4 370.725,2779.94C333.691,2541.94 341.164,2512.7 321.321,2391ZM691.778,2132.81C694.293,2133.06 651.865,2258.62 590.899,2608C544.454,2874.16 724.777,2761.96 724.777,2761.96C724.777,2761.96 1896.9,2025.67 2127.69,1850.67C2265.13,1746.45 2278.55,1672.07 2217.94,1612.72C2075.96,1473.65 1835.21,1282.45 1835.21,1282.45C1835.21,1282.45 1419.96,937.19 1205.92,779.852C1094.8,698.165 1087.27,791.135 1058.2,844.989C1034.14,889.555 991.072,1046.19 977.392,1094.37C916.171,1309.95 689.263,2132.55 691.778,2132.81ZM326.342,1751.06C326.342,1751.06 398.065,2272.64 427.171,2584C449.117,2818.78 503.393,2694.45 503.393,2694.45C503.393,2694.45 689.243,2033.63 823.455,1495.39C893.005,1216.47 944.445,931.7 957.943,870.866C1029.22,549.656 618.296,784.845 565.686,804.757C487.693,834.275 393.81,863.698 315.335,918.647C236.861,973.596 251.135,1136.4 251.135,1136.4L326.342,1751.06Z"/>
</svg>
