<?xml version="1.0" encoding="UTF-8" standalone="no"?>
<!DOCTYPE svg PUBLIC "-//W3C//DTD SVG 1.1//EN" "http://www.w3.org/Graphics/SVG/1.1/DTD/svg11.dtd">
<svg width="100%" height="100%" viewBox="0 0 2481 3508" version="1.1" xmlns="http://www.w3.org/2000/svg" xmlns:xlink="http://www.w3.org/1999/xlink" xml:space="preserve" xmlns:serif="http://www.serif.com/" style="fill-rule:evenodd;clip-rule:evenodd;stroke-linejoin:round;stroke-miterlimit:2;">
    <path d="M2073.62,2475.76C2073.62,2475.76 2071.84,2530.97 1952.41,2829.28C1832.99,3127.6 1427.79,2949.39 1427.79,2949.39C1427.79,2949.39 838.599,2792.56 646.513,2742.2C316.867,2687.95 296.912,2424.48 296.912,2424.48C296.912,2424.48 215.942,1962.77 178.247,1713.98C140.552,1465.2 237.152,1325.07 237.152,1325.07C237.152,1325.07 472.529,985.097 642.404,752.521C803.549,445.992 1115.28,533.84 1115.28,533.84C1115.28,533.84 1786.53,671.514 2047.97,731.888C2309.41,792.262 2329.2,1005.87 2329.2,1005.87C2329.2,1005.87 2310.34,1372.06 2289.62,1600.72C2268.9,1829.38 2233.26,2021.32 2233.26,2021.32L2073.62,2475.76ZM404.249,1266.97C267.013,1451.79 380.803,1506.8 402.334,1519.85C423.866,1532.89 607.244,1571.2 607.244,1571.2C607.244,1571.2 1296.12,1713.39 1566.26,1781.81C1836.4,1850.22 1904.44,1654.8 1904.44,1654.8C1904.44,1654.8 2047.89,1317.43 2163.4,1056.36C2278.91,795.292 1868.98,783.713 1868.98,783.713C1868.98,783.713 1255.95,668.957 1048.27,625.875C840.597,582.793 768.321,722.431 768.321,722.431L404.249,1266.97ZM1851.11,2668.22C1843.61,2918.6 1927.23,2665.04 1939.41,2636.19C1965.71,2573.96 2058.54,2328.64 2087.63,2240.32C2136.92,2090.69 2165.7,1983.47 2182.82,1831.11C2205.3,1630.98 2191.35,1630.18 2230.43,1269.24C2269.5,908.29 2188.93,1130.5 2188.93,1130.5C2188.93,1130.5 2079.45,1417.85 1986.29,1633.14C1893.14,1848.43 1875.5,1974.64 1875.5,1974.64C1875.5,1974.64 1851.6,2651.63 1851.11,2668.22ZM353.181,2223.36C353.181,2223.36 363.587,2336.04 397.369,2462.15C431.152,2588.25 581.285,2632.09 581.285,2632.09C581.285,2632.09 1479.76,2875.47 1610.8,2914.19C1741.85,2952.91 1776.26,2859.9 1792.49,2819.38C1813.55,2766.85 1809.73,2396.3 1811.53,2143.82C1813.32,1891.35 1590.23,1861.72 1590.23,1861.72C1590.23,1861.72 624.696,1607.23 428.223,1571.58C231.75,1535.93 269.416,1711.92 269.416,1711.92L353.181,2223.36Z"/>
</svg>
