<?xml version="1.0" encoding="iso-8859-1"?>
<!-- Uploaded to: SVG Repo, www.svgrepo.com, Generator: SVG Repo Mixer Tools -->
<svg fill="#000000" height="800px" width="800px" version="1.1" id="Layer_1" xmlns="http://www.w3.org/2000/svg" xmlns:xlink="http://www.w3.org/1999/xlink" 
	 viewBox="0 0 512 512" xml:space="preserve">
<g>
	<g>
		<path d="M256,0C114.837,0,0,114.837,0,256s114.837,256,256,256s256-114.837,256-256S397.163,0,256,0z M319.125,215.147
			c111.381,6.357,171.541,28.523,171.541,40.853s-60.16,34.496-171.541,40.853C319.701,282.197,320,268.288,320,256
			S319.701,229.803,319.125,215.147z M488.704,227.093c-36.011-19.883-107.755-29.504-170.624-33.173
			c-3.669-62.848-13.291-134.592-33.173-170.624C391.189,36.437,475.563,120.811,488.704,227.093z M298.667,256
			c0,14.656-0.341,28.48-0.832,41.835c-13.355,0.491-27.179,0.832-41.835,0.832s-28.48-0.341-41.835-0.832
			c-0.491-13.355-0.832-27.179-0.832-41.835s0.341-28.48,0.832-41.835c13.355-0.491,27.179-0.832,41.835-0.832
			s28.48,0.341,41.835,0.832C298.325,227.52,298.667,241.344,298.667,256z M256,21.333c12.331,0,34.496,60.16,40.853,171.541
			C282.197,192.299,268.288,192,256,192s-26.197,0.299-40.853,0.875C221.504,81.493,243.669,21.333,256,21.333z M227.093,23.296
			c-19.883,36.032-29.504,107.776-33.173,170.624c-62.848,3.669-134.592,13.291-170.624,33.173
			C36.437,120.811,120.811,36.437,227.093,23.296z M192.875,215.147C192.299,229.803,192,243.712,192,256s0.299,26.197,0.875,40.853
			C81.493,290.496,21.333,268.331,21.333,256S81.493,221.504,192.875,215.147z M23.296,284.907
			c36.011,19.883,107.755,29.504,170.624,33.173c3.669,62.848,13.291,134.592,33.173,170.624
			C120.811,475.563,36.437,391.189,23.296,284.907z M256,490.667c-12.331,0-34.496-60.16-40.853-171.541
			C229.803,319.701,243.712,320,256,320s26.197-0.299,40.853-0.875C290.496,430.507,268.331,490.667,256,490.667z M284.907,488.704
			c19.883-36.011,29.504-107.755,33.173-170.624c62.848-3.669,134.592-13.291,170.624-33.173
			C475.563,391.189,391.189,475.563,284.907,488.704z"/>
	</g>
</g>
</svg>