<?xml version="1.0" encoding="UTF-8" standalone="no"?>
<svg
   xmlns:dc="http://purl.org/dc/elements/1.1/"
   xmlns:cc="http://creativecommons.org/ns#"
   xmlns:rdf="http://www.w3.org/1999/02/22-rdf-syntax-ns#"
   xmlns:svg="http://www.w3.org/2000/svg"
   xmlns="http://www.w3.org/2000/svg"
   xmlns:sodipodi="http://sodipodi.sourceforge.net/DTD/sodipodi-0.dtd"
   xmlns:inkscape="http://www.inkscape.org/namespaces/inkscape"
   width="210mm"
   height="297mm"
   viewBox="0 0 210 297"
   version="1.1"
   id="svg8"
   inkscape:version="1.0.2-2 (e86c870879, 2021-01-15)"
   sodipodi:docname="d20 sharp alt.svg">
  <defs
     id="defs2" />
  <sodipodi:namedview
     id="base"
     pagecolor="#ffffff"
     bordercolor="#666666"
     borderopacity="1.0"
     inkscape:pageopacity="0.0"
     inkscape:pageshadow="2"
     inkscape:zoom="0.7"
     inkscape:cx="393.04244"
     inkscape:cy="692.41819"
     inkscape:document-units="mm"
     inkscape:current-layer="layer1"
     inkscape:document-rotation="0"
     showgrid="false"
     inkscape:window-width="1267"
     inkscape:window-height="1198"
     inkscape:window-x="3136"
     inkscape:window-y="103"
     inkscape:window-maximized="0" />
  <metadata
     id="metadata5">
    <rdf:RDF>
      <cc:Work
         rdf:about="">
        <dc:format>image/svg+xml</dc:format>
        <dc:type
           rdf:resource="http://purl.org/dc/dcmitype/StillImage" />
        <dc:title></dc:title>
      </cc:Work>
    </rdf:RDF>
  </metadata>
  <g
     inkscape:label="Layer 1"
     inkscape:groupmode="layer"
     id="layer1">
    <g
       style="clip-rule:evenodd;fill-rule:evenodd;stroke-linecap:round;stroke-linejoin:round;stroke-miterlimit:1.5"
       id="g155"
       transform="matrix(0.10599573,0,0,0.10599573,-26.787237,-23.186353)">
      <path
         d="m 326.99717,1151.6879 c 0,0 911.47283,-539.0409 912.75283,-534.2319 2.1,7.941 909.6238,525.7659 913.8538,518.1959 4.22,-7.57 -6.8638,1055.8881 -6.8638,1055.8881 L 1239.75,2680.43 338.121,2178.38 Z M 707.449,1986.18 1772.05,1980.12 1240.16,1027.28 Z M 1320.59,995.593 1829.4,1906.66 2048.15,1169.8 Z m 707,1175.327 -174.44,-102.54 -387.68,419.52 z M 735.558,2057.94 1242.43,2595.18 1761.17,2054.07 Z M 1281.55,904.023 1829.4,1043.03 1277.65,718.154 Z M 426.575,2095.99 598.019,1998.91 427.382,1418.16 Z m 31.072,65.94 578.903,324.9 L 636.355,2064 Z m -14.912,-989.69 209.179,734.42 505.146,-913.834 z m 1449.555,830.56 178.23,93.19 -1.09,-682.88 z M 658.224,1040.29 1193.52,907.378 1192.17,715.39 Z"
         style="stroke:#000000;stroke-width:25px"
         id="path144"
         sodipodi:nodetypes="ccccccccccccccccccccccccccccccccccccccccccccccc"
         inkscape:export-xdpi="96"
         inkscape:export-ydpi="96" />
    </g>
  </g>
</svg>
